SplineFontDB: 3.2
FontName: Sweet16
FullName: Sweet16
FamilyName: Sweet16
Weight: Book
Copyright: Copyright (c) 2018, Martin Sedlak\nlicensed under boost software license
Version: 001.000
ItalicAngle: 0
UnderlinePosition: -50
UnderlineWidth: 50
Ascent: 2048
Descent: 0
InvalidEm: 0
sfntRevision: 0x00010000
LayerCount: 2
Layer: 0 1 "Back" 1
Layer: 1 1 "Fore" 0
XUID: [1021 311 888881458 14992273]
StyleMap: 0x0000
FSType: 0
OS2Version: 4
OS2_WeightWidthSlopeOnly: 0
OS2_UseTypoMetrics: 1
CreationTime: 1537097132
ModificationTime: 1760679027
PfmFamily: 17
TTFWeight: 400
TTFWidth: 5
LineGap: 184
VLineGap: 0
Panose: 2 0 5 3 0 0 0 0 0 0
OS2TypoAscent: 2048
OS2TypoAOffset: 0
OS2TypoDescent: 0
OS2TypoDOffset: 0
OS2TypoLinegap: 184
OS2WinAscent: 2048
OS2WinAOffset: 0
OS2WinDescent: 0
OS2WinDOffset: 0
HheadAscent: 2048
HheadAOffset: 0
HheadDescent: 0
HheadDOffset: 0
OS2SubXSize: 1331
OS2SubYSize: 1433
OS2SubXOff: 0
OS2SubYOff: 286
OS2SupXSize: 1331
OS2SupYSize: 1433
OS2SupXOff: 0
OS2SupYOff: 983
OS2StrikeYSize: 102
OS2StrikeYPos: 530
OS2CapHeight: 1792
OS2XHeight: 1408
OS2Vendor: 'PfEd'
OS2CodePages: 00000093.00000000
OS2UnicodeRanges: 00000007.00000000.00000000.00000000
DEI: 91125
ShortTable: cvt  2
  68
  1297
EndShort
ShortTable: maxp 16
  1
  0
  322
  64
  16
  0
  0
  2
  0
  1
  1
  0
  64
  46
  0
  0
EndShort
LangName: 1033 "" "" "Regular" "FontForge 2.0 : Sweet16 : 16-9-2018"
GaspTable: 1 65535 2 0
Encoding: win
UnicodeInterp: none
NameList: AGL For New Fonts
DisplaySize: -128
AntiAlias: 0
FitToEm: 0
WinInfo: 0 10 4
BeginChars: 256 191

StartChar: exclam
Encoding: 33 33 1
Width: 256
Flags: W
LayerCount: 2
Fore
SplineSet
0 1792 m 1,0,-1
 128 1792 l 1,1,-1
 128 896 l 1,2,-1
 0 896 l 1,3,-1
 0 1792 l 1,0,-1
0 768 m 1,4,-1
 128 768 l 1,5,-1
 128 512 l 1,6,-1
 0 512 l 1,7,-1
 0 768 l 1,4,-1
EndSplineSet
EndChar

StartChar: quotedbl
Encoding: 34 34 2
Width: 512
Flags: W
LayerCount: 2
Fore
SplineSet
0 1792 m 1,0,-1
 128 1792 l 1,1,-1
 128 1408 l 1,2,-1
 0 1408 l 1,3,-1
 0 1792 l 1,0,-1
256 1792 m 1,4,-1
 384 1792 l 1,5,-1
 384 1408 l 1,6,-1
 256 1408 l 1,7,-1
 256 1792 l 1,4,-1
EndSplineSet
EndChar

StartChar: numbersign
Encoding: 35 35 3
Width: 896
Flags: W
LayerCount: 2
Fore
SplineSet
128 1664 m 1,0,-1
 256 1664 l 1,1,-1
 256 512 l 1,2,-1
 128 512 l 1,3,-1
 128 1664 l 1,0,-1
512 1664 m 1,4,-1
 640 1664 l 1,5,-1
 640 512 l 1,6,-1
 512 512 l 1,7,-1
 512 1664 l 1,4,-1
0 1408 m 1,8,-1
 128 1408 l 1,9,-1
 128 1280 l 1,10,-1
 0 1280 l 1,11,-1
 0 1408 l 1,8,-1
256 1408 m 1,12,-1
 512 1408 l 1,13,-1
 512 1280 l 1,14,-1
 256 1280 l 1,15,-1
 256 1408 l 1,12,-1
640 1408 m 1,16,-1
 768 1408 l 1,17,-1
 768 1280 l 1,18,-1
 640 1280 l 1,19,-1
 640 1408 l 1,16,-1
0 896 m 1,20,-1
 128 896 l 1,21,-1
 128 768 l 1,22,-1
 0 768 l 1,23,-1
 0 896 l 1,20,-1
256 896 m 1,24,-1
 512 896 l 1,25,-1
 512 768 l 1,26,-1
 256 768 l 1,27,-1
 256 896 l 1,24,-1
640 896 m 1,28,-1
 768 896 l 1,29,-1
 768 768 l 1,30,-1
 640 768 l 1,31,-1
 640 896 l 1,28,-1
EndSplineSet
EndChar

StartChar: dollar
Encoding: 36 36 4
Width: 768
Flags: W
LayerCount: 2
Fore
SplineSet
256 1920 m 1,0,-1
 384 1920 l 1,1,-1
 384 1664 l 1,2,-1
 256 1664 l 1,3,-1
 256 1920 l 1,0,-1
128 1792 m 1,4,-1
 256 1792 l 1,5,-1
 256 1664 l 1,6,-1
 128 1664 l 1,7,-1
 128 1792 l 1,4,-1
384 1792 m 1,8,-1
 512 1792 l 1,9,-1
 512 1664 l 1,10,-1
 384 1664 l 1,11,-1
 384 1792 l 1,8,-1
0 1664 m 1,12,-1
 128 1664 l 1,13,-1
 128 1280 l 1,14,-1
 0 1280 l 1,15,-1
 0 1664 l 1,12,-1
512 1664 m 1,16,-1
 640 1664 l 1,17,-1
 640 1408 l 1,18,-1
 512 1408 l 1,19,-1
 512 1664 l 1,16,-1
128 1280 m 1,20,-1
 512 1280 l 1,21,-1
 512 1152 l 1,22,-1
 128 1152 l 1,23,-1
 128 1280 l 1,20,-1
512 1152 m 1,24,-1
 640 1152 l 1,25,-1
 640 640 l 1,26,-1
 512 640 l 1,27,-1
 512 1152 l 1,24,-1
0 896 m 1,28,-1
 128 896 l 1,29,-1
 128 640 l 1,30,-1
 0 640 l 1,31,-1
 0 896 l 1,28,-1
128 640 m 1,32,-1
 512 640 l 1,33,-1
 512 512 l 1,34,-1
 128 512 l 1,35,-1
 128 640 l 1,32,-1
256 512 m 1,36,-1
 384 512 l 1,37,-1
 384 384 l 1,38,-1
 256 384 l 1,39,-1
 256 512 l 1,36,-1
EndSplineSet
EndChar

StartChar: percent
Encoding: 37 37 5
Width: 1024
Flags: W
LayerCount: 2
Fore
SplineSet
128 1792 m 1,0,-1
 256 1792 l 1,1,-1
 256 1664 l 1,2,-1
 128 1664 l 1,3,-1
 128 1792 l 1,0,-1
0 1664 m 1,4,-1
 128 1664 l 1,5,-1
 128 1408 l 1,6,-1
 0 1408 l 1,7,-1
 0 1664 l 1,4,-1
256 1664 m 1,8,-1
 384 1664 l 1,9,-1
 384 1408 l 1,10,-1
 256 1408 l 1,11,-1
 256 1664 l 1,8,-1
768 1536 m 1,12,-1
 896 1536 l 1,13,-1
 896 1408 l 1,14,-1
 768 1408 l 1,15,-1
 768 1536 l 1,12,-1
128 1408 m 1,16,-1
 256 1408 l 1,17,-1
 256 1280 l 1,18,-1
 128 1280 l 1,19,-1
 128 1408 l 1,16,-1
640 1408 m 1,20,-1
 768 1408 l 1,21,-1
 768 1280 l 1,22,-1
 640 1280 l 1,23,-1
 640 1408 l 1,20,-1
512 1280 m 1,24,-1
 640 1280 l 1,25,-1
 640 1152 l 1,26,-1
 512 1152 l 1,27,-1
 512 1280 l 1,24,-1
384 1152 m 1,28,-1
 512 1152 l 1,29,-1
 512 1024 l 1,30,-1
 384 1024 l 1,31,-1
 384 1152 l 1,28,-1
256 1024 m 1,32,-1
 384 1024 l 1,33,-1
 384 896 l 1,34,-1
 256 896 l 1,35,-1
 256 1024 l 1,32,-1
128 896 m 1,36,-1
 256 896 l 1,37,-1
 256 768 l 1,38,-1
 128 768 l 1,39,-1
 128 896 l 1,36,-1
640 896 m 1,40,-1
 768 896 l 1,41,-1
 768 768 l 1,42,-1
 640 768 l 1,43,-1
 640 896 l 1,40,-1
0 768 m 1,44,-1
 128 768 l 1,45,-1
 128 640 l 1,46,-1
 0 640 l 1,47,-1
 0 768 l 1,44,-1
512 768 m 1,48,-1
 640 768 l 1,49,-1
 640 512 l 1,50,-1
 512 512 l 1,51,-1
 512 768 l 1,48,-1
768 768 m 1,52,-1
 896 768 l 1,53,-1
 896 512 l 1,54,-1
 768 512 l 1,55,-1
 768 768 l 1,52,-1
640 512 m 1,56,-1
 768 512 l 1,57,-1
 768 384 l 1,58,-1
 640 384 l 1,59,-1
 640 512 l 1,56,-1
EndSplineSet
EndChar

StartChar: ampersand
Encoding: 38 38 6
Width: 1024
Flags: W
LayerCount: 2
Fore
SplineSet
256 1792 m 1,0,-1
 512 1792 l 1,1,-1
 512 1664 l 1,2,-1
 256 1664 l 1,3,-1
 256 1792 l 1,0,-1
128 1664 m 1,4,-1
 256 1664 l 1,5,-1
 256 1280 l 1,6,-1
 128 1280 l 1,7,-1
 128 1664 l 1,4,-1
512 1664 m 1,8,-1
 640 1664 l 1,9,-1
 640 1280 l 1,10,-1
 512 1280 l 1,11,-1
 512 1664 l 1,8,-1
256 1280 m 1,12,-1
 512 1280 l 1,13,-1
 512 1152 l 1,14,-1
 256 1152 l 1,15,-1
 256 1280 l 1,12,-1
768 1280 m 1,16,-1
 896 1280 l 1,17,-1
 896 1024 l 1,18,-1
 768 1024 l 1,19,-1
 768 1280 l 1,16,-1
128 1152 m 1,20,-1
 256 1152 l 1,21,-1
 256 1024 l 1,22,-1
 128 1024 l 1,23,-1
 128 1152 l 1,20,-1
384 1152 m 1,24,-1
 512 1152 l 1,25,-1
 512 1024 l 1,26,-1
 384 1024 l 1,27,-1
 384 1152 l 1,24,-1
0 1024 m 1,28,-1
 128 1024 l 1,29,-1
 128 640 l 1,30,-1
 0 640 l 1,31,-1
 0 1024 l 1,28,-1
512 1024 m 1,32,-1
 768 1024 l 1,33,-1
 768 896 l 1,34,-1
 512 896 l 1,35,-1
 512 1024 l 1,32,-1
640 896 m 1,36,-1
 768 896 l 1,37,-1
 768 640 l 1,38,-1
 640 640 l 1,39,-1
 640 896 l 1,36,-1
512 768 m 1,40,-1
 640 768 l 1,41,-1
 640 640 l 1,42,-1
 512 640 l 1,43,-1
 512 768 l 1,40,-1
128 640 m 1,44,-1
 512 640 l 1,45,-1
 512 512 l 1,46,-1
 128 512 l 1,47,-1
 128 640 l 1,44,-1
768 640 m 1,48,-1
 896 640 l 1,49,-1
 896 512 l 1,50,-1
 768 512 l 1,51,-1
 768 640 l 1,48,-1
EndSplineSet
EndChar

StartChar: quotesingle
Encoding: 39 39 7
Width: 384
Flags: W
LayerCount: 2
Fore
SplineSet
128 1792 m 1,0,-1
 256 1792 l 1,1,-1
 256 1536 l 1,2,-1
 128 1536 l 1,3,-1
 128 1792 l 1,0,-1
0 1536 m 1,4,-1
 128 1536 l 1,5,-1
 128 1408 l 1,6,-1
 0 1408 l 1,7,-1
 0 1536 l 1,4,-1
EndSplineSet
EndChar

StartChar: parenleft
Encoding: 40 40 8
Width: 512
Flags: W
LayerCount: 2
Fore
SplineSet
256 1792 m 1,0,-1
 384 1792 l 1,1,-1
 384 1664 l 1,2,-1
 256 1664 l 1,3,-1
 256 1792 l 1,0,-1
128 1664 m 1,4,-1
 256 1664 l 1,5,-1
 256 1536 l 1,6,-1
 128 1536 l 1,7,-1
 128 1664 l 1,4,-1
0 1536 m 1,8,-1
 128 1536 l 1,9,-1
 128 640 l 1,10,-1
 0 640 l 1,11,-1
 0 1536 l 1,8,-1
128 640 m 1,12,-1
 256 640 l 1,13,-1
 256 512 l 1,14,-1
 128 512 l 1,15,-1
 128 640 l 1,12,-1
256 512 m 1,16,-1
 384 512 l 1,17,-1
 384 384 l 1,18,-1
 256 384 l 1,19,-1
 256 512 l 1,16,-1
EndSplineSet
EndChar

StartChar: parenright
Encoding: 41 41 9
Width: 512
Flags: W
LayerCount: 2
Fore
SplineSet
0 1792 m 1,0,-1
 128 1792 l 1,1,-1
 128 1664 l 1,2,-1
 0 1664 l 1,3,-1
 0 1792 l 1,0,-1
128 1664 m 1,4,-1
 256 1664 l 1,5,-1
 256 1536 l 1,6,-1
 128 1536 l 1,7,-1
 128 1664 l 1,4,-1
256 1536 m 1,8,-1
 384 1536 l 1,9,-1
 384 640 l 1,10,-1
 256 640 l 1,11,-1
 256 1536 l 1,8,-1
128 640 m 1,12,-1
 256 640 l 1,13,-1
 256 512 l 1,14,-1
 128 512 l 1,15,-1
 128 640 l 1,12,-1
0 512 m 1,16,-1
 128 512 l 1,17,-1
 128 384 l 1,18,-1
 0 384 l 1,19,-1
 0 512 l 1,16,-1
EndSplineSet
EndChar

StartChar: asterisk
Encoding: 42 42 10
Width: 896
Flags: W
LayerCount: 2
Fore
SplineSet
128 1408 m 1,0,-1
 256 1408 l 1,1,-1
 256 1280 l 1,2,-1
 128 1280 l 1,3,-1
 128 1408 l 1,0,-1
512 1408 m 1,4,-1
 640 1408 l 1,5,-1
 640 1280 l 1,6,-1
 512 1280 l 1,7,-1
 512 1408 l 1,4,-1
256 1280 m 1,8,-1
 384 1280 l 1,9,-1
 384 896 l 1,10,-1
 256 896 l 1,11,-1
 256 1280 l 1,8,-1
384 1280 m 1,12,-1
 512 1280 l 1,13,-1
 512 896 l 1,14,-1
 384 896 l 1,15,-1
 384 1280 l 1,12,-1
0 1152 m 1,16,-1
 256 1152 l 1,17,-1
 256 1024 l 1,18,-1
 0 1024 l 1,19,-1
 0 1152 l 1,16,-1
512 1152 m 1,20,-1
 768 1152 l 1,21,-1
 768 1024 l 1,22,-1
 512 1024 l 1,23,-1
 512 1152 l 1,20,-1
128 896 m 1,24,-1
 256 896 l 1,25,-1
 256 768 l 1,26,-1
 128 768 l 1,27,-1
 128 896 l 1,24,-1
512 896 m 1,28,-1
 640 896 l 1,29,-1
 640 768 l 1,30,-1
 512 768 l 1,31,-1
 512 896 l 1,28,-1
EndSplineSet
EndChar

StartChar: plus
Encoding: 43 43 11
Width: 768
Flags: W
LayerCount: 2
Fore
SplineSet
256 1408 m 1,0,-1
 384 1408 l 1,1,-1
 384 768 l 1,2,-1
 256 768 l 1,3,-1
 256 1408 l 1,0,-1
0 1152 m 1,4,-1
 256 1152 l 1,5,-1
 256 1024 l 1,6,-1
 0 1024 l 1,7,-1
 0 1152 l 1,4,-1
384 1152 m 1,8,-1
 640 1152 l 1,9,-1
 640 1024 l 1,10,-1
 384 1024 l 1,11,-1
 384 1152 l 1,8,-1
EndSplineSet
EndChar

StartChar: comma
Encoding: 44 44 12
Width: 384
Flags: W
LayerCount: 2
Fore
SplineSet
128 768 m 1,0,-1
 256 768 l 1,1,-1
 256 512 l 1,2,-1
 128 512 l 1,3,-1
 128 768 l 1,0,-1
0 512 m 1,4,-1
 128 512 l 1,5,-1
 128 384 l 1,6,-1
 0 384 l 1,7,-1
 0 512 l 1,4,-1
EndSplineSet
EndChar

StartChar: hyphen
Encoding: 45 45 13
Width: 640
Flags: W
LayerCount: 2
Fore
SplineSet
0 1152 m 1,0,-1
 512 1152 l 1,1,-1
 512 1024 l 1,2,-1
 0 1024 l 1,3,-1
 0 1152 l 1,0,-1
EndSplineSet
EndChar

StartChar: period
Encoding: 46 46 14
Width: 256
Flags: W
LayerCount: 2
Fore
SplineSet
0 768 m 1,0,-1
 128 768 l 1,1,-1
 128 512 l 1,2,-1
 0 512 l 1,3,-1
 0 768 l 1,0,-1
EndSplineSet
EndChar

StartChar: slash
Encoding: 47 47 15
Width: 768
Flags: W
LayerCount: 2
Fore
SplineSet
512 1792 m 1,0,-1
 640 1792 l 1,1,-1
 640 1536 l 1,2,-1
 512 1536 l 1,3,-1
 512 1792 l 1,0,-1
384 1536 m 1,4,-1
 512 1536 l 1,5,-1
 512 1280 l 1,6,-1
 384 1280 l 1,7,-1
 384 1536 l 1,4,-1
256 1280 m 1,8,-1
 384 1280 l 1,9,-1
 384 1024 l 1,10,-1
 256 1024 l 1,11,-1
 256 1280 l 1,8,-1
128 1024 m 1,12,-1
 256 1024 l 1,13,-1
 256 768 l 1,14,-1
 128 768 l 1,15,-1
 128 1024 l 1,12,-1
0 768 m 1,16,-1
 128 768 l 1,17,-1
 128 512 l 1,18,-1
 0 512 l 1,19,-1
 0 768 l 1,16,-1
EndSplineSet
EndChar

StartChar: zero
Encoding: 48 48 16
Width: 896
Flags: W
LayerCount: 2
Fore
SplineSet
128 1792 m 1,0,-1
 640 1792 l 1,1,-1
 640 1664 l 1,2,-1
 128 1664 l 1,3,-1
 128 1792 l 1,0,-1
0 1664 m 1,4,-1
 128 1664 l 1,5,-1
 128 640 l 1,6,-1
 0 640 l 1,7,-1
 0 1664 l 1,4,-1
640 1664 m 1,8,-1
 768 1664 l 1,9,-1
 768 640 l 1,10,-1
 640 640 l 1,11,-1
 640 1664 l 1,8,-1
512 1536 m 1,12,-1
 640 1536 l 1,13,-1
 640 1408 l 1,14,-1
 512 1408 l 1,15,-1
 512 1536 l 1,12,-1
384 1408 m 1,16,-1
 512 1408 l 1,17,-1
 512 1152 l 1,18,-1
 384 1152 l 1,19,-1
 384 1408 l 1,16,-1
256 1152 m 1,20,-1
 384 1152 l 1,21,-1
 384 896 l 1,22,-1
 256 896 l 1,23,-1
 256 1152 l 1,20,-1
128 896 m 1,24,-1
 256 896 l 1,25,-1
 256 768 l 1,26,-1
 128 768 l 1,27,-1
 128 896 l 1,24,-1
128 640 m 1,28,-1
 640 640 l 1,29,-1
 640 512 l 1,30,-1
 128 512 l 1,31,-1
 128 640 l 1,28,-1
EndSplineSet
EndChar

StartChar: one
Encoding: 49 49 17
Width: 640
Flags: W
LayerCount: 2
Fore
SplineSet
384 1792 m 1,0,-1
 512 1792 l 1,1,-1
 512 512 l 1,2,-1
 384 512 l 1,3,-1
 384 1792 l 1,0,-1
256 1664 m 1,4,-1
 384 1664 l 1,5,-1
 384 1536 l 1,6,-1
 256 1536 l 1,7,-1
 256 1664 l 1,4,-1
128 1536 m 1,8,-1
 256 1536 l 1,9,-1
 256 1408 l 1,10,-1
 128 1408 l 1,11,-1
 128 1536 l 1,8,-1
0 1408 m 1,12,-1
 128 1408 l 1,13,-1
 128 1280 l 1,14,-1
 0 1280 l 1,15,-1
 0 1408 l 1,12,-1
EndSplineSet
EndChar

StartChar: two
Encoding: 50 50 18
Width: 896
Flags: W
LayerCount: 2
Fore
SplineSet
128 1792 m 1,0,-1
 640 1792 l 1,1,-1
 640 1664 l 1,2,-1
 128 1664 l 1,3,-1
 128 1792 l 1,0,-1
0 1664 m 1,4,-1
 128 1664 l 1,5,-1
 128 1536 l 1,6,-1
 0 1536 l 1,7,-1
 0 1664 l 1,4,-1
640 1664 m 1,8,-1
 768 1664 l 1,9,-1
 768 1408 l 1,10,-1
 640 1408 l 1,11,-1
 640 1664 l 1,8,-1
512 1408 m 1,12,-1
 640 1408 l 1,13,-1
 640 1280 l 1,14,-1
 512 1280 l 1,15,-1
 512 1408 l 1,12,-1
384 1280 m 1,16,-1
 512 1280 l 1,17,-1
 512 1152 l 1,18,-1
 384 1152 l 1,19,-1
 384 1280 l 1,16,-1
256 1152 m 1,20,-1
 384 1152 l 1,21,-1
 384 1024 l 1,22,-1
 256 1024 l 1,23,-1
 256 1152 l 1,20,-1
128 1024 m 1,24,-1
 256 1024 l 1,25,-1
 256 896 l 1,26,-1
 128 896 l 1,27,-1
 128 1024 l 1,24,-1
0 896 m 1,28,-1
 128 896 l 1,29,-1
 128 512 l 1,30,-1
 0 512 l 1,31,-1
 0 896 l 1,28,-1
128 640 m 1,32,-1
 768 640 l 1,33,-1
 768 512 l 1,34,-1
 128 512 l 1,35,-1
 128 640 l 1,32,-1
EndSplineSet
EndChar

StartChar: three
Encoding: 51 51 19
Width: 896
Flags: W
LayerCount: 2
Fore
SplineSet
128 1792 m 1,0,-1
 640 1792 l 1,1,-1
 640 1664 l 1,2,-1
 128 1664 l 1,3,-1
 128 1792 l 1,0,-1
0 1664 m 1,4,-1
 128 1664 l 1,5,-1
 128 1536 l 1,6,-1
 0 1536 l 1,7,-1
 0 1664 l 1,4,-1
640 1664 m 1,8,-1
 768 1664 l 1,9,-1
 768 1280 l 1,10,-1
 640 1280 l 1,11,-1
 640 1664 l 1,8,-1
256 1280 m 1,12,-1
 640 1280 l 1,13,-1
 640 1152 l 1,14,-1
 256 1152 l 1,15,-1
 256 1280 l 1,12,-1
640 1152 m 1,16,-1
 768 1152 l 1,17,-1
 768 640 l 1,18,-1
 640 640 l 1,19,-1
 640 1152 l 1,16,-1
0 768 m 1,20,-1
 128 768 l 1,21,-1
 128 640 l 1,22,-1
 0 640 l 1,23,-1
 0 768 l 1,20,-1
128 640 m 1,24,-1
 640 640 l 1,25,-1
 640 512 l 1,26,-1
 128 512 l 1,27,-1
 128 640 l 1,24,-1
EndSplineSet
EndChar

StartChar: four
Encoding: 52 52 20
Width: 896
Flags: W
LayerCount: 2
Fore
SplineSet
512 1792 m 1,0,-1
 640 1792 l 1,1,-1
 640 512 l 1,2,-1
 512 512 l 1,3,-1
 512 1792 l 1,0,-1
384 1664 m 1,4,-1
 512 1664 l 1,5,-1
 512 1536 l 1,6,-1
 384 1536 l 1,7,-1
 384 1664 l 1,4,-1
256 1536 m 1,8,-1
 384 1536 l 1,9,-1
 384 1408 l 1,10,-1
 256 1408 l 1,11,-1
 256 1536 l 1,8,-1
128 1408 m 1,12,-1
 256 1408 l 1,13,-1
 256 1280 l 1,14,-1
 128 1280 l 1,15,-1
 128 1408 l 1,12,-1
0 1280 m 1,16,-1
 128 1280 l 1,17,-1
 128 1024 l 1,18,-1
 0 1024 l 1,19,-1
 0 1280 l 1,16,-1
128 1152 m 1,20,-1
 512 1152 l 1,21,-1
 512 1024 l 1,22,-1
 128 1024 l 1,23,-1
 128 1152 l 1,20,-1
640 1152 m 1,24,-1
 768 1152 l 1,25,-1
 768 1024 l 1,26,-1
 640 1024 l 1,27,-1
 640 1152 l 1,24,-1
EndSplineSet
EndChar

StartChar: five
Encoding: 53 53 21
Width: 896
Flags: W
LayerCount: 2
Fore
SplineSet
0 1792 m 1,0,-1
 768 1792 l 1,1,-1
 768 1664 l 1,2,-1
 0 1664 l 1,3,-1
 0 1792 l 1,0,-1
0 1664 m 1,4,-1
 128 1664 l 1,5,-1
 128 1152 l 1,6,-1
 0 1152 l 1,7,-1
 0 1664 l 1,4,-1
128 1280 m 1,8,-1
 640 1280 l 1,9,-1
 640 1152 l 1,10,-1
 128 1152 l 1,11,-1
 128 1280 l 1,8,-1
640 1152 m 1,12,-1
 768 1152 l 1,13,-1
 768 640 l 1,14,-1
 640 640 l 1,15,-1
 640 1152 l 1,12,-1
0 768 m 1,16,-1
 128 768 l 1,17,-1
 128 640 l 1,18,-1
 0 640 l 1,19,-1
 0 768 l 1,16,-1
128 640 m 1,20,-1
 640 640 l 1,21,-1
 640 512 l 1,22,-1
 128 512 l 1,23,-1
 128 640 l 1,20,-1
EndSplineSet
EndChar

StartChar: six
Encoding: 54 54 22
Width: 896
Flags: W
LayerCount: 2
Fore
SplineSet
256 1792 m 1,0,-1
 640 1792 l 1,1,-1
 640 1664 l 1,2,-1
 256 1664 l 1,3,-1
 256 1792 l 1,0,-1
128 1664 m 1,4,-1
 256 1664 l 1,5,-1
 256 1536 l 1,6,-1
 128 1536 l 1,7,-1
 128 1664 l 1,4,-1
0 1536 m 1,8,-1
 128 1536 l 1,9,-1
 128 640 l 1,10,-1
 0 640 l 1,11,-1
 0 1536 l 1,8,-1
128 1280 m 1,12,-1
 640 1280 l 1,13,-1
 640 1152 l 1,14,-1
 128 1152 l 1,15,-1
 128 1280 l 1,12,-1
640 1152 m 1,16,-1
 768 1152 l 1,17,-1
 768 640 l 1,18,-1
 640 640 l 1,19,-1
 640 1152 l 1,16,-1
128 640 m 1,20,-1
 640 640 l 1,21,-1
 640 512 l 1,22,-1
 128 512 l 1,23,-1
 128 640 l 1,20,-1
EndSplineSet
EndChar

StartChar: seven
Encoding: 55 55 23
Width: 896
Flags: W
LayerCount: 2
Fore
SplineSet
0 1792 m 1,0,-1
 768 1792 l 1,1,-1
 768 1664 l 1,2,-1
 0 1664 l 1,3,-1
 0 1792 l 1,0,-1
640 1664 m 1,4,-1
 768 1664 l 1,5,-1
 768 1280 l 1,6,-1
 640 1280 l 1,7,-1
 640 1664 l 1,4,-1
512 1280 m 1,8,-1
 640 1280 l 1,9,-1
 640 1152 l 1,10,-1
 512 1152 l 1,11,-1
 512 1280 l 1,8,-1
384 1152 m 1,12,-1
 512 1152 l 1,13,-1
 512 1024 l 1,14,-1
 384 1024 l 1,15,-1
 384 1152 l 1,12,-1
256 1024 m 1,16,-1
 384 1024 l 1,17,-1
 384 512 l 1,18,-1
 256 512 l 1,19,-1
 256 1024 l 1,16,-1
EndSplineSet
EndChar

StartChar: eight
Encoding: 56 56 24
Width: 896
Flags: W
LayerCount: 2
Fore
SplineSet
128 1792 m 1,0,-1
 640 1792 l 1,1,-1
 640 1664 l 1,2,-1
 128 1664 l 1,3,-1
 128 1792 l 1,0,-1
0 1664 m 1,4,-1
 128 1664 l 1,5,-1
 128 1280 l 1,6,-1
 0 1280 l 1,7,-1
 0 1664 l 1,4,-1
640 1664 m 1,8,-1
 768 1664 l 1,9,-1
 768 1280 l 1,10,-1
 640 1280 l 1,11,-1
 640 1664 l 1,8,-1
128 1280 m 1,12,-1
 640 1280 l 1,13,-1
 640 1152 l 1,14,-1
 128 1152 l 1,15,-1
 128 1280 l 1,12,-1
0 1152 m 1,16,-1
 128 1152 l 1,17,-1
 128 640 l 1,18,-1
 0 640 l 1,19,-1
 0 1152 l 1,16,-1
640 1152 m 1,20,-1
 768 1152 l 1,21,-1
 768 640 l 1,22,-1
 640 640 l 1,23,-1
 640 1152 l 1,20,-1
128 640 m 1,24,-1
 640 640 l 1,25,-1
 640 512 l 1,26,-1
 128 512 l 1,27,-1
 128 640 l 1,24,-1
EndSplineSet
EndChar

StartChar: nine
Encoding: 57 57 25
Width: 896
Flags: W
LayerCount: 2
Fore
SplineSet
128 1792 m 1,0,-1
 640 1792 l 1,1,-1
 640 1664 l 1,2,-1
 128 1664 l 1,3,-1
 128 1792 l 1,0,-1
0 1664 m 1,4,-1
 128 1664 l 1,5,-1
 128 1280 l 1,6,-1
 0 1280 l 1,7,-1
 0 1664 l 1,4,-1
640 1664 m 1,8,-1
 768 1664 l 1,9,-1
 768 640 l 1,10,-1
 640 640 l 1,11,-1
 640 1664 l 1,8,-1
128 1280 m 1,12,-1
 640 1280 l 1,13,-1
 640 1152 l 1,14,-1
 128 1152 l 1,15,-1
 128 1280 l 1,12,-1
0 768 m 1,16,-1
 128 768 l 1,17,-1
 128 640 l 1,18,-1
 0 640 l 1,19,-1
 0 768 l 1,16,-1
128 640 m 1,20,-1
 640 640 l 1,21,-1
 640 512 l 1,22,-1
 128 512 l 1,23,-1
 128 640 l 1,20,-1
EndSplineSet
EndChar

StartChar: colon
Encoding: 58 58 26
Width: 256
Flags: W
LayerCount: 2
Fore
SplineSet
0 1408 m 1,0,-1
 128 1408 l 1,1,-1
 128 1152 l 1,2,-1
 0 1152 l 1,3,-1
 0 1408 l 1,0,-1
0 768 m 1,4,-1
 128 768 l 1,5,-1
 128 512 l 1,6,-1
 0 512 l 1,7,-1
 0 768 l 1,4,-1
EndSplineSet
EndChar

StartChar: semicolon
Encoding: 59 59 27
Width: 384
Flags: W
LayerCount: 2
Fore
SplineSet
128 1408 m 1,0,-1
 256 1408 l 1,1,-1
 256 1152 l 1,2,-1
 128 1152 l 1,3,-1
 128 1408 l 1,0,-1
128 768 m 1,4,-1
 256 768 l 1,5,-1
 256 512 l 1,6,-1
 128 512 l 1,7,-1
 128 768 l 1,4,-1
0 512 m 1,8,-1
 128 512 l 1,9,-1
 128 384 l 1,10,-1
 0 384 l 1,11,-1
 0 512 l 1,8,-1
EndSplineSet
EndChar

StartChar: less
Encoding: 60 60 28
Width: 768
Flags: W
LayerCount: 2
Fore
SplineSet
512 1664 m 1,0,-1
 640 1664 l 1,1,-1
 640 1536 l 1,2,-1
 512 1536 l 1,3,-1
 512 1664 l 1,0,-1
384 1536 m 1,4,-1
 512 1536 l 1,5,-1
 512 1408 l 1,6,-1
 384 1408 l 1,7,-1
 384 1536 l 1,4,-1
256 1408 m 1,8,-1
 384 1408 l 1,9,-1
 384 1280 l 1,10,-1
 256 1280 l 1,11,-1
 256 1408 l 1,8,-1
128 1280 m 1,12,-1
 256 1280 l 1,13,-1
 256 1152 l 1,14,-1
 128 1152 l 1,15,-1
 128 1280 l 1,12,-1
0 1152 m 1,16,-1
 128 1152 l 1,17,-1
 128 1024 l 1,18,-1
 0 1024 l 1,19,-1
 0 1152 l 1,16,-1
128 1024 m 1,20,-1
 256 1024 l 1,21,-1
 256 896 l 1,22,-1
 128 896 l 1,23,-1
 128 1024 l 1,20,-1
256 896 m 1,24,-1
 384 896 l 1,25,-1
 384 768 l 1,26,-1
 256 768 l 1,27,-1
 256 896 l 1,24,-1
384 768 m 1,28,-1
 512 768 l 1,29,-1
 512 640 l 1,30,-1
 384 640 l 1,31,-1
 384 768 l 1,28,-1
512 640 m 1,32,-1
 640 640 l 1,33,-1
 640 512 l 1,34,-1
 512 512 l 1,35,-1
 512 640 l 1,32,-1
EndSplineSet
EndChar

StartChar: equal
Encoding: 61 61 29
Width: 896
Flags: W
LayerCount: 2
Fore
SplineSet
0 1280 m 1,0,-1
 768 1280 l 1,1,-1
 768 1152 l 1,2,-1
 0 1152 l 1,3,-1
 0 1280 l 1,0,-1
0 1024 m 1,4,-1
 768 1024 l 1,5,-1
 768 896 l 1,6,-1
 0 896 l 1,7,-1
 0 1024 l 1,4,-1
EndSplineSet
EndChar

StartChar: greater
Encoding: 62 62 30
Width: 768
Flags: W
LayerCount: 2
Fore
SplineSet
0 1664 m 1,0,-1
 128 1664 l 1,1,-1
 128 1536 l 1,2,-1
 0 1536 l 1,3,-1
 0 1664 l 1,0,-1
128 1536 m 1,4,-1
 256 1536 l 1,5,-1
 256 1408 l 1,6,-1
 128 1408 l 1,7,-1
 128 1536 l 1,4,-1
256 1408 m 1,8,-1
 384 1408 l 1,9,-1
 384 1280 l 1,10,-1
 256 1280 l 1,11,-1
 256 1408 l 1,8,-1
384 1280 m 1,12,-1
 512 1280 l 1,13,-1
 512 1152 l 1,14,-1
 384 1152 l 1,15,-1
 384 1280 l 1,12,-1
512 1152 m 1,16,-1
 640 1152 l 1,17,-1
 640 1024 l 1,18,-1
 512 1024 l 1,19,-1
 512 1152 l 1,16,-1
384 1024 m 1,20,-1
 512 1024 l 1,21,-1
 512 896 l 1,22,-1
 384 896 l 1,23,-1
 384 1024 l 1,20,-1
256 896 m 1,24,-1
 384 896 l 1,25,-1
 384 768 l 1,26,-1
 256 768 l 1,27,-1
 256 896 l 1,24,-1
128 768 m 1,28,-1
 256 768 l 1,29,-1
 256 640 l 1,30,-1
 128 640 l 1,31,-1
 128 768 l 1,28,-1
0 640 m 1,32,-1
 128 640 l 1,33,-1
 128 512 l 1,34,-1
 0 512 l 1,35,-1
 0 640 l 1,32,-1
EndSplineSet
EndChar

StartChar: question
Encoding: 63 63 31
Width: 896
Flags: W
LayerCount: 2
Fore
SplineSet
128 1792 m 1,0,-1
 640 1792 l 1,1,-1
 640 1664 l 1,2,-1
 128 1664 l 1,3,-1
 128 1792 l 1,0,-1
0 1664 m 1,4,-1
 128 1664 l 1,5,-1
 128 1408 l 1,6,-1
 0 1408 l 1,7,-1
 0 1664 l 1,4,-1
640 1664 m 1,8,-1
 768 1664 l 1,9,-1
 768 1280 l 1,10,-1
 640 1280 l 1,11,-1
 640 1664 l 1,8,-1
512 1280 m 1,12,-1
 640 1280 l 1,13,-1
 640 1152 l 1,14,-1
 512 1152 l 1,15,-1
 512 1280 l 1,12,-1
384 1152 m 1,16,-1
 512 1152 l 1,17,-1
 512 1024 l 1,18,-1
 384 1024 l 1,19,-1
 384 1152 l 1,16,-1
256 1024 m 1,20,-1
 384 1024 l 1,21,-1
 384 896 l 1,22,-1
 256 896 l 1,23,-1
 256 1024 l 1,20,-1
256 768 m 1,24,-1
 384 768 l 1,25,-1
 384 512 l 1,26,-1
 256 512 l 1,27,-1
 256 768 l 1,24,-1
EndSplineSet
EndChar

StartChar: at
Encoding: 64 64 32
Width: 1152
Flags: W
LayerCount: 2
Fore
SplineSet
256 1664 m 1,0,-1
 768 1664 l 1,1,-1
 768 1536 l 1,2,-1
 256 1536 l 1,3,-1
 256 1664 l 1,0,-1
128 1536 m 1,4,-1
 256 1536 l 1,5,-1
 256 1408 l 1,6,-1
 128 1408 l 1,7,-1
 128 1536 l 1,4,-1
768 1536 m 1,8,-1
 896 1536 l 1,9,-1
 896 1408 l 1,10,-1
 768 1408 l 1,11,-1
 768 1536 l 1,8,-1
0 1408 m 1,12,-1
 128 1408 l 1,13,-1
 128 768 l 1,14,-1
 0 768 l 1,15,-1
 0 1408 l 1,12,-1
384 1408 m 1,16,-1
 640 1408 l 1,17,-1
 640 1280 l 1,18,-1
 384 1280 l 1,19,-1
 384 1408 l 1,16,-1
896 1408 m 1,20,-1
 1024 1408 l 1,21,-1
 1024 896 l 1,22,-1
 896 896 l 1,23,-1
 896 1408 l 1,20,-1
640 1280 m 1,24,-1
 768 1280 l 1,25,-1
 768 768 l 1,26,-1
 640 768 l 1,27,-1
 640 1280 l 1,24,-1
384 1152 m 1,28,-1
 640 1152 l 1,29,-1
 640 1024 l 1,30,-1
 384 1024 l 1,31,-1
 384 1152 l 1,28,-1
256 1024 m 1,32,-1
 384 1024 l 1,33,-1
 384 896 l 1,34,-1
 256 896 l 1,35,-1
 256 1024 l 1,32,-1
384 896 m 1,36,-1
 640 896 l 1,37,-1
 640 768 l 1,38,-1
 384 768 l 1,39,-1
 384 896 l 1,36,-1
768 896 m 1,40,-1
 896 896 l 1,41,-1
 896 768 l 1,42,-1
 768 768 l 1,43,-1
 768 896 l 1,40,-1
128 768 m 1,44,-1
 256 768 l 1,45,-1
 256 640 l 1,46,-1
 128 640 l 1,47,-1
 128 768 l 1,44,-1
256 640 m 1,48,-1
 896 640 l 1,49,-1
 896 512 l 1,50,-1
 256 512 l 1,51,-1
 256 640 l 1,48,-1
EndSplineSet
EndChar

StartChar: A
Encoding: 65 65 33
Width: 896
Flags: W
LayerCount: 2
Fore
SplineSet
128 1792 m 1,0,-1
 640 1792 l 1,1,-1
 640 1664 l 1,2,-1
 128 1664 l 1,3,-1
 128 1792 l 1,0,-1
0 1664 m 1,4,-1
 128 1664 l 1,5,-1
 128 512 l 1,6,-1
 0 512 l 1,7,-1
 0 1664 l 1,4,-1
640 1664 m 1,8,-1
 768 1664 l 1,9,-1
 768 512 l 1,10,-1
 640 512 l 1,11,-1
 640 1664 l 1,8,-1
128 1152 m 1,12,-1
 640 1152 l 1,13,-1
 640 1024 l 1,14,-1
 128 1024 l 1,15,-1
 128 1152 l 1,12,-1
EndSplineSet
EndChar

StartChar: B
Encoding: 66 66 34
Width: 896
Flags: W
LayerCount: 2
Fore
SplineSet
0 1792 m 1,0,-1
 128 1792 l 1,1,-1
 128 512 l 1,2,-1
 0 512 l 1,3,-1
 0 1792 l 1,0,-1
128 1792 m 1,4,-1
 640 1792 l 1,5,-1
 640 1664 l 1,6,-1
 128 1664 l 1,7,-1
 128 1792 l 1,4,-1
640 1664 m 1,8,-1
 768 1664 l 1,9,-1
 768 1280 l 1,10,-1
 640 1280 l 1,11,-1
 640 1664 l 1,8,-1
128 1280 m 1,12,-1
 640 1280 l 1,13,-1
 640 1152 l 1,14,-1
 128 1152 l 1,15,-1
 128 1280 l 1,12,-1
640 1152 m 1,16,-1
 768 1152 l 1,17,-1
 768 640 l 1,18,-1
 640 640 l 1,19,-1
 640 1152 l 1,16,-1
128 640 m 1,20,-1
 640 640 l 1,21,-1
 640 512 l 1,22,-1
 128 512 l 1,23,-1
 128 640 l 1,20,-1
EndSplineSet
EndChar

StartChar: C
Encoding: 67 67 35
Width: 896
Flags: W
LayerCount: 2
Fore
SplineSet
128 1792 m 1,0,-1
 640 1792 l 1,1,-1
 640 1664 l 1,2,-1
 128 1664 l 1,3,-1
 128 1792 l 1,0,-1
0 1664 m 1,4,-1
 128 1664 l 1,5,-1
 128 640 l 1,6,-1
 0 640 l 1,7,-1
 0 1664 l 1,4,-1
640 1664 m 1,8,-1
 768 1664 l 1,9,-1
 768 1536 l 1,10,-1
 640 1536 l 1,11,-1
 640 1664 l 1,8,-1
640 768 m 1,12,-1
 768 768 l 1,13,-1
 768 640 l 1,14,-1
 640 640 l 1,15,-1
 640 768 l 1,12,-1
128 640 m 1,16,-1
 640 640 l 1,17,-1
 640 512 l 1,18,-1
 128 512 l 1,19,-1
 128 640 l 1,16,-1
EndSplineSet
EndChar

StartChar: D
Encoding: 68 68 36
Width: 896
Flags: W
LayerCount: 2
Fore
SplineSet
0 1792 m 1,0,-1
 128 1792 l 1,1,-1
 128 512 l 1,2,-1
 0 512 l 1,3,-1
 0 1792 l 1,0,-1
128 1792 m 1,4,-1
 512 1792 l 1,5,-1
 512 1664 l 1,6,-1
 128 1664 l 1,7,-1
 128 1792 l 1,4,-1
512 1664 m 1,8,-1
 640 1664 l 1,9,-1
 640 1536 l 1,10,-1
 512 1536 l 1,11,-1
 512 1664 l 1,8,-1
640 1536 m 1,12,-1
 768 1536 l 1,13,-1
 768 768 l 1,14,-1
 640 768 l 1,15,-1
 640 1536 l 1,12,-1
512 768 m 1,16,-1
 640 768 l 1,17,-1
 640 640 l 1,18,-1
 512 640 l 1,19,-1
 512 768 l 1,16,-1
128 640 m 1,20,-1
 512 640 l 1,21,-1
 512 512 l 1,22,-1
 128 512 l 1,23,-1
 128 640 l 1,20,-1
EndSplineSet
EndChar

StartChar: E
Encoding: 69 69 37
Width: 896
Flags: W
LayerCount: 2
Fore
SplineSet
0 1792 m 1,0,-1
 128 1792 l 1,1,-1
 128 512 l 1,2,-1
 0 512 l 1,3,-1
 0 1792 l 1,0,-1
128 1792 m 1,4,-1
 768 1792 l 1,5,-1
 768 1664 l 1,6,-1
 128 1664 l 1,7,-1
 128 1792 l 1,4,-1
128 1280 m 1,8,-1
 512 1280 l 1,9,-1
 512 1152 l 1,10,-1
 128 1152 l 1,11,-1
 128 1280 l 1,8,-1
128 640 m 1,12,-1
 768 640 l 1,13,-1
 768 512 l 1,14,-1
 128 512 l 1,15,-1
 128 640 l 1,12,-1
EndSplineSet
EndChar

StartChar: F
Encoding: 70 70 38
Width: 896
Flags: W
LayerCount: 2
Fore
SplineSet
0 1792 m 1,0,-1
 128 1792 l 1,1,-1
 128 512 l 1,2,-1
 0 512 l 1,3,-1
 0 1792 l 1,0,-1
128 1792 m 1,4,-1
 768 1792 l 1,5,-1
 768 1664 l 1,6,-1
 128 1664 l 1,7,-1
 128 1792 l 1,4,-1
128 1280 m 1,8,-1
 512 1280 l 1,9,-1
 512 1152 l 1,10,-1
 128 1152 l 1,11,-1
 128 1280 l 1,8,-1
EndSplineSet
EndChar

StartChar: G
Encoding: 71 71 39
Width: 896
Flags: W
LayerCount: 2
Fore
SplineSet
128 1792 m 1,0,-1
 640 1792 l 1,1,-1
 640 1664 l 1,2,-1
 128 1664 l 1,3,-1
 128 1792 l 1,0,-1
0 1664 m 1,4,-1
 128 1664 l 1,5,-1
 128 640 l 1,6,-1
 0 640 l 1,7,-1
 0 1664 l 1,4,-1
640 1664 m 1,8,-1
 768 1664 l 1,9,-1
 768 1536 l 1,10,-1
 640 1536 l 1,11,-1
 640 1664 l 1,8,-1
384 1152 m 1,12,-1
 768 1152 l 1,13,-1
 768 1024 l 1,14,-1
 384 1024 l 1,15,-1
 384 1152 l 1,12,-1
640 1024 m 1,16,-1
 768 1024 l 1,17,-1
 768 640 l 1,18,-1
 640 640 l 1,19,-1
 640 1024 l 1,16,-1
128 640 m 1,20,-1
 640 640 l 1,21,-1
 640 512 l 1,22,-1
 128 512 l 1,23,-1
 128 640 l 1,20,-1
EndSplineSet
EndChar

StartChar: H
Encoding: 72 72 40
Width: 896
Flags: W
LayerCount: 2
Fore
SplineSet
0 1792 m 1,0,-1
 128 1792 l 1,1,-1
 128 512 l 1,2,-1
 0 512 l 1,3,-1
 0 1792 l 1,0,-1
640 1792 m 1,4,-1
 768 1792 l 1,5,-1
 768 512 l 1,6,-1
 640 512 l 1,7,-1
 640 1792 l 1,4,-1
128 1280 m 1,8,-1
 640 1280 l 1,9,-1
 640 1152 l 1,10,-1
 128 1152 l 1,11,-1
 128 1280 l 1,8,-1
EndSplineSet
EndChar

StartChar: I
Encoding: 73 73 41
Width: 256
Flags: W
LayerCount: 2
Fore
SplineSet
0 1792 m 1,0,-1
 128 1792 l 1,1,-1
 128 512 l 1,2,-1
 0 512 l 1,3,-1
 0 1792 l 1,0,-1
EndSplineSet
EndChar

StartChar: J
Encoding: 74 74 42
Width: 896
Flags: W
LayerCount: 2
Fore
SplineSet
640 1792 m 1,0,-1
 768 1792 l 1,1,-1
 768 640 l 1,2,-1
 640 640 l 1,3,-1
 640 1792 l 1,0,-1
0 896 m 1,4,-1
 128 896 l 1,5,-1
 128 640 l 1,6,-1
 0 640 l 1,7,-1
 0 896 l 1,4,-1
128 640 m 1,8,-1
 640 640 l 1,9,-1
 640 512 l 1,10,-1
 128 512 l 1,11,-1
 128 640 l 1,8,-1
EndSplineSet
EndChar

StartChar: K
Encoding: 75 75 43
Width: 896
Flags: W
LayerCount: 2
Fore
SplineSet
0 1792 m 1,0,-1
 128 1792 l 1,1,-1
 128 512 l 1,2,-1
 0 512 l 1,3,-1
 0 1792 l 1,0,-1
640 1792 m 1,4,-1
 768 1792 l 1,5,-1
 768 1536 l 1,6,-1
 640 1536 l 1,7,-1
 640 1792 l 1,4,-1
512 1536 m 1,8,-1
 640 1536 l 1,9,-1
 640 1408 l 1,10,-1
 512 1408 l 1,11,-1
 512 1536 l 1,8,-1
384 1408 m 1,12,-1
 512 1408 l 1,13,-1
 512 1280 l 1,14,-1
 384 1280 l 1,15,-1
 384 1408 l 1,12,-1
128 1280 m 1,16,-1
 384 1280 l 1,17,-1
 384 1152 l 1,18,-1
 128 1152 l 1,19,-1
 128 1280 l 1,16,-1
384 1152 m 1,20,-1
 512 1152 l 1,21,-1
 512 1024 l 1,22,-1
 384 1024 l 1,23,-1
 384 1152 l 1,20,-1
512 1024 m 1,24,-1
 640 1024 l 1,25,-1
 640 896 l 1,26,-1
 512 896 l 1,27,-1
 512 1024 l 1,24,-1
640 896 m 1,28,-1
 768 896 l 1,29,-1
 768 512 l 1,30,-1
 640 512 l 1,31,-1
 640 896 l 1,28,-1
EndSplineSet
EndChar

StartChar: L
Encoding: 76 76 44
Width: 896
Flags: W
LayerCount: 2
Fore
SplineSet
0 1792 m 1,0,-1
 128 1792 l 1,1,-1
 128 512 l 1,2,-1
 0 512 l 1,3,-1
 0 1792 l 1,0,-1
128 640 m 1,4,-1
 768 640 l 1,5,-1
 768 512 l 1,6,-1
 128 512 l 1,7,-1
 128 640 l 1,4,-1
EndSplineSet
EndChar

StartChar: M
Encoding: 77 77 45
Width: 1024
Flags: W
LayerCount: 2
Fore
SplineSet
0 1792 m 1,0,-1
 128 1792 l 1,1,-1
 128 512 l 1,2,-1
 0 512 l 1,3,-1
 0 1792 l 1,0,-1
768 1792 m 1,4,-1
 896 1792 l 1,5,-1
 896 512 l 1,6,-1
 768 512 l 1,7,-1
 768 1792 l 1,4,-1
128 1664 m 1,8,-1
 256 1664 l 1,9,-1
 256 1536 l 1,10,-1
 128 1536 l 1,11,-1
 128 1664 l 1,8,-1
640 1664 m 1,12,-1
 768 1664 l 1,13,-1
 768 1536 l 1,14,-1
 640 1536 l 1,15,-1
 640 1664 l 1,12,-1
256 1536 m 1,16,-1
 384 1536 l 1,17,-1
 384 1408 l 1,18,-1
 256 1408 l 1,19,-1
 256 1536 l 1,16,-1
512 1536 m 1,20,-1
 640 1536 l 1,21,-1
 640 1408 l 1,22,-1
 512 1408 l 1,23,-1
 512 1536 l 1,20,-1
384 1408 m 1,24,-1
 512 1408 l 1,25,-1
 512 1152 l 1,26,-1
 384 1152 l 1,27,-1
 384 1408 l 1,24,-1
EndSplineSet
EndChar

StartChar: N
Encoding: 78 78 46
Width: 896
Flags: W
LayerCount: 2
Fore
SplineSet
0 1792 m 1,0,-1
 128 1792 l 1,1,-1
 128 512 l 1,2,-1
 0 512 l 1,3,-1
 0 1792 l 1,0,-1
640 1792 m 1,4,-1
 768 1792 l 1,5,-1
 768 512 l 1,6,-1
 640 512 l 1,7,-1
 640 1792 l 1,4,-1
128 1664 m 1,8,-1
 256 1664 l 1,9,-1
 256 1536 l 1,10,-1
 128 1536 l 1,11,-1
 128 1664 l 1,8,-1
256 1536 m 1,12,-1
 384 1536 l 1,13,-1
 384 1408 l 1,14,-1
 256 1408 l 1,15,-1
 256 1536 l 1,12,-1
384 1408 m 1,16,-1
 512 1408 l 1,17,-1
 512 1280 l 1,18,-1
 384 1280 l 1,19,-1
 384 1408 l 1,16,-1
512 1280 m 1,20,-1
 640 1280 l 1,21,-1
 640 1152 l 1,22,-1
 512 1152 l 1,23,-1
 512 1280 l 1,20,-1
EndSplineSet
EndChar

StartChar: O
Encoding: 79 79 47
Width: 896
Flags: W
LayerCount: 2
Fore
SplineSet
128 1792 m 1,0,-1
 640 1792 l 1,1,-1
 640 1664 l 1,2,-1
 128 1664 l 1,3,-1
 128 1792 l 1,0,-1
0 1664 m 1,4,-1
 128 1664 l 1,5,-1
 128 640 l 1,6,-1
 0 640 l 1,7,-1
 0 1664 l 1,4,-1
640 1664 m 1,8,-1
 768 1664 l 1,9,-1
 768 640 l 1,10,-1
 640 640 l 1,11,-1
 640 1664 l 1,8,-1
128 640 m 1,12,-1
 640 640 l 1,13,-1
 640 512 l 1,14,-1
 128 512 l 1,15,-1
 128 640 l 1,12,-1
EndSplineSet
EndChar

StartChar: P
Encoding: 80 80 48
Width: 896
Flags: W
LayerCount: 2
Fore
SplineSet
0 1792 m 1,0,-1
 128 1792 l 1,1,-1
 128 512 l 1,2,-1
 0 512 l 1,3,-1
 0 1792 l 1,0,-1
128 1792 m 1,4,-1
 640 1792 l 1,5,-1
 640 1664 l 1,6,-1
 128 1664 l 1,7,-1
 128 1792 l 1,4,-1
640 1664 m 1,8,-1
 768 1664 l 1,9,-1
 768 1280 l 1,10,-1
 640 1280 l 1,11,-1
 640 1664 l 1,8,-1
128 1280 m 1,12,-1
 640 1280 l 1,13,-1
 640 1152 l 1,14,-1
 128 1152 l 1,15,-1
 128 1280 l 1,12,-1
EndSplineSet
EndChar

StartChar: Q
Encoding: 81 81 49
Width: 896
Flags: W
LayerCount: 2
Fore
SplineSet
128 1792 m 1,0,-1
 640 1792 l 1,1,-1
 640 1664 l 1,2,-1
 128 1664 l 1,3,-1
 128 1792 l 1,0,-1
0 1664 m 1,4,-1
 128 1664 l 1,5,-1
 128 640 l 1,6,-1
 0 640 l 1,7,-1
 0 1664 l 1,4,-1
640 1664 m 1,8,-1
 768 1664 l 1,9,-1
 768 384 l 1,10,-1
 640 384 l 1,11,-1
 640 1664 l 1,8,-1
384 896 m 1,12,-1
 512 896 l 1,13,-1
 512 768 l 1,14,-1
 384 768 l 1,15,-1
 384 896 l 1,12,-1
512 768 m 1,16,-1
 640 768 l 1,17,-1
 640 512 l 1,18,-1
 512 512 l 1,19,-1
 512 768 l 1,16,-1
128 640 m 1,20,-1
 512 640 l 1,21,-1
 512 512 l 1,22,-1
 128 512 l 1,23,-1
 128 640 l 1,20,-1
EndSplineSet
EndChar

StartChar: R
Encoding: 82 82 50
Width: 896
Flags: W
LayerCount: 2
Fore
SplineSet
0 1792 m 1,0,-1
 128 1792 l 1,1,-1
 128 512 l 1,2,-1
 0 512 l 1,3,-1
 0 1792 l 1,0,-1
128 1792 m 1,4,-1
 640 1792 l 1,5,-1
 640 1664 l 1,6,-1
 128 1664 l 1,7,-1
 128 1792 l 1,4,-1
640 1664 m 1,8,-1
 768 1664 l 1,9,-1
 768 1280 l 1,10,-1
 640 1280 l 1,11,-1
 640 1664 l 1,8,-1
128 1280 m 1,12,-1
 640 1280 l 1,13,-1
 640 1152 l 1,14,-1
 128 1152 l 1,15,-1
 128 1280 l 1,12,-1
512 1152 m 1,16,-1
 640 1152 l 1,17,-1
 640 1024 l 1,18,-1
 512 1024 l 1,19,-1
 512 1152 l 1,16,-1
640 1024 m 1,20,-1
 768 1024 l 1,21,-1
 768 512 l 1,22,-1
 640 512 l 1,23,-1
 640 1024 l 1,20,-1
EndSplineSet
EndChar

StartChar: S
Encoding: 83 83 51
Width: 896
Flags: W
LayerCount: 2
Fore
SplineSet
128 1792 m 1,0,-1
 640 1792 l 1,1,-1
 640 1664 l 1,2,-1
 128 1664 l 1,3,-1
 128 1792 l 1,0,-1
0 1664 m 1,4,-1
 128 1664 l 1,5,-1
 128 1408 l 1,6,-1
 0 1408 l 1,7,-1
 0 1664 l 1,4,-1
640 1664 m 1,8,-1
 768 1664 l 1,9,-1
 768 1536 l 1,10,-1
 640 1536 l 1,11,-1
 640 1664 l 1,8,-1
128 1408 m 1,12,-1
 256 1408 l 1,13,-1
 256 1280 l 1,14,-1
 128 1280 l 1,15,-1
 128 1408 l 1,12,-1
256 1280 m 1,16,-1
 512 1280 l 1,17,-1
 512 1152 l 1,18,-1
 256 1152 l 1,19,-1
 256 1280 l 1,16,-1
512 1152 m 1,20,-1
 640 1152 l 1,21,-1
 640 1024 l 1,22,-1
 512 1024 l 1,23,-1
 512 1152 l 1,20,-1
640 1024 m 1,24,-1
 768 1024 l 1,25,-1
 768 640 l 1,26,-1
 640 640 l 1,27,-1
 640 1024 l 1,24,-1
0 768 m 1,28,-1
 128 768 l 1,29,-1
 128 640 l 1,30,-1
 0 640 l 1,31,-1
 0 768 l 1,28,-1
128 640 m 1,32,-1
 640 640 l 1,33,-1
 640 512 l 1,34,-1
 128 512 l 1,35,-1
 128 640 l 1,32,-1
EndSplineSet
EndChar

StartChar: T
Encoding: 84 84 52
Width: 1024
Flags: W
LayerCount: 2
Fore
SplineSet
0 1792 m 1,0,-1
 896 1792 l 1,1,-1
 896 1664 l 1,2,-1
 0 1664 l 1,3,-1
 0 1792 l 1,0,-1
384 1664 m 1,4,-1
 512 1664 l 1,5,-1
 512 512 l 1,6,-1
 384 512 l 1,7,-1
 384 1664 l 1,4,-1
EndSplineSet
EndChar

StartChar: U
Encoding: 85 85 53
Width: 896
Flags: W
LayerCount: 2
Fore
SplineSet
0 1792 m 1,0,-1
 128 1792 l 1,1,-1
 128 640 l 1,2,-1
 0 640 l 1,3,-1
 0 1792 l 1,0,-1
640 1792 m 1,4,-1
 768 1792 l 1,5,-1
 768 640 l 1,6,-1
 640 640 l 1,7,-1
 640 1792 l 1,4,-1
128 640 m 1,8,-1
 640 640 l 1,9,-1
 640 512 l 1,10,-1
 128 512 l 1,11,-1
 128 640 l 1,8,-1
EndSplineSet
EndChar

StartChar: V
Encoding: 86 86 54
Width: 1024
Flags: W
LayerCount: 2
Fore
SplineSet
0 1792 m 1,0,-1
 128 1792 l 1,1,-1
 128 1280 l 1,2,-1
 0 1280 l 1,3,-1
 0 1792 l 1,0,-1
768 1792 m 1,4,-1
 896 1792 l 1,5,-1
 896 1280 l 1,6,-1
 768 1280 l 1,7,-1
 768 1792 l 1,4,-1
128 1280 m 1,8,-1
 256 1280 l 1,9,-1
 256 1024 l 1,10,-1
 128 1024 l 1,11,-1
 128 1280 l 1,8,-1
640 1280 m 1,12,-1
 768 1280 l 1,13,-1
 768 1024 l 1,14,-1
 640 1024 l 1,15,-1
 640 1280 l 1,12,-1
256 1024 m 1,16,-1
 384 1024 l 1,17,-1
 384 768 l 1,18,-1
 256 768 l 1,19,-1
 256 1024 l 1,16,-1
512 1024 m 1,20,-1
 640 1024 l 1,21,-1
 640 768 l 1,22,-1
 512 768 l 1,23,-1
 512 1024 l 1,20,-1
384 768 m 1,24,-1
 512 768 l 1,25,-1
 512 512 l 1,26,-1
 384 512 l 1,27,-1
 384 768 l 1,24,-1
EndSplineSet
EndChar

StartChar: W
Encoding: 87 87 55
Width: 1024
Flags: W
LayerCount: 2
Fore
SplineSet
0 1792 m 1,0,-1
 128 1792 l 1,1,-1
 128 512 l 1,2,-1
 0 512 l 1,3,-1
 0 1792 l 1,0,-1
768 1792 m 1,4,-1
 896 1792 l 1,5,-1
 896 512 l 1,6,-1
 768 512 l 1,7,-1
 768 1792 l 1,4,-1
384 1280 m 1,8,-1
 512 1280 l 1,9,-1
 512 896 l 1,10,-1
 384 896 l 1,11,-1
 384 1280 l 1,8,-1
256 896 m 1,12,-1
 384 896 l 1,13,-1
 384 768 l 1,14,-1
 256 768 l 1,15,-1
 256 896 l 1,12,-1
512 896 m 1,16,-1
 640 896 l 1,17,-1
 640 768 l 1,18,-1
 512 768 l 1,19,-1
 512 896 l 1,16,-1
128 768 m 1,20,-1
 256 768 l 1,21,-1
 256 640 l 1,22,-1
 128 640 l 1,23,-1
 128 768 l 1,20,-1
640 768 m 1,24,-1
 768 768 l 1,25,-1
 768 640 l 1,26,-1
 640 640 l 1,27,-1
 640 768 l 1,24,-1
EndSplineSet
EndChar

StartChar: X
Encoding: 88 88 56
Width: 896
Flags: W
LayerCount: 2
Fore
SplineSet
0 1792 m 1,0,-1
 128 1792 l 1,1,-1
 128 1408 l 1,2,-1
 0 1408 l 1,3,-1
 0 1792 l 1,0,-1
640 1792 m 1,4,-1
 768 1792 l 1,5,-1
 768 1408 l 1,6,-1
 640 1408 l 1,7,-1
 640 1792 l 1,4,-1
128 1408 m 1,8,-1
 256 1408 l 1,9,-1
 256 1280 l 1,10,-1
 128 1280 l 1,11,-1
 128 1408 l 1,8,-1
512 1408 m 1,12,-1
 640 1408 l 1,13,-1
 640 1280 l 1,14,-1
 512 1280 l 1,15,-1
 512 1408 l 1,12,-1
256 1280 m 1,16,-1
 512 1280 l 1,17,-1
 512 1152 l 1,18,-1
 256 1152 l 1,19,-1
 256 1280 l 1,16,-1
256 1152 m 1,20,-1
 512 1152 l 1,21,-1
 512 1024 l 1,22,-1
 256 1024 l 1,23,-1
 256 1152 l 1,20,-1
128 1024 m 1,24,-1
 256 1024 l 1,25,-1
 256 896 l 1,26,-1
 128 896 l 1,27,-1
 128 1024 l 1,24,-1
512 1024 m 1,28,-1
 640 1024 l 1,29,-1
 640 896 l 1,30,-1
 512 896 l 1,31,-1
 512 1024 l 1,28,-1
0 896 m 1,32,-1
 128 896 l 1,33,-1
 128 512 l 1,34,-1
 0 512 l 1,35,-1
 0 896 l 1,32,-1
640 896 m 1,36,-1
 768 896 l 1,37,-1
 768 512 l 1,38,-1
 640 512 l 1,39,-1
 640 896 l 1,36,-1
EndSplineSet
EndChar

StartChar: Y
Encoding: 89 89 57
Width: 1024
Flags: W
LayerCount: 2
Fore
SplineSet
0 1792 m 1,0,-1
 128 1792 l 1,1,-1
 128 1536 l 1,2,-1
 0 1536 l 1,3,-1
 0 1792 l 1,0,-1
768 1792 m 1,4,-1
 896 1792 l 1,5,-1
 896 1536 l 1,6,-1
 768 1536 l 1,7,-1
 768 1792 l 1,4,-1
128 1536 m 1,8,-1
 256 1536 l 1,9,-1
 256 1280 l 1,10,-1
 128 1280 l 1,11,-1
 128 1536 l 1,8,-1
640 1536 m 1,12,-1
 768 1536 l 1,13,-1
 768 1280 l 1,14,-1
 640 1280 l 1,15,-1
 640 1536 l 1,12,-1
256 1280 m 1,16,-1
 384 1280 l 1,17,-1
 384 1152 l 1,18,-1
 256 1152 l 1,19,-1
 256 1280 l 1,16,-1
512 1280 m 1,20,-1
 640 1280 l 1,21,-1
 640 1152 l 1,22,-1
 512 1152 l 1,23,-1
 512 1280 l 1,20,-1
384 1152 m 1,24,-1
 512 1152 l 1,25,-1
 512 512 l 1,26,-1
 384 512 l 1,27,-1
 384 1152 l 1,24,-1
EndSplineSet
EndChar

StartChar: Z
Encoding: 90 90 58
Width: 896
Flags: W
LayerCount: 2
Fore
SplineSet
0 1792 m 1,0,-1
 768 1792 l 1,1,-1
 768 1664 l 1,2,-1
 0 1664 l 1,3,-1
 0 1792 l 1,0,-1
640 1664 m 1,4,-1
 768 1664 l 1,5,-1
 768 1408 l 1,6,-1
 640 1408 l 1,7,-1
 640 1664 l 1,4,-1
512 1408 m 1,8,-1
 640 1408 l 1,9,-1
 640 1280 l 1,10,-1
 512 1280 l 1,11,-1
 512 1408 l 1,8,-1
384 1280 m 1,12,-1
 512 1280 l 1,13,-1
 512 1152 l 1,14,-1
 384 1152 l 1,15,-1
 384 1280 l 1,12,-1
256 1152 m 1,16,-1
 384 1152 l 1,17,-1
 384 1024 l 1,18,-1
 256 1024 l 1,19,-1
 256 1152 l 1,16,-1
128 1024 m 1,20,-1
 256 1024 l 1,21,-1
 256 896 l 1,22,-1
 128 896 l 1,23,-1
 128 1024 l 1,20,-1
0 896 m 1,24,-1
 128 896 l 1,25,-1
 128 512 l 1,26,-1
 0 512 l 1,27,-1
 0 896 l 1,24,-1
128 640 m 1,28,-1
 768 640 l 1,29,-1
 768 512 l 1,30,-1
 128 512 l 1,31,-1
 128 640 l 1,28,-1
EndSplineSet
EndChar

StartChar: bracketleft
Encoding: 91 91 59
Width: 512
Flags: W
LayerCount: 2
Fore
SplineSet
0 1792 m 1,0,-1
 128 1792 l 1,1,-1
 128 384 l 1,2,-1
 0 384 l 1,3,-1
 0 1792 l 1,0,-1
128 1792 m 1,4,-1
 384 1792 l 1,5,-1
 384 1664 l 1,6,-1
 128 1664 l 1,7,-1
 128 1792 l 1,4,-1
128 512 m 1,8,-1
 384 512 l 1,9,-1
 384 384 l 1,10,-1
 128 384 l 1,11,-1
 128 512 l 1,8,-1
EndSplineSet
EndChar

StartChar: backslash
Encoding: 92 92 60
Width: 768
Flags: W
LayerCount: 2
Fore
SplineSet
0 1792 m 1,0,-1
 128 1792 l 1,1,-1
 128 1536 l 1,2,-1
 0 1536 l 1,3,-1
 0 1792 l 1,0,-1
128 1536 m 1,4,-1
 256 1536 l 1,5,-1
 256 1280 l 1,6,-1
 128 1280 l 1,7,-1
 128 1536 l 1,4,-1
256 1280 m 1,8,-1
 384 1280 l 1,9,-1
 384 1024 l 1,10,-1
 256 1024 l 1,11,-1
 256 1280 l 1,8,-1
384 1024 m 1,12,-1
 512 1024 l 1,13,-1
 512 768 l 1,14,-1
 384 768 l 1,15,-1
 384 1024 l 1,12,-1
512 768 m 1,16,-1
 640 768 l 1,17,-1
 640 512 l 1,18,-1
 512 512 l 1,19,-1
 512 768 l 1,16,-1
EndSplineSet
EndChar

StartChar: bracketright
Encoding: 93 93 61
Width: 512
Flags: W
LayerCount: 2
Fore
SplineSet
0 1792 m 1,0,-1
 384 1792 l 1,1,-1
 384 1664 l 1,2,-1
 0 1664 l 1,3,-1
 0 1792 l 1,0,-1
256 1664 m 1,4,-1
 384 1664 l 1,5,-1
 384 384 l 1,6,-1
 256 384 l 1,7,-1
 256 1664 l 1,4,-1
0 512 m 1,8,-1
 256 512 l 1,9,-1
 256 384 l 1,10,-1
 0 384 l 1,11,-1
 0 512 l 1,8,-1
EndSplineSet
EndChar

StartChar: asciicircum
Encoding: 94 94 62
Width: 768
Flags: W
LayerCount: 2
Fore
SplineSet
256 1920 m 1,0,-1
 384 1920 l 1,1,-1
 384 1792 l 1,2,-1
 256 1792 l 1,3,-1
 256 1920 l 1,0,-1
128 1792 m 1,4,-1
 256 1792 l 1,5,-1
 256 1664 l 1,6,-1
 128 1664 l 1,7,-1
 128 1792 l 1,4,-1
384 1792 m 1,8,-1
 512 1792 l 1,9,-1
 512 1664 l 1,10,-1
 384 1664 l 1,11,-1
 384 1792 l 1,8,-1
0 1664 m 1,12,-1
 128 1664 l 1,13,-1
 128 1536 l 1,14,-1
 0 1536 l 1,15,-1
 0 1664 l 1,12,-1
512 1664 m 1,16,-1
 640 1664 l 1,17,-1
 640 1536 l 1,18,-1
 512 1536 l 1,19,-1
 512 1664 l 1,16,-1
EndSplineSet
EndChar

StartChar: underscore
Encoding: 95 95 63
Width: 896
Flags: W
LayerCount: 2
Fore
SplineSet
0 384 m 1,0,-1
 768 384 l 1,1,-1
 768 256 l 1,2,-1
 0 256 l 1,3,-1
 0 384 l 1,0,-1
EndSplineSet
EndChar

StartChar: grave
Encoding: 96 96 64
Width: 384
Flags: W
LayerCount: 2
Fore
SplineSet
0 1792 m 1,0,-1
 128 1792 l 1,1,-1
 128 1536 l 1,2,-1
 0 1536 l 1,3,-1
 0 1792 l 1,0,-1
128 1536 m 1,4,-1
 256 1536 l 1,5,-1
 256 1408 l 1,6,-1
 128 1408 l 1,7,-1
 128 1536 l 1,4,-1
EndSplineSet
EndChar

StartChar: a
Encoding: 97 97 65
Width: 896
Flags: W
LayerCount: 2
Fore
SplineSet
128 1408 m 1,0,-1
 640 1408 l 1,1,-1
 640 1280 l 1,2,-1
 128 1280 l 1,3,-1
 128 1408 l 1,0,-1
640 1280 m 1,4,-1
 768 1280 l 1,5,-1
 768 512 l 1,6,-1
 640 512 l 1,7,-1
 640 1280 l 1,4,-1
128 1152 m 1,8,-1
 640 1152 l 1,9,-1
 640 1024 l 1,10,-1
 128 1024 l 1,11,-1
 128 1152 l 1,8,-1
0 1024 m 1,12,-1
 128 1024 l 1,13,-1
 128 640 l 1,14,-1
 0 640 l 1,15,-1
 0 1024 l 1,12,-1
128 640 m 1,16,-1
 640 640 l 1,17,-1
 640 512 l 1,18,-1
 128 512 l 1,19,-1
 128 640 l 1,16,-1
EndSplineSet
EndChar

StartChar: b
Encoding: 98 98 66
Width: 896
Flags: W
LayerCount: 2
Fore
SplineSet
0 1792 m 1,0,-1
 128 1792 l 1,1,-1
 128 512 l 1,2,-1
 0 512 l 1,3,-1
 0 1792 l 1,0,-1
128 1408 m 1,4,-1
 640 1408 l 1,5,-1
 640 1280 l 1,6,-1
 128 1280 l 1,7,-1
 128 1408 l 1,4,-1
640 1280 m 1,8,-1
 768 1280 l 1,9,-1
 768 640 l 1,10,-1
 640 640 l 1,11,-1
 640 1280 l 1,8,-1
128 640 m 1,12,-1
 640 640 l 1,13,-1
 640 512 l 1,14,-1
 128 512 l 1,15,-1
 128 640 l 1,12,-1
EndSplineSet
EndChar

StartChar: c
Encoding: 99 99 67
Width: 896
Flags: W
LayerCount: 2
Fore
SplineSet
128 1408 m 1,0,-1
 640 1408 l 1,1,-1
 640 1280 l 1,2,-1
 128 1280 l 1,3,-1
 128 1408 l 1,0,-1
0 1280 m 1,4,-1
 128 1280 l 1,5,-1
 128 640 l 1,6,-1
 0 640 l 1,7,-1
 0 1280 l 1,4,-1
640 1280 m 1,8,-1
 768 1280 l 1,9,-1
 768 1152 l 1,10,-1
 640 1152 l 1,11,-1
 640 1280 l 1,8,-1
640 768 m 1,12,-1
 768 768 l 1,13,-1
 768 640 l 1,14,-1
 640 640 l 1,15,-1
 640 768 l 1,12,-1
128 640 m 1,16,-1
 640 640 l 1,17,-1
 640 512 l 1,18,-1
 128 512 l 1,19,-1
 128 640 l 1,16,-1
EndSplineSet
EndChar

StartChar: d
Encoding: 100 100 68
Width: 896
Flags: W
LayerCount: 2
Fore
SplineSet
640 1792 m 1,0,-1
 768 1792 l 1,1,-1
 768 512 l 1,2,-1
 640 512 l 1,3,-1
 640 1792 l 1,0,-1
128 1408 m 1,4,-1
 640 1408 l 1,5,-1
 640 1280 l 1,6,-1
 128 1280 l 1,7,-1
 128 1408 l 1,4,-1
0 1280 m 1,8,-1
 128 1280 l 1,9,-1
 128 640 l 1,10,-1
 0 640 l 1,11,-1
 0 1280 l 1,8,-1
128 640 m 1,12,-1
 640 640 l 1,13,-1
 640 512 l 1,14,-1
 128 512 l 1,15,-1
 128 640 l 1,12,-1
EndSplineSet
EndChar

StartChar: e
Encoding: 101 101 69
Width: 896
Flags: W
LayerCount: 2
Fore
SplineSet
128 1408 m 1,0,-1
 640 1408 l 1,1,-1
 640 1280 l 1,2,-1
 128 1280 l 1,3,-1
 128 1408 l 1,0,-1
0 1280 m 1,4,-1
 128 1280 l 1,5,-1
 128 640 l 1,6,-1
 0 640 l 1,7,-1
 0 1280 l 1,4,-1
640 1280 m 1,8,-1
 768 1280 l 1,9,-1
 768 896 l 1,10,-1
 640 896 l 1,11,-1
 640 1280 l 1,8,-1
128 1024 m 1,12,-1
 640 1024 l 1,13,-1
 640 896 l 1,14,-1
 128 896 l 1,15,-1
 128 1024 l 1,12,-1
640 768 m 1,16,-1
 768 768 l 1,17,-1
 768 640 l 1,18,-1
 640 640 l 1,19,-1
 640 768 l 1,16,-1
128 640 m 1,20,-1
 640 640 l 1,21,-1
 640 512 l 1,22,-1
 128 512 l 1,23,-1
 128 640 l 1,20,-1
EndSplineSet
EndChar

StartChar: f
Encoding: 102 102 70
Width: 896
Flags: W
LayerCount: 2
Fore
SplineSet
256 1792 m 1,0,-1
 640 1792 l 1,1,-1
 640 1664 l 1,2,-1
 256 1664 l 1,3,-1
 256 1792 l 1,0,-1
128 1664 m 1,4,-1
 256 1664 l 1,5,-1
 256 512 l 1,6,-1
 128 512 l 1,7,-1
 128 1664 l 1,4,-1
640 1664 m 1,8,-1
 768 1664 l 1,9,-1
 768 1536 l 1,10,-1
 640 1536 l 1,11,-1
 640 1664 l 1,8,-1
0 1280 m 1,12,-1
 128 1280 l 1,13,-1
 128 1152 l 1,14,-1
 0 1152 l 1,15,-1
 0 1280 l 1,12,-1
256 1280 m 1,16,-1
 512 1280 l 1,17,-1
 512 1152 l 1,18,-1
 256 1152 l 1,19,-1
 256 1280 l 1,16,-1
EndSplineSet
EndChar

StartChar: g
Encoding: 103 103 71
Width: 896
Flags: W
LayerCount: 2
Fore
SplineSet
128 1408 m 1,0,-1
 640 1408 l 1,1,-1
 640 1280 l 1,2,-1
 128 1280 l 1,3,-1
 128 1408 l 1,0,-1
0 1280 m 1,4,-1
 128 1280 l 1,5,-1
 128 640 l 1,6,-1
 0 640 l 1,7,-1
 0 1280 l 1,4,-1
640 1280 m 1,8,-1
 768 1280 l 1,9,-1
 768 256 l 1,10,-1
 640 256 l 1,11,-1
 640 1280 l 1,8,-1
512 768 m 1,12,-1
 640 768 l 1,13,-1
 640 640 l 1,14,-1
 512 640 l 1,15,-1
 512 768 l 1,12,-1
128 640 m 1,16,-1
 512 640 l 1,17,-1
 512 512 l 1,18,-1
 128 512 l 1,19,-1
 128 640 l 1,16,-1
0 384 m 1,20,-1
 128 384 l 1,21,-1
 128 256 l 1,22,-1
 0 256 l 1,23,-1
 0 384 l 1,20,-1
128 256 m 1,24,-1
 640 256 l 1,25,-1
 640 128 l 1,26,-1
 128 128 l 1,27,-1
 128 256 l 1,24,-1
EndSplineSet
EndChar

StartChar: h
Encoding: 104 104 72
Width: 896
Flags: W
LayerCount: 2
Fore
SplineSet
0 1792 m 1,0,-1
 128 1792 l 1,1,-1
 128 512 l 1,2,-1
 0 512 l 1,3,-1
 0 1792 l 1,0,-1
128 1408 m 1,4,-1
 640 1408 l 1,5,-1
 640 1280 l 1,6,-1
 128 1280 l 1,7,-1
 128 1408 l 1,4,-1
640 1280 m 1,8,-1
 768 1280 l 1,9,-1
 768 512 l 1,10,-1
 640 512 l 1,11,-1
 640 1280 l 1,8,-1
EndSplineSet
EndChar

StartChar: i
Encoding: 105 105 73
Width: 256
Flags: W
LayerCount: 2
Fore
SplineSet
0 1664 m 1,0,-1
 128 1664 l 1,1,-1
 128 1536 l 1,2,-1
 0 1536 l 1,3,-1
 0 1664 l 1,0,-1
0 1408 m 1,4,-1
 128 1408 l 1,5,-1
 128 512 l 1,6,-1
 0 512 l 1,7,-1
 0 1408 l 1,4,-1
EndSplineSet
EndChar

StartChar: j
Encoding: 106 106 74
Width: 768
Flags: W
LayerCount: 2
Fore
SplineSet
512 1664 m 1,0,-1
 640 1664 l 1,1,-1
 640 1536 l 1,2,-1
 512 1536 l 1,3,-1
 512 1664 l 1,0,-1
512 1408 m 1,4,-1
 640 1408 l 1,5,-1
 640 256 l 1,6,-1
 512 256 l 1,7,-1
 512 1408 l 1,4,-1
0 512 m 1,8,-1
 128 512 l 1,9,-1
 128 256 l 1,10,-1
 0 256 l 1,11,-1
 0 512 l 1,8,-1
128 256 m 1,12,-1
 512 256 l 1,13,-1
 512 128 l 1,14,-1
 128 128 l 1,15,-1
 128 256 l 1,12,-1
EndSplineSet
EndChar

StartChar: k
Encoding: 107 107 75
Width: 896
Flags: W
LayerCount: 2
Fore
SplineSet
0 1792 m 1,0,-1
 128 1792 l 1,1,-1
 128 512 l 1,2,-1
 0 512 l 1,3,-1
 0 1792 l 1,0,-1
640 1408 m 1,4,-1
 768 1408 l 1,5,-1
 768 1152 l 1,6,-1
 640 1152 l 1,7,-1
 640 1408 l 1,4,-1
512 1152 m 1,8,-1
 640 1152 l 1,9,-1
 640 1024 l 1,10,-1
 512 1024 l 1,11,-1
 512 1152 l 1,8,-1
128 1024 m 1,12,-1
 512 1024 l 1,13,-1
 512 896 l 1,14,-1
 128 896 l 1,15,-1
 128 1024 l 1,12,-1
512 896 m 1,16,-1
 640 896 l 1,17,-1
 640 768 l 1,18,-1
 512 768 l 1,19,-1
 512 896 l 1,16,-1
640 768 m 1,20,-1
 768 768 l 1,21,-1
 768 512 l 1,22,-1
 640 512 l 1,23,-1
 640 768 l 1,20,-1
EndSplineSet
EndChar

StartChar: l
Encoding: 108 108 76
Width: 384
Flags: W
LayerCount: 2
Fore
SplineSet
0 1792 m 1,0,-1
 128 1792 l 1,1,-1
 128 640 l 1,2,-1
 0 640 l 1,3,-1
 0 1792 l 1,0,-1
128 640 m 1,4,-1
 256 640 l 1,5,-1
 256 512 l 1,6,-1
 128 512 l 1,7,-1
 128 640 l 1,4,-1
EndSplineSet
EndChar

StartChar: m
Encoding: 109 109 77
Width: 1024
Flags: W
LayerCount: 2
Fore
SplineSet
0 1408 m 1,0,-1
 128 1408 l 1,1,-1
 128 512 l 1,2,-1
 0 512 l 1,3,-1
 0 1408 l 1,0,-1
128 1408 m 1,4,-1
 384 1408 l 1,5,-1
 384 1280 l 1,6,-1
 128 1280 l 1,7,-1
 128 1408 l 1,4,-1
512 1408 m 1,8,-1
 768 1408 l 1,9,-1
 768 1280 l 1,10,-1
 512 1280 l 1,11,-1
 512 1408 l 1,8,-1
384 1280 m 1,12,-1
 512 1280 l 1,13,-1
 512 640 l 1,14,-1
 384 640 l 1,15,-1
 384 1280 l 1,12,-1
768 1280 m 1,16,-1
 896 1280 l 1,17,-1
 896 512 l 1,18,-1
 768 512 l 1,19,-1
 768 1280 l 1,16,-1
EndSplineSet
EndChar

StartChar: n
Encoding: 110 110 78
Width: 896
Flags: W
LayerCount: 2
Fore
SplineSet
0 1408 m 1,0,-1
 128 1408 l 1,1,-1
 128 512 l 1,2,-1
 0 512 l 1,3,-1
 0 1408 l 1,0,-1
128 1408 m 1,4,-1
 640 1408 l 1,5,-1
 640 1280 l 1,6,-1
 128 1280 l 1,7,-1
 128 1408 l 1,4,-1
640 1280 m 1,8,-1
 768 1280 l 1,9,-1
 768 512 l 1,10,-1
 640 512 l 1,11,-1
 640 1280 l 1,8,-1
EndSplineSet
EndChar

StartChar: o
Encoding: 111 111 79
Width: 896
Flags: W
LayerCount: 2
Fore
SplineSet
128 1408 m 1,0,-1
 640 1408 l 1,1,-1
 640 1280 l 1,2,-1
 128 1280 l 1,3,-1
 128 1408 l 1,0,-1
0 1280 m 1,4,-1
 128 1280 l 1,5,-1
 128 640 l 1,6,-1
 0 640 l 1,7,-1
 0 1280 l 1,4,-1
640 1280 m 1,8,-1
 768 1280 l 1,9,-1
 768 640 l 1,10,-1
 640 640 l 1,11,-1
 640 1280 l 1,8,-1
128 640 m 1,12,-1
 640 640 l 1,13,-1
 640 512 l 1,14,-1
 128 512 l 1,15,-1
 128 640 l 1,12,-1
EndSplineSet
EndChar

StartChar: p
Encoding: 112 112 80
Width: 896
Flags: W
LayerCount: 2
Fore
SplineSet
0 1408 m 1,0,-1
 128 1408 l 1,1,-1
 128 128 l 1,2,-1
 0 128 l 1,3,-1
 0 1408 l 1,0,-1
128 1408 m 1,4,-1
 640 1408 l 1,5,-1
 640 1280 l 1,6,-1
 128 1280 l 1,7,-1
 128 1408 l 1,4,-1
640 1280 m 1,8,-1
 768 1280 l 1,9,-1
 768 640 l 1,10,-1
 640 640 l 1,11,-1
 640 1280 l 1,8,-1
128 640 m 1,12,-1
 640 640 l 1,13,-1
 640 512 l 1,14,-1
 128 512 l 1,15,-1
 128 640 l 1,12,-1
EndSplineSet
EndChar

StartChar: q
Encoding: 113 113 81
Width: 896
Flags: W
LayerCount: 2
Fore
SplineSet
128 1408 m 1,0,-1
 768 1408 l 1,1,-1
 768 1280 l 1,2,-1
 128 1280 l 1,3,-1
 128 1408 l 1,0,-1
0 1280 m 1,4,-1
 128 1280 l 1,5,-1
 128 640 l 1,6,-1
 0 640 l 1,7,-1
 0 1280 l 1,4,-1
640 1280 m 1,8,-1
 768 1280 l 1,9,-1
 768 128 l 1,10,-1
 640 128 l 1,11,-1
 640 1280 l 1,8,-1
128 640 m 1,12,-1
 640 640 l 1,13,-1
 640 512 l 1,14,-1
 128 512 l 1,15,-1
 128 640 l 1,12,-1
EndSplineSet
EndChar

StartChar: r
Encoding: 114 114 82
Width: 768
Flags: W
LayerCount: 2
Fore
SplineSet
0 1408 m 1,0,-1
 128 1408 l 1,1,-1
 128 512 l 1,2,-1
 0 512 l 1,3,-1
 0 1408 l 1,0,-1
256 1408 m 1,4,-1
 640 1408 l 1,5,-1
 640 1280 l 1,6,-1
 256 1280 l 1,7,-1
 256 1408 l 1,4,-1
128 1280 m 1,8,-1
 256 1280 l 1,9,-1
 256 1152 l 1,10,-1
 128 1152 l 1,11,-1
 128 1280 l 1,8,-1
EndSplineSet
EndChar

StartChar: s
Encoding: 115 115 83
Width: 896
Flags: W
LayerCount: 2
Fore
SplineSet
128 1408 m 1,0,-1
 640 1408 l 1,1,-1
 640 1280 l 1,2,-1
 128 1280 l 1,3,-1
 128 1408 l 1,0,-1
0 1280 m 1,4,-1
 128 1280 l 1,5,-1
 128 1024 l 1,6,-1
 0 1024 l 1,7,-1
 0 1280 l 1,4,-1
640 1280 m 1,8,-1
 768 1280 l 1,9,-1
 768 1152 l 1,10,-1
 640 1152 l 1,11,-1
 640 1280 l 1,8,-1
128 1024 m 1,12,-1
 640 1024 l 1,13,-1
 640 896 l 1,14,-1
 128 896 l 1,15,-1
 128 1024 l 1,12,-1
640 896 m 1,16,-1
 768 896 l 1,17,-1
 768 640 l 1,18,-1
 640 640 l 1,19,-1
 640 896 l 1,16,-1
0 768 m 1,20,-1
 128 768 l 1,21,-1
 128 640 l 1,22,-1
 0 640 l 1,23,-1
 0 768 l 1,20,-1
128 640 m 1,24,-1
 640 640 l 1,25,-1
 640 512 l 1,26,-1
 128 512 l 1,27,-1
 128 640 l 1,24,-1
EndSplineSet
EndChar

StartChar: t
Encoding: 116 116 84
Width: 768
Flags: W
LayerCount: 2
Fore
SplineSet
256 1664 m 1,0,-1
 384 1664 l 1,1,-1
 384 640 l 1,2,-1
 256 640 l 1,3,-1
 256 1664 l 1,0,-1
0 1408 m 1,4,-1
 256 1408 l 1,5,-1
 256 1280 l 1,6,-1
 0 1280 l 1,7,-1
 0 1408 l 1,4,-1
384 1408 m 1,8,-1
 640 1408 l 1,9,-1
 640 1280 l 1,10,-1
 384 1280 l 1,11,-1
 384 1408 l 1,8,-1
384 640 m 1,12,-1
 640 640 l 1,13,-1
 640 512 l 1,14,-1
 384 512 l 1,15,-1
 384 640 l 1,12,-1
EndSplineSet
EndChar

StartChar: u
Encoding: 117 117 85
Width: 896
Flags: W
LayerCount: 2
Fore
SplineSet
0 1408 m 1,0,-1
 128 1408 l 1,1,-1
 128 640 l 1,2,-1
 0 640 l 1,3,-1
 0 1408 l 1,0,-1
640 1408 m 1,4,-1
 768 1408 l 1,5,-1
 768 512 l 1,6,-1
 640 512 l 1,7,-1
 640 1408 l 1,4,-1
128 640 m 1,8,-1
 640 640 l 1,9,-1
 640 512 l 1,10,-1
 128 512 l 1,11,-1
 128 640 l 1,8,-1
EndSplineSet
EndChar

StartChar: v
Encoding: 118 118 86
Width: 1024
Flags: W
LayerCount: 2
Fore
SplineSet
0 1408 m 1,0,-1
 128 1408 l 1,1,-1
 128 1152 l 1,2,-1
 0 1152 l 1,3,-1
 0 1408 l 1,0,-1
768 1408 m 1,4,-1
 896 1408 l 1,5,-1
 896 1152 l 1,6,-1
 768 1152 l 1,7,-1
 768 1408 l 1,4,-1
128 1152 m 1,8,-1
 256 1152 l 1,9,-1
 256 896 l 1,10,-1
 128 896 l 1,11,-1
 128 1152 l 1,8,-1
640 1152 m 1,12,-1
 768 1152 l 1,13,-1
 768 896 l 1,14,-1
 640 896 l 1,15,-1
 640 1152 l 1,12,-1
256 896 m 1,16,-1
 384 896 l 1,17,-1
 384 640 l 1,18,-1
 256 640 l 1,19,-1
 256 896 l 1,16,-1
512 896 m 1,20,-1
 640 896 l 1,21,-1
 640 640 l 1,22,-1
 512 640 l 1,23,-1
 512 896 l 1,20,-1
384 640 m 1,24,-1
 512 640 l 1,25,-1
 512 512 l 1,26,-1
 384 512 l 1,27,-1
 384 640 l 1,24,-1
EndSplineSet
EndChar

StartChar: w
Encoding: 119 119 87
Width: 1024
Flags: W
LayerCount: 2
Fore
SplineSet
0 1408 m 1,0,-1
 128 1408 l 1,1,-1
 128 640 l 1,2,-1
 0 640 l 1,3,-1
 0 1408 l 1,0,-1
768 1408 m 1,4,-1
 896 1408 l 1,5,-1
 896 640 l 1,6,-1
 768 640 l 1,7,-1
 768 1408 l 1,4,-1
384 1152 m 1,8,-1
 512 1152 l 1,9,-1
 512 768 l 1,10,-1
 384 768 l 1,11,-1
 384 1152 l 1,8,-1
256 768 m 1,12,-1
 384 768 l 1,13,-1
 384 640 l 1,14,-1
 256 640 l 1,15,-1
 256 768 l 1,12,-1
512 768 m 1,16,-1
 640 768 l 1,17,-1
 640 640 l 1,18,-1
 512 640 l 1,19,-1
 512 768 l 1,16,-1
128 640 m 1,20,-1
 256 640 l 1,21,-1
 256 512 l 1,22,-1
 128 512 l 1,23,-1
 128 640 l 1,20,-1
640 640 m 1,24,-1
 768 640 l 1,25,-1
 768 512 l 1,26,-1
 640 512 l 1,27,-1
 640 640 l 1,24,-1
EndSplineSet
EndChar

StartChar: x
Encoding: 120 120 88
Width: 1024
Flags: W
LayerCount: 2
Fore
SplineSet
0 1408 m 1,0,-1
 128 1408 l 1,1,-1
 128 1280 l 1,2,-1
 0 1280 l 1,3,-1
 0 1408 l 1,0,-1
768 1408 m 1,4,-1
 896 1408 l 1,5,-1
 896 1280 l 1,6,-1
 768 1280 l 1,7,-1
 768 1408 l 1,4,-1
128 1280 m 1,8,-1
 256 1280 l 1,9,-1
 256 1152 l 1,10,-1
 128 1152 l 1,11,-1
 128 1280 l 1,8,-1
640 1280 m 1,12,-1
 768 1280 l 1,13,-1
 768 1152 l 1,14,-1
 640 1152 l 1,15,-1
 640 1280 l 1,12,-1
256 1152 m 1,16,-1
 384 1152 l 1,17,-1
 384 1024 l 1,18,-1
 256 1024 l 1,19,-1
 256 1152 l 1,16,-1
512 1152 m 1,20,-1
 640 1152 l 1,21,-1
 640 1024 l 1,22,-1
 512 1024 l 1,23,-1
 512 1152 l 1,20,-1
384 1024 m 1,24,-1
 512 1024 l 1,25,-1
 512 896 l 1,26,-1
 384 896 l 1,27,-1
 384 1024 l 1,24,-1
256 896 m 1,28,-1
 384 896 l 1,29,-1
 384 768 l 1,30,-1
 256 768 l 1,31,-1
 256 896 l 1,28,-1
512 896 m 1,32,-1
 640 896 l 1,33,-1
 640 768 l 1,34,-1
 512 768 l 1,35,-1
 512 896 l 1,32,-1
128 768 m 1,36,-1
 256 768 l 1,37,-1
 256 640 l 1,38,-1
 128 640 l 1,39,-1
 128 768 l 1,36,-1
640 768 m 1,40,-1
 768 768 l 1,41,-1
 768 640 l 1,42,-1
 640 640 l 1,43,-1
 640 768 l 1,40,-1
0 640 m 1,44,-1
 128 640 l 1,45,-1
 128 512 l 1,46,-1
 0 512 l 1,47,-1
 0 640 l 1,44,-1
768 640 m 1,48,-1
 896 640 l 1,49,-1
 896 512 l 1,50,-1
 768 512 l 1,51,-1
 768 640 l 1,48,-1
EndSplineSet
EndChar

StartChar: y
Encoding: 121 121 89
Width: 896
Flags: W
LayerCount: 2
Fore
SplineSet
0 1408 m 1,0,-1
 128 1408 l 1,1,-1
 128 640 l 1,2,-1
 0 640 l 1,3,-1
 0 1408 l 1,0,-1
640 1408 m 1,4,-1
 768 1408 l 1,5,-1
 768 384 l 1,6,-1
 640 384 l 1,7,-1
 640 1408 l 1,4,-1
512 768 m 1,8,-1
 640 768 l 1,9,-1
 640 640 l 1,10,-1
 512 640 l 1,11,-1
 512 768 l 1,8,-1
128 640 m 1,12,-1
 512 640 l 1,13,-1
 512 512 l 1,14,-1
 128 512 l 1,15,-1
 128 640 l 1,12,-1
512 384 m 1,16,-1
 640 384 l 1,17,-1
 640 256 l 1,18,-1
 512 256 l 1,19,-1
 512 384 l 1,16,-1
0 256 m 1,20,-1
 512 256 l 1,21,-1
 512 128 l 1,22,-1
 0 128 l 1,23,-1
 0 256 l 1,20,-1
EndSplineSet
EndChar

StartChar: z
Encoding: 122 122 90
Width: 896
Flags: W
LayerCount: 2
Fore
SplineSet
0 1408 m 1,0,-1
 768 1408 l 1,1,-1
 768 1280 l 1,2,-1
 0 1280 l 1,3,-1
 0 1408 l 1,0,-1
512 1280 m 1,4,-1
 640 1280 l 1,5,-1
 640 1152 l 1,6,-1
 512 1152 l 1,7,-1
 512 1280 l 1,4,-1
384 1152 m 1,8,-1
 512 1152 l 1,9,-1
 512 1024 l 1,10,-1
 384 1024 l 1,11,-1
 384 1152 l 1,8,-1
256 1024 m 1,12,-1
 384 1024 l 1,13,-1
 384 896 l 1,14,-1
 256 896 l 1,15,-1
 256 1024 l 1,12,-1
128 896 m 1,16,-1
 256 896 l 1,17,-1
 256 768 l 1,18,-1
 128 768 l 1,19,-1
 128 896 l 1,16,-1
0 768 m 1,20,-1
 128 768 l 1,21,-1
 128 512 l 1,22,-1
 0 512 l 1,23,-1
 0 768 l 1,20,-1
128 640 m 1,24,-1
 768 640 l 1,25,-1
 768 512 l 1,26,-1
 128 512 l 1,27,-1
 128 640 l 1,24,-1
EndSplineSet
EndChar

StartChar: braceleft
Encoding: 123 123 91
Width: 768
Flags: W
LayerCount: 2
Fore
SplineSet
384 1792 m 1,0,-1
 640 1792 l 1,1,-1
 640 1664 l 1,2,-1
 384 1664 l 1,3,-1
 384 1792 l 1,0,-1
256 1664 m 1,4,-1
 384 1664 l 1,5,-1
 384 1152 l 1,6,-1
 256 1152 l 1,7,-1
 256 1664 l 1,4,-1
0 1152 m 1,8,-1
 256 1152 l 1,9,-1
 256 1024 l 1,10,-1
 0 1024 l 1,11,-1
 0 1152 l 1,8,-1
256 1024 m 1,12,-1
 384 1024 l 1,13,-1
 384 512 l 1,14,-1
 256 512 l 1,15,-1
 256 1024 l 1,12,-1
384 512 m 1,16,-1
 640 512 l 1,17,-1
 640 384 l 1,18,-1
 384 384 l 1,19,-1
 384 512 l 1,16,-1
EndSplineSet
EndChar

StartChar: bar
Encoding: 124 124 92
Width: 256
Flags: W
LayerCount: 2
Fore
SplineSet
0 1792 m 1,0,-1
 128 1792 l 1,1,-1
 128 1280 l 1,2,-1
 0 1280 l 1,3,-1
 0 1792 l 1,0,-1
0 1152 m 1,4,-1
 128 1152 l 1,5,-1
 128 512 l 1,6,-1
 0 512 l 1,7,-1
 0 1152 l 1,4,-1
EndSplineSet
EndChar

StartChar: braceright
Encoding: 125 125 93
Width: 768
Flags: W
LayerCount: 2
Fore
SplineSet
0 1792 m 1,0,-1
 256 1792 l 1,1,-1
 256 1664 l 1,2,-1
 0 1664 l 1,3,-1
 0 1792 l 1,0,-1
256 1664 m 1,4,-1
 384 1664 l 1,5,-1
 384 1152 l 1,6,-1
 256 1152 l 1,7,-1
 256 1664 l 1,4,-1
384 1152 m 1,8,-1
 640 1152 l 1,9,-1
 640 1024 l 1,10,-1
 384 1024 l 1,11,-1
 384 1152 l 1,8,-1
256 1024 m 1,12,-1
 384 1024 l 1,13,-1
 384 512 l 1,14,-1
 256 512 l 1,15,-1
 256 1024 l 1,12,-1
0 512 m 1,16,-1
 256 512 l 1,17,-1
 256 384 l 1,18,-1
 0 384 l 1,19,-1
 0 512 l 1,16,-1
EndSplineSet
EndChar

StartChar: asciitilde
Encoding: 126 126 94
Width: 896
Flags: W
LayerCount: 2
Fore
SplineSet
128 1792 m 1,0,-1
 384 1792 l 1,1,-1
 384 1664 l 1,2,-1
 128 1664 l 1,3,-1
 128 1792 l 1,0,-1
640 1792 m 1,4,-1
 768 1792 l 1,5,-1
 768 1664 l 1,6,-1
 640 1664 l 1,7,-1
 640 1792 l 1,4,-1
0 1664 m 1,8,-1
 128 1664 l 1,9,-1
 128 1536 l 1,10,-1
 0 1536 l 1,11,-1
 0 1664 l 1,8,-1
384 1664 m 1,12,-1
 640 1664 l 1,13,-1
 640 1536 l 1,14,-1
 384 1536 l 1,15,-1
 384 1664 l 1,12,-1
EndSplineSet
EndChar

StartChar: uni007F
Encoding: 127 127 95
Width: 1024
Flags: W
LayerCount: 2
Fore
SplineSet
0 1920 m 1,0,-1
 128 1920 l 1,1,-1
 128 1408 l 1,2,-1
 0 1408 l 1,3,-1
 0 1920 l 1,0,-1
128 1920 m 1,4,-1
 256 1920 l 1,5,-1
 256 1792 l 1,6,-1
 128 1792 l 1,7,-1
 128 1920 l 1,4,-1
256 1792 m 1,8,-1
 384 1792 l 1,9,-1
 384 1536 l 1,10,-1
 256 1536 l 1,11,-1
 256 1792 l 1,8,-1
128 1536 m 1,12,-1
 256 1536 l 1,13,-1
 256 1408 l 1,14,-1
 128 1408 l 1,15,-1
 128 1536 l 1,12,-1
256 1280 m 1,16,-1
 384 1280 l 1,17,-1
 384 768 l 1,18,-1
 256 768 l 1,19,-1
 256 1280 l 1,16,-1
384 1280 m 1,20,-1
 512 1280 l 1,21,-1
 512 1024 l 1,22,-1
 384 1024 l 1,23,-1
 384 1280 l 1,20,-1
384 896 m 1,24,-1
 512 896 l 1,25,-1
 512 768 l 1,26,-1
 384 768 l 1,27,-1
 384 896 l 1,24,-1
640 896 m 1,28,-1
 768 896 l 1,29,-1
 768 384 l 1,30,-1
 640 384 l 1,31,-1
 640 896 l 1,28,-1
768 512 m 1,32,-1
 896 512 l 1,33,-1
 896 384 l 1,34,-1
 768 384 l 1,35,-1
 768 512 l 1,32,-1
EndSplineSet
EndChar

StartChar: exclamdown
Encoding: 161 161 97
Width: 256
Flags: W
LayerCount: 2
Fore
SplineSet
0 1792 m 1,0,-1
 128 1792 l 1,1,-1
 128 1536 l 1,2,-1
 0 1536 l 1,3,-1
 0 1792 l 1,0,-1
0 1408 m 1,4,-1
 128 1408 l 1,5,-1
 128 512 l 1,6,-1
 0 512 l 1,7,-1
 0 1408 l 1,4,-1
EndSplineSet
EndChar

StartChar: cent
Encoding: 162 162 98
Width: 896
Flags: W
LayerCount: 2
Fore
SplineSet
512 1536 m 1,0,-1
 640 1536 l 1,1,-1
 640 1280 l 1,2,-1
 512 1280 l 1,3,-1
 512 1536 l 1,0,-1
128 1408 m 1,4,-1
 512 1408 l 1,5,-1
 512 1280 l 1,6,-1
 128 1280 l 1,7,-1
 128 1408 l 1,4,-1
0 1280 m 1,8,-1
 128 1280 l 1,9,-1
 128 640 l 1,10,-1
 0 640 l 1,11,-1
 0 1280 l 1,8,-1
384 1280 m 1,12,-1
 512 1280 l 1,13,-1
 512 768 l 1,14,-1
 384 768 l 1,15,-1
 384 1280 l 1,12,-1
640 1280 m 1,16,-1
 768 1280 l 1,17,-1
 768 1152 l 1,18,-1
 640 1152 l 1,19,-1
 640 1280 l 1,16,-1
256 768 m 1,20,-1
 384 768 l 1,21,-1
 384 384 l 1,22,-1
 256 384 l 1,23,-1
 256 768 l 1,20,-1
640 768 m 1,24,-1
 768 768 l 1,25,-1
 768 640 l 1,26,-1
 640 640 l 1,27,-1
 640 768 l 1,24,-1
128 640 m 1,28,-1
 256 640 l 1,29,-1
 256 512 l 1,30,-1
 128 512 l 1,31,-1
 128 640 l 1,28,-1
384 640 m 1,32,-1
 640 640 l 1,33,-1
 640 512 l 1,34,-1
 384 512 l 1,35,-1
 384 640 l 1,32,-1
128 384 m 1,36,-1
 256 384 l 1,37,-1
 256 256 l 1,38,-1
 128 256 l 1,39,-1
 128 384 l 1,36,-1
EndSplineSet
EndChar

StartChar: sterling
Encoding: 163 163 99
Width: 768
Flags: W
LayerCount: 2
Fore
SplineSet
256 1792 m 1,0,-1
 512 1792 l 1,1,-1
 512 1664 l 1,2,-1
 256 1664 l 1,3,-1
 256 1792 l 1,0,-1
128 1664 m 1,4,-1
 256 1664 l 1,5,-1
 256 640 l 1,6,-1
 128 640 l 1,7,-1
 128 1664 l 1,4,-1
0 1280 m 1,8,-1
 128 1280 l 1,9,-1
 128 1152 l 1,10,-1
 0 1152 l 1,11,-1
 0 1280 l 1,8,-1
256 1280 m 1,12,-1
 384 1280 l 1,13,-1
 384 1152 l 1,14,-1
 256 1152 l 1,15,-1
 256 1280 l 1,12,-1
0 640 m 1,16,-1
 128 640 l 1,17,-1
 128 512 l 1,18,-1
 0 512 l 1,19,-1
 0 640 l 1,16,-1
256 640 m 1,20,-1
 640 640 l 1,21,-1
 640 512 l 1,22,-1
 256 512 l 1,23,-1
 256 640 l 1,20,-1
EndSplineSet
EndChar

StartChar: currency
Encoding: 164 164 100
Width: 1152
Flags: W
LayerCount: 2
Fore
SplineSet
0 1664 m 1,0,-1
 128 1664 l 1,1,-1
 128 1536 l 1,2,-1
 0 1536 l 1,3,-1
 0 1664 l 1,0,-1
896 1664 m 1,4,-1
 1024 1664 l 1,5,-1
 1024 1536 l 1,6,-1
 896 1536 l 1,7,-1
 896 1664 l 1,4,-1
128 1536 m 1,8,-1
 256 1536 l 1,9,-1
 256 1408 l 1,10,-1
 128 1408 l 1,11,-1
 128 1536 l 1,8,-1
384 1536 m 1,12,-1
 640 1536 l 1,13,-1
 640 1408 l 1,14,-1
 384 1408 l 1,15,-1
 384 1536 l 1,12,-1
768 1536 m 1,16,-1
 896 1536 l 1,17,-1
 896 1408 l 1,18,-1
 768 1408 l 1,19,-1
 768 1536 l 1,16,-1
256 1408 m 1,20,-1
 384 1408 l 1,21,-1
 384 1280 l 1,22,-1
 256 1280 l 1,23,-1
 256 1408 l 1,20,-1
640 1408 m 1,24,-1
 768 1408 l 1,25,-1
 768 1280 l 1,26,-1
 640 1280 l 1,27,-1
 640 1408 l 1,24,-1
128 1280 m 1,28,-1
 256 1280 l 1,29,-1
 256 896 l 1,30,-1
 128 896 l 1,31,-1
 128 1280 l 1,28,-1
768 1280 m 1,32,-1
 896 1280 l 1,33,-1
 896 896 l 1,34,-1
 768 896 l 1,35,-1
 768 1280 l 1,32,-1
256 896 m 1,36,-1
 384 896 l 1,37,-1
 384 768 l 1,38,-1
 256 768 l 1,39,-1
 256 896 l 1,36,-1
640 896 m 1,40,-1
 768 896 l 1,41,-1
 768 768 l 1,42,-1
 640 768 l 1,43,-1
 640 896 l 1,40,-1
128 768 m 1,44,-1
 256 768 l 1,45,-1
 256 640 l 1,46,-1
 128 640 l 1,47,-1
 128 768 l 1,44,-1
384 768 m 1,48,-1
 640 768 l 1,49,-1
 640 640 l 1,50,-1
 384 640 l 1,51,-1
 384 768 l 1,48,-1
768 768 m 1,52,-1
 896 768 l 1,53,-1
 896 640 l 1,54,-1
 768 640 l 1,55,-1
 768 768 l 1,52,-1
0 640 m 1,56,-1
 128 640 l 1,57,-1
 128 512 l 1,58,-1
 0 512 l 1,59,-1
 0 640 l 1,56,-1
896 640 m 1,60,-1
 1024 640 l 1,61,-1
 1024 512 l 1,62,-1
 896 512 l 1,63,-1
 896 640 l 1,60,-1
EndSplineSet
EndChar

StartChar: yen
Encoding: 165 165 101
Width: 1024
Flags: W
LayerCount: 2
Fore
SplineSet
0 1792 m 1,0,-1
 128 1792 l 1,1,-1
 128 1536 l 1,2,-1
 0 1536 l 1,3,-1
 0 1792 l 1,0,-1
768 1792 m 1,4,-1
 896 1792 l 1,5,-1
 896 1536 l 1,6,-1
 768 1536 l 1,7,-1
 768 1792 l 1,4,-1
128 1536 m 1,8,-1
 256 1536 l 1,9,-1
 256 1408 l 1,10,-1
 128 1408 l 1,11,-1
 128 1536 l 1,8,-1
640 1536 m 1,12,-1
 768 1536 l 1,13,-1
 768 1408 l 1,14,-1
 640 1408 l 1,15,-1
 640 1536 l 1,12,-1
256 1408 m 1,16,-1
 384 1408 l 1,17,-1
 384 1280 l 1,18,-1
 256 1280 l 1,19,-1
 256 1408 l 1,16,-1
512 1408 m 1,20,-1
 640 1408 l 1,21,-1
 640 1280 l 1,22,-1
 512 1280 l 1,23,-1
 512 1408 l 1,20,-1
384 1280 m 1,24,-1
 512 1280 l 1,25,-1
 512 512 l 1,26,-1
 384 512 l 1,27,-1
 384 1280 l 1,24,-1
128 1152 m 1,28,-1
 384 1152 l 1,29,-1
 384 1024 l 1,30,-1
 128 1024 l 1,31,-1
 128 1152 l 1,28,-1
512 1152 m 1,32,-1
 768 1152 l 1,33,-1
 768 1024 l 1,34,-1
 512 1024 l 1,35,-1
 512 1152 l 1,32,-1
128 896 m 1,36,-1
 384 896 l 1,37,-1
 384 768 l 1,38,-1
 128 768 l 1,39,-1
 128 896 l 1,36,-1
512 896 m 1,40,-1
 768 896 l 1,41,-1
 768 768 l 1,42,-1
 512 768 l 1,43,-1
 512 896 l 1,40,-1
EndSplineSet
EndChar

StartChar: brokenbar
Encoding: 166 166 102
Width: 256
Flags: W
LayerCount: 2
Fore
SplineSet
0 1792 m 1,0,-1
 128 1792 l 1,1,-1
 128 512 l 1,2,-1
 0 512 l 1,3,-1
 0 1792 l 1,0,-1
EndSplineSet
EndChar

StartChar: section
Encoding: 167 167 103
Width: 896
Flags: W
LayerCount: 2
Fore
SplineSet
128 1792 m 1,0,-1
 640 1792 l 1,1,-1
 640 1664 l 1,2,-1
 128 1664 l 1,3,-1
 128 1792 l 1,0,-1
0 1664 m 1,4,-1
 128 1664 l 1,5,-1
 128 1408 l 1,6,-1
 0 1408 l 1,7,-1
 0 1664 l 1,4,-1
640 1664 m 1,8,-1
 768 1664 l 1,9,-1
 768 1536 l 1,10,-1
 640 1536 l 1,11,-1
 640 1664 l 1,8,-1
128 1408 m 1,12,-1
 640 1408 l 1,13,-1
 640 1280 l 1,14,-1
 128 1280 l 1,15,-1
 128 1408 l 1,12,-1
0 1280 m 1,16,-1
 128 1280 l 1,17,-1
 128 1024 l 1,18,-1
 0 1024 l 1,19,-1
 0 1280 l 1,16,-1
640 1280 m 1,20,-1
 768 1280 l 1,21,-1
 768 1024 l 1,22,-1
 640 1024 l 1,23,-1
 640 1280 l 1,20,-1
128 1024 m 1,24,-1
 640 1024 l 1,25,-1
 640 896 l 1,26,-1
 128 896 l 1,27,-1
 128 1024 l 1,24,-1
640 896 m 1,28,-1
 768 896 l 1,29,-1
 768 640 l 1,30,-1
 640 640 l 1,31,-1
 640 896 l 1,28,-1
0 768 m 1,32,-1
 128 768 l 1,33,-1
 128 640 l 1,34,-1
 0 640 l 1,35,-1
 0 768 l 1,32,-1
128 640 m 1,36,-1
 640 640 l 1,37,-1
 640 512 l 1,38,-1
 128 512 l 1,39,-1
 128 640 l 1,36,-1
EndSplineSet
EndChar

StartChar: dieresis
Encoding: 168 168 104
Width: 640
Flags: W
LayerCount: 2
Fore
SplineSet
0 1792 m 1,0,-1
 128 1792 l 1,1,-1
 128 1536 l 1,2,-1
 0 1536 l 1,3,-1
 0 1792 l 1,0,-1
384 1792 m 1,4,-1
 512 1792 l 1,5,-1
 512 1536 l 1,6,-1
 384 1536 l 1,7,-1
 384 1792 l 1,4,-1
EndSplineSet
EndChar

StartChar: copyright
Encoding: 169 169 105
Width: 1152
Flags: W
LayerCount: 2
Fore
SplineSet
256 1664 m 1,0,-1
 768 1664 l 1,1,-1
 768 1536 l 1,2,-1
 256 1536 l 1,3,-1
 256 1664 l 1,0,-1
128 1536 m 1,4,-1
 256 1536 l 1,5,-1
 256 1408 l 1,6,-1
 128 1408 l 1,7,-1
 128 1536 l 1,4,-1
768 1536 m 1,8,-1
 896 1536 l 1,9,-1
 896 1408 l 1,10,-1
 768 1408 l 1,11,-1
 768 1536 l 1,8,-1
0 1408 m 1,12,-1
 128 1408 l 1,13,-1
 128 768 l 1,14,-1
 0 768 l 1,15,-1
 0 1408 l 1,12,-1
384 1408 m 1,16,-1
 640 1408 l 1,17,-1
 640 1280 l 1,18,-1
 384 1280 l 1,19,-1
 384 1408 l 1,16,-1
896 1408 m 1,20,-1
 1024 1408 l 1,21,-1
 1024 768 l 1,22,-1
 896 768 l 1,23,-1
 896 1408 l 1,20,-1
256 1280 m 1,24,-1
 384 1280 l 1,25,-1
 384 896 l 1,26,-1
 256 896 l 1,27,-1
 256 1280 l 1,24,-1
640 1280 m 1,28,-1
 768 1280 l 1,29,-1
 768 1152 l 1,30,-1
 640 1152 l 1,31,-1
 640 1280 l 1,28,-1
640 1024 m 1,32,-1
 768 1024 l 1,33,-1
 768 896 l 1,34,-1
 640 896 l 1,35,-1
 640 1024 l 1,32,-1
384 896 m 1,36,-1
 640 896 l 1,37,-1
 640 768 l 1,38,-1
 384 768 l 1,39,-1
 384 896 l 1,36,-1
128 768 m 1,40,-1
 256 768 l 1,41,-1
 256 640 l 1,42,-1
 128 640 l 1,43,-1
 128 768 l 1,40,-1
768 768 m 1,44,-1
 896 768 l 1,45,-1
 896 640 l 1,46,-1
 768 640 l 1,47,-1
 768 768 l 1,44,-1
256 640 m 1,48,-1
 768 640 l 1,49,-1
 768 512 l 1,50,-1
 256 512 l 1,51,-1
 256 640 l 1,48,-1
EndSplineSet
EndChar

StartChar: ordfeminine
Encoding: 170 170 106
Width: 512
Flags: W
LayerCount: 2
Fore
SplineSet
0 1792 m 1,0,-1
 384 1792 l 1,1,-1
 384 1664 l 1,2,-1
 0 1664 l 1,3,-1
 0 1792 l 1,0,-1
256 1664 m 1,4,-1
 384 1664 l 1,5,-1
 384 1280 l 1,6,-1
 256 1280 l 1,7,-1
 256 1664 l 1,4,-1
0 1536 m 1,8,-1
 256 1536 l 1,9,-1
 256 1408 l 1,10,-1
 0 1408 l 1,11,-1
 0 1536 l 1,8,-1
0 1408 m 1,12,-1
 256 1408 l 1,13,-1
 256 1280 l 1,14,-1
 0 1280 l 1,15,-1
 0 1408 l 1,12,-1
0 1152 m 1,16,-1
 384 1152 l 1,17,-1
 384 1024 l 1,18,-1
 0 1024 l 1,19,-1
 0 1152 l 1,16,-1
EndSplineSet
EndChar

StartChar: guillemotleft
Encoding: 171 171 107
Width: 1024
Flags: W
LayerCount: 2
Fore
SplineSet
384 1536 m 1,0,-1
 512 1536 l 1,1,-1
 512 1408 l 1,2,-1
 384 1408 l 1,3,-1
 384 1536 l 1,0,-1
768 1536 m 1,4,-1
 896 1536 l 1,5,-1
 896 1408 l 1,6,-1
 768 1408 l 1,7,-1
 768 1536 l 1,4,-1
256 1408 m 1,8,-1
 384 1408 l 1,9,-1
 384 1280 l 1,10,-1
 256 1280 l 1,11,-1
 256 1408 l 1,8,-1
640 1408 m 1,12,-1
 768 1408 l 1,13,-1
 768 1280 l 1,14,-1
 640 1280 l 1,15,-1
 640 1408 l 1,12,-1
128 1280 m 1,16,-1
 256 1280 l 1,17,-1
 256 1152 l 1,18,-1
 128 1152 l 1,19,-1
 128 1280 l 1,16,-1
512 1280 m 1,20,-1
 640 1280 l 1,21,-1
 640 1152 l 1,22,-1
 512 1152 l 1,23,-1
 512 1280 l 1,20,-1
0 1152 m 1,24,-1
 128 1152 l 1,25,-1
 128 1024 l 1,26,-1
 0 1024 l 1,27,-1
 0 1152 l 1,24,-1
384 1152 m 1,28,-1
 512 1152 l 1,29,-1
 512 1024 l 1,30,-1
 384 1024 l 1,31,-1
 384 1152 l 1,28,-1
128 1024 m 1,32,-1
 256 1024 l 1,33,-1
 256 896 l 1,34,-1
 128 896 l 1,35,-1
 128 1024 l 1,32,-1
512 1024 m 1,36,-1
 640 1024 l 1,37,-1
 640 896 l 1,38,-1
 512 896 l 1,39,-1
 512 1024 l 1,36,-1
256 896 m 1,40,-1
 384 896 l 1,41,-1
 384 768 l 1,42,-1
 256 768 l 1,43,-1
 256 896 l 1,40,-1
640 896 m 1,44,-1
 768 896 l 1,45,-1
 768 768 l 1,46,-1
 640 768 l 1,47,-1
 640 896 l 1,44,-1
384 768 m 1,48,-1
 512 768 l 1,49,-1
 512 640 l 1,50,-1
 384 640 l 1,51,-1
 384 768 l 1,48,-1
768 768 m 1,52,-1
 896 768 l 1,53,-1
 896 640 l 1,54,-1
 768 640 l 1,55,-1
 768 768 l 1,52,-1
EndSplineSet
EndChar

StartChar: logicalnot
Encoding: 172 172 108
Width: 896
Flags: W
LayerCount: 2
Fore
SplineSet
0 1280 m 1,0,-1
 768 1280 l 1,1,-1
 768 1152 l 1,2,-1
 0 1152 l 1,3,-1
 0 1280 l 1,0,-1
640 1152 m 1,4,-1
 768 1152 l 1,5,-1
 768 640 l 1,6,-1
 640 640 l 1,7,-1
 640 1152 l 1,4,-1
EndSplineSet
EndChar

StartChar: registered
Encoding: 174 174 109
Width: 1152
Flags: W
LayerCount: 2
Fore
SplineSet
256 1664 m 1,0,-1
 768 1664 l 1,1,-1
 768 1536 l 1,2,-1
 256 1536 l 1,3,-1
 256 1664 l 1,0,-1
128 1536 m 1,4,-1
 256 1536 l 1,5,-1
 256 1408 l 1,6,-1
 128 1408 l 1,7,-1
 128 1536 l 1,4,-1
768 1536 m 1,8,-1
 896 1536 l 1,9,-1
 896 1408 l 1,10,-1
 768 1408 l 1,11,-1
 768 1536 l 1,8,-1
0 1408 m 1,12,-1
 128 1408 l 1,13,-1
 128 768 l 1,14,-1
 0 768 l 1,15,-1
 0 1408 l 1,12,-1
256 1408 m 1,16,-1
 384 1408 l 1,17,-1
 384 768 l 1,18,-1
 256 768 l 1,19,-1
 256 1408 l 1,16,-1
384 1408 m 1,20,-1
 640 1408 l 1,21,-1
 640 1280 l 1,22,-1
 384 1280 l 1,23,-1
 384 1408 l 1,20,-1
896 1408 m 1,24,-1
 1024 1408 l 1,25,-1
 1024 768 l 1,26,-1
 896 768 l 1,27,-1
 896 1408 l 1,24,-1
640 1280 m 1,28,-1
 768 1280 l 1,29,-1
 768 1152 l 1,30,-1
 640 1152 l 1,31,-1
 640 1280 l 1,28,-1
384 1152 m 1,32,-1
 640 1152 l 1,33,-1
 640 1024 l 1,34,-1
 384 1024 l 1,35,-1
 384 1152 l 1,32,-1
640 1024 m 1,36,-1
 768 1024 l 1,37,-1
 768 768 l 1,38,-1
 640 768 l 1,39,-1
 640 1024 l 1,36,-1
128 768 m 1,40,-1
 256 768 l 1,41,-1
 256 640 l 1,42,-1
 128 640 l 1,43,-1
 128 768 l 1,40,-1
768 768 m 1,44,-1
 896 768 l 1,45,-1
 896 640 l 1,46,-1
 768 640 l 1,47,-1
 768 768 l 1,44,-1
256 640 m 1,48,-1
 768 640 l 1,49,-1
 768 512 l 1,50,-1
 256 512 l 1,51,-1
 256 640 l 1,48,-1
EndSplineSet
EndChar

StartChar: macron
Encoding: 175 175 110
Width: 768
Flags: W
LayerCount: 2
Fore
SplineSet
0 1664 m 1,0,-1
 640 1664 l 1,1,-1
 640 1536 l 1,2,-1
 0 1536 l 1,3,-1
 0 1664 l 1,0,-1
EndSplineSet
EndChar

StartChar: degree
Encoding: 176 176 111
Width: 640
Flags: W
LayerCount: 2
Fore
SplineSet
128 1792 m 1,0,-1
 384 1792 l 1,1,-1
 384 1664 l 1,2,-1
 128 1664 l 1,3,-1
 128 1792 l 1,0,-1
0 1664 m 1,4,-1
 128 1664 l 1,5,-1
 128 1408 l 1,6,-1
 0 1408 l 1,7,-1
 0 1664 l 1,4,-1
384 1664 m 1,8,-1
 512 1664 l 1,9,-1
 512 1408 l 1,10,-1
 384 1408 l 1,11,-1
 384 1664 l 1,8,-1
128 1408 m 1,12,-1
 384 1408 l 1,13,-1
 384 1280 l 1,14,-1
 128 1280 l 1,15,-1
 128 1408 l 1,12,-1
EndSplineSet
EndChar

StartChar: plusminus
Encoding: 177 177 112
Width: 768
Flags: W
LayerCount: 2
Fore
SplineSet
256 1408 m 1,0,-1
 384 1408 l 1,1,-1
 384 768 l 1,2,-1
 256 768 l 1,3,-1
 256 1408 l 1,0,-1
0 1152 m 1,4,-1
 256 1152 l 1,5,-1
 256 1024 l 1,6,-1
 0 1024 l 1,7,-1
 0 1152 l 1,4,-1
384 1152 m 1,8,-1
 640 1152 l 1,9,-1
 640 1024 l 1,10,-1
 384 1024 l 1,11,-1
 384 1152 l 1,8,-1
0 640 m 1,12,-1
 640 640 l 1,13,-1
 640 512 l 1,14,-1
 0 512 l 1,15,-1
 0 640 l 1,12,-1
EndSplineSet
EndChar

StartChar: uni00B2
Encoding: 178 178 113
Width: 640
Flags: W
LayerCount: 2
Fore
SplineSet
128 1792 m 1,0,-1
 384 1792 l 1,1,-1
 384 1664 l 1,2,-1
 128 1664 l 1,3,-1
 128 1792 l 1,0,-1
0 1664 m 1,4,-1
 128 1664 l 1,5,-1
 128 1536 l 1,6,-1
 0 1536 l 1,7,-1
 0 1664 l 1,4,-1
384 1664 m 1,8,-1
 512 1664 l 1,9,-1
 512 1536 l 1,10,-1
 384 1536 l 1,11,-1
 384 1664 l 1,8,-1
256 1536 m 1,12,-1
 384 1536 l 1,13,-1
 384 1408 l 1,14,-1
 256 1408 l 1,15,-1
 256 1536 l 1,12,-1
128 1408 m 1,16,-1
 256 1408 l 1,17,-1
 256 1152 l 1,18,-1
 128 1152 l 1,19,-1
 128 1408 l 1,16,-1
0 1280 m 1,20,-1
 128 1280 l 1,21,-1
 128 1152 l 1,22,-1
 0 1152 l 1,23,-1
 0 1280 l 1,20,-1
256 1280 m 1,24,-1
 512 1280 l 1,25,-1
 512 1152 l 1,26,-1
 256 1152 l 1,27,-1
 256 1280 l 1,24,-1
EndSplineSet
EndChar

StartChar: uni00B3
Encoding: 179 179 114
Width: 640
Flags: W
LayerCount: 2
Fore
SplineSet
128 1792 m 1,0,-1
 384 1792 l 1,1,-1
 384 1664 l 1,2,-1
 128 1664 l 1,3,-1
 128 1792 l 1,0,-1
0 1664 m 1,4,-1
 128 1664 l 1,5,-1
 128 1536 l 1,6,-1
 0 1536 l 1,7,-1
 0 1664 l 1,4,-1
384 1664 m 1,8,-1
 512 1664 l 1,9,-1
 512 1536 l 1,10,-1
 384 1536 l 1,11,-1
 384 1664 l 1,8,-1
256 1536 m 1,12,-1
 384 1536 l 1,13,-1
 384 1408 l 1,14,-1
 256 1408 l 1,15,-1
 256 1536 l 1,12,-1
0 1408 m 1,16,-1
 128 1408 l 1,17,-1
 128 1280 l 1,18,-1
 0 1280 l 1,19,-1
 0 1408 l 1,16,-1
384 1408 m 1,20,-1
 512 1408 l 1,21,-1
 512 1280 l 1,22,-1
 384 1280 l 1,23,-1
 384 1408 l 1,20,-1
128 1280 m 1,24,-1
 384 1280 l 1,25,-1
 384 1152 l 1,26,-1
 128 1152 l 1,27,-1
 128 1280 l 1,24,-1
EndSplineSet
EndChar

StartChar: acute
Encoding: 180 180 115
Width: 384
Flags: W
LayerCount: 2
Fore
SplineSet
128 1920 m 1,0,-1
 256 1920 l 1,1,-1
 256 1536 l 1,2,-1
 128 1536 l 1,3,-1
 128 1920 l 1,0,-1
0 1536 m 1,4,-1
 128 1536 l 1,5,-1
 128 1408 l 1,6,-1
 0 1408 l 1,7,-1
 0 1536 l 1,4,-1
EndSplineSet
EndChar

StartChar: mu
Encoding: 181 181 116
Width: 896
Flags: W
LayerCount: 2
Fore
SplineSet
0 1408 m 1,0,-1
 128 1408 l 1,1,-1
 128 128 l 1,2,-1
 0 128 l 1,3,-1
 0 1408 l 1,0,-1
512 1408 m 1,4,-1
 640 1408 l 1,5,-1
 640 640 l 1,6,-1
 512 640 l 1,7,-1
 512 1408 l 1,4,-1
128 640 m 1,8,-1
 512 640 l 1,9,-1
 512 512 l 1,10,-1
 128 512 l 1,11,-1
 128 640 l 1,8,-1
640 640 m 1,12,-1
 768 640 l 1,13,-1
 768 512 l 1,14,-1
 640 512 l 1,15,-1
 640 640 l 1,12,-1
EndSplineSet
EndChar

StartChar: paragraph
Encoding: 182 182 117
Width: 1024
Flags: W
LayerCount: 2
Fore
SplineSet
0 1408 m 1,0,-1
 896 1408 l 1,1,-1
 896 1280 l 1,2,-1
 0 1280 l 1,3,-1
 0 1408 l 1,0,-1
128 1280 m 1,4,-1
 256 1280 l 1,5,-1
 256 512 l 1,6,-1
 128 512 l 1,7,-1
 128 1280 l 1,4,-1
640 1280 m 1,8,-1
 768 1280 l 1,9,-1
 768 512 l 1,10,-1
 640 512 l 1,11,-1
 640 1280 l 1,8,-1
EndSplineSet
EndChar

StartChar: periodcentered
Encoding: 183 183 118
Width: 256
Flags: W
LayerCount: 2
Fore
SplineSet
0 1280 m 1,0,-1
 128 1280 l 1,1,-1
 128 1024 l 1,2,-1
 0 1024 l 1,3,-1
 0 1280 l 1,0,-1
EndSplineSet
EndChar

StartChar: cedilla
Encoding: 184 184 119
Width: 512
Flags: W
LayerCount: 2
Fore
SplineSet
128 768 m 1,0,-1
 256 768 l 1,1,-1
 256 640 l 1,2,-1
 128 640 l 1,3,-1
 128 768 l 1,0,-1
256 640 m 1,4,-1
 384 640 l 1,5,-1
 384 512 l 1,6,-1
 256 512 l 1,7,-1
 256 640 l 1,4,-1
0 512 m 1,8,-1
 256 512 l 1,9,-1
 256 384 l 1,10,-1
 0 384 l 1,11,-1
 0 512 l 1,8,-1
EndSplineSet
EndChar

StartChar: uni00B9
Encoding: 185 185 120
Width: 512
Flags: W
LayerCount: 2
Fore
SplineSet
128 1792 m 1,0,-1
 384 1792 l 1,1,-1
 384 1664 l 1,2,-1
 128 1664 l 1,3,-1
 128 1792 l 1,0,-1
0 1664 m 1,4,-1
 128 1664 l 1,5,-1
 128 1536 l 1,6,-1
 0 1536 l 1,7,-1
 0 1664 l 1,4,-1
256 1664 m 1,8,-1
 384 1664 l 1,9,-1
 384 1152 l 1,10,-1
 256 1152 l 1,11,-1
 256 1664 l 1,8,-1
EndSplineSet
EndChar

StartChar: ordmasculine
Encoding: 186 186 121
Width: 640
Flags: W
LayerCount: 2
Fore
SplineSet
128 1792 m 1,0,-1
 384 1792 l 1,1,-1
 384 1664 l 1,2,-1
 128 1664 l 1,3,-1
 128 1792 l 1,0,-1
0 1664 m 1,4,-1
 128 1664 l 1,5,-1
 128 1408 l 1,6,-1
 0 1408 l 1,7,-1
 0 1664 l 1,4,-1
384 1664 m 1,8,-1
 512 1664 l 1,9,-1
 512 1408 l 1,10,-1
 384 1408 l 1,11,-1
 384 1664 l 1,8,-1
128 1408 m 1,12,-1
 384 1408 l 1,13,-1
 384 1280 l 1,14,-1
 128 1280 l 1,15,-1
 128 1408 l 1,12,-1
0 1152 m 1,16,-1
 512 1152 l 1,17,-1
 512 1024 l 1,18,-1
 0 1024 l 1,19,-1
 0 1152 l 1,16,-1
EndSplineSet
EndChar

StartChar: guillemotright
Encoding: 187 187 122
Width: 1024
Flags: W
LayerCount: 2
Fore
SplineSet
0 1536 m 1,0,-1
 128 1536 l 1,1,-1
 128 1408 l 1,2,-1
 0 1408 l 1,3,-1
 0 1536 l 1,0,-1
384 1536 m 1,4,-1
 512 1536 l 1,5,-1
 512 1408 l 1,6,-1
 384 1408 l 1,7,-1
 384 1536 l 1,4,-1
128 1408 m 1,8,-1
 256 1408 l 1,9,-1
 256 1280 l 1,10,-1
 128 1280 l 1,11,-1
 128 1408 l 1,8,-1
512 1408 m 1,12,-1
 640 1408 l 1,13,-1
 640 1280 l 1,14,-1
 512 1280 l 1,15,-1
 512 1408 l 1,12,-1
256 1280 m 1,16,-1
 384 1280 l 1,17,-1
 384 1152 l 1,18,-1
 256 1152 l 1,19,-1
 256 1280 l 1,16,-1
640 1280 m 1,20,-1
 768 1280 l 1,21,-1
 768 1152 l 1,22,-1
 640 1152 l 1,23,-1
 640 1280 l 1,20,-1
384 1152 m 1,24,-1
 512 1152 l 1,25,-1
 512 1024 l 1,26,-1
 384 1024 l 1,27,-1
 384 1152 l 1,24,-1
768 1152 m 1,28,-1
 896 1152 l 1,29,-1
 896 1024 l 1,30,-1
 768 1024 l 1,31,-1
 768 1152 l 1,28,-1
256 1024 m 1,32,-1
 384 1024 l 1,33,-1
 384 896 l 1,34,-1
 256 896 l 1,35,-1
 256 1024 l 1,32,-1
640 1024 m 1,36,-1
 768 1024 l 1,37,-1
 768 896 l 1,38,-1
 640 896 l 1,39,-1
 640 1024 l 1,36,-1
128 896 m 1,40,-1
 256 896 l 1,41,-1
 256 768 l 1,42,-1
 128 768 l 1,43,-1
 128 896 l 1,40,-1
512 896 m 1,44,-1
 640 896 l 1,45,-1
 640 768 l 1,46,-1
 512 768 l 1,47,-1
 512 896 l 1,44,-1
0 768 m 1,48,-1
 128 768 l 1,49,-1
 128 640 l 1,50,-1
 0 640 l 1,51,-1
 0 768 l 1,48,-1
384 768 m 1,52,-1
 512 768 l 1,53,-1
 512 640 l 1,54,-1
 384 640 l 1,55,-1
 384 768 l 1,52,-1
EndSplineSet
EndChar

StartChar: onequarter
Encoding: 188 188 123
Width: 896
Flags: W
LayerCount: 2
Fore
SplineSet
0 1920 m 1,0,-1
 128 1920 l 1,1,-1
 128 1408 l 1,2,-1
 0 1408 l 1,3,-1
 0 1920 l 1,0,-1
512 1792 m 1,4,-1
 640 1792 l 1,5,-1
 640 1536 l 1,6,-1
 512 1536 l 1,7,-1
 512 1792 l 1,4,-1
384 1536 m 1,8,-1
 512 1536 l 1,9,-1
 512 1280 l 1,10,-1
 384 1280 l 1,11,-1
 384 1536 l 1,8,-1
256 1280 m 1,12,-1
 384 1280 l 1,13,-1
 384 1024 l 1,14,-1
 256 1024 l 1,15,-1
 256 1280 l 1,12,-1
640 1152 m 1,16,-1
 768 1152 l 1,17,-1
 768 1024 l 1,18,-1
 640 1024 l 1,19,-1
 640 1152 l 1,16,-1
128 1024 m 1,20,-1
 256 1024 l 1,21,-1
 256 768 l 1,22,-1
 128 768 l 1,23,-1
 128 1024 l 1,20,-1
512 1024 m 1,24,-1
 640 1024 l 1,25,-1
 640 896 l 1,26,-1
 512 896 l 1,27,-1
 512 1024 l 1,24,-1
384 896 m 1,28,-1
 512 896 l 1,29,-1
 512 640 l 1,30,-1
 384 640 l 1,31,-1
 384 896 l 1,28,-1
0 768 m 1,32,-1
 128 768 l 1,33,-1
 128 512 l 1,34,-1
 0 512 l 1,35,-1
 0 768 l 1,32,-1
512 768 m 1,36,-1
 768 768 l 1,37,-1
 768 640 l 1,38,-1
 512 640 l 1,39,-1
 512 768 l 1,36,-1
640 640 m 1,40,-1
 768 640 l 1,41,-1
 768 512 l 1,42,-1
 640 512 l 1,43,-1
 640 640 l 1,40,-1
EndSplineSet
EndChar

StartChar: onehalf
Encoding: 189 189 124
Width: 896
Flags: W
LayerCount: 2
Fore
SplineSet
0 1920 m 1,0,-1
 128 1920 l 1,1,-1
 128 1408 l 1,2,-1
 0 1408 l 1,3,-1
 0 1920 l 1,0,-1
512 1792 m 1,4,-1
 640 1792 l 1,5,-1
 640 1536 l 1,6,-1
 512 1536 l 1,7,-1
 512 1792 l 1,4,-1
384 1536 m 1,8,-1
 512 1536 l 1,9,-1
 512 1280 l 1,10,-1
 384 1280 l 1,11,-1
 384 1536 l 1,8,-1
256 1280 m 1,12,-1
 384 1280 l 1,13,-1
 384 1024 l 1,14,-1
 256 1024 l 1,15,-1
 256 1280 l 1,12,-1
512 1152 m 1,16,-1
 768 1152 l 1,17,-1
 768 1024 l 1,18,-1
 512 1024 l 1,19,-1
 512 1152 l 1,16,-1
128 1024 m 1,20,-1
 256 1024 l 1,21,-1
 256 768 l 1,22,-1
 128 768 l 1,23,-1
 128 1024 l 1,20,-1
640 1024 m 1,24,-1
 768 1024 l 1,25,-1
 768 896 l 1,26,-1
 640 896 l 1,27,-1
 640 1024 l 1,24,-1
512 896 m 1,28,-1
 640 896 l 1,29,-1
 640 768 l 1,30,-1
 512 768 l 1,31,-1
 512 896 l 1,28,-1
0 768 m 1,32,-1
 128 768 l 1,33,-1
 128 512 l 1,34,-1
 0 512 l 1,35,-1
 0 768 l 1,32,-1
384 768 m 1,36,-1
 512 768 l 1,37,-1
 512 512 l 1,38,-1
 384 512 l 1,39,-1
 384 768 l 1,36,-1
512 640 m 1,40,-1
 768 640 l 1,41,-1
 768 512 l 1,42,-1
 512 512 l 1,43,-1
 512 640 l 1,40,-1
EndSplineSet
EndChar

StartChar: threequarters
Encoding: 190 190 125
Width: 896
Flags: W
LayerCount: 2
Fore
SplineSet
0 1920 m 1,0,-1
 256 1920 l 1,1,-1
 256 1792 l 1,2,-1
 0 1792 l 1,3,-1
 0 1920 l 1,0,-1
128 1792 m 1,4,-1
 256 1792 l 1,5,-1
 256 1280 l 1,6,-1
 128 1280 l 1,7,-1
 128 1792 l 1,4,-1
512 1792 m 1,8,-1
 640 1792 l 1,9,-1
 640 1536 l 1,10,-1
 512 1536 l 1,11,-1
 512 1792 l 1,8,-1
0 1664 m 1,12,-1
 128 1664 l 1,13,-1
 128 1536 l 1,14,-1
 0 1536 l 1,15,-1
 0 1664 l 1,12,-1
384 1536 m 1,16,-1
 512 1536 l 1,17,-1
 512 1280 l 1,18,-1
 384 1280 l 1,19,-1
 384 1536 l 1,16,-1
0 1408 m 1,20,-1
 128 1408 l 1,21,-1
 128 1280 l 1,22,-1
 0 1280 l 1,23,-1
 0 1408 l 1,20,-1
256 1280 m 1,24,-1
 384 1280 l 1,25,-1
 384 1024 l 1,26,-1
 256 1024 l 1,27,-1
 256 1280 l 1,24,-1
640 1152 m 1,28,-1
 768 1152 l 1,29,-1
 768 1024 l 1,30,-1
 640 1024 l 1,31,-1
 640 1152 l 1,28,-1
128 1024 m 1,32,-1
 256 1024 l 1,33,-1
 256 768 l 1,34,-1
 128 768 l 1,35,-1
 128 1024 l 1,32,-1
512 1024 m 1,36,-1
 640 1024 l 1,37,-1
 640 896 l 1,38,-1
 512 896 l 1,39,-1
 512 1024 l 1,36,-1
384 896 m 1,40,-1
 512 896 l 1,41,-1
 512 640 l 1,42,-1
 384 640 l 1,43,-1
 384 896 l 1,40,-1
0 768 m 1,44,-1
 128 768 l 1,45,-1
 128 512 l 1,46,-1
 0 512 l 1,47,-1
 0 768 l 1,44,-1
512 768 m 1,48,-1
 768 768 l 1,49,-1
 768 640 l 1,50,-1
 512 640 l 1,51,-1
 512 768 l 1,48,-1
640 640 m 1,52,-1
 768 640 l 1,53,-1
 768 512 l 1,54,-1
 640 512 l 1,55,-1
 640 640 l 1,52,-1
EndSplineSet
EndChar

StartChar: questiondown
Encoding: 191 191 126
Width: 896
Flags: W
LayerCount: 2
Fore
SplineSet
384 1792 m 1,0,-1
 512 1792 l 1,1,-1
 512 1536 l 1,2,-1
 384 1536 l 1,3,-1
 384 1792 l 1,0,-1
384 1408 m 1,4,-1
 512 1408 l 1,5,-1
 512 1280 l 1,6,-1
 384 1280 l 1,7,-1
 384 1408 l 1,4,-1
256 1280 m 1,8,-1
 384 1280 l 1,9,-1
 384 1152 l 1,10,-1
 256 1152 l 1,11,-1
 256 1280 l 1,8,-1
128 1152 m 1,12,-1
 256 1152 l 1,13,-1
 256 1024 l 1,14,-1
 128 1024 l 1,15,-1
 128 1152 l 1,12,-1
0 1024 m 1,16,-1
 128 1024 l 1,17,-1
 128 640 l 1,18,-1
 0 640 l 1,19,-1
 0 1024 l 1,16,-1
640 896 m 1,20,-1
 768 896 l 1,21,-1
 768 640 l 1,22,-1
 640 640 l 1,23,-1
 640 896 l 1,20,-1
128 640 m 1,24,-1
 640 640 l 1,25,-1
 640 512 l 1,26,-1
 128 512 l 1,27,-1
 128 640 l 1,24,-1
EndSplineSet
EndChar

StartChar: Agrave
Encoding: 192 192 127
Width: 896
Flags: W
LayerCount: 2
Fore
SplineSet
256 2048 m 1,0,-1
 384 2048 l 1,1,-1
 384 1920 l 1,2,-1
 256 1920 l 1,3,-1
 256 2048 l 1,0,-1
384 1920 m 1,4,-1
 512 1920 l 1,5,-1
 512 1792 l 1,6,-1
 384 1792 l 1,7,-1
 384 1920 l 1,4,-1
128 1664 m 1,8,-1
 640 1664 l 1,9,-1
 640 1536 l 1,10,-1
 128 1536 l 1,11,-1
 128 1664 l 1,8,-1
0 1536 m 1,12,-1
 128 1536 l 1,13,-1
 128 512 l 1,14,-1
 0 512 l 1,15,-1
 0 1536 l 1,12,-1
640 1536 m 1,16,-1
 768 1536 l 1,17,-1
 768 512 l 1,18,-1
 640 512 l 1,19,-1
 640 1536 l 1,16,-1
128 1152 m 1,20,-1
 640 1152 l 1,21,-1
 640 1024 l 1,22,-1
 128 1024 l 1,23,-1
 128 1152 l 1,20,-1
EndSplineSet
EndChar

StartChar: Aacute
Encoding: 193 193 128
Width: 896
Flags: W
LayerCount: 2
Fore
SplineSet
512 2048 m 1,0,-1
 640 2048 l 1,1,-1
 640 1920 l 1,2,-1
 512 1920 l 1,3,-1
 512 2048 l 1,0,-1
384 1920 m 1,4,-1
 512 1920 l 1,5,-1
 512 1792 l 1,6,-1
 384 1792 l 1,7,-1
 384 1920 l 1,4,-1
128 1664 m 1,8,-1
 640 1664 l 1,9,-1
 640 1536 l 1,10,-1
 128 1536 l 1,11,-1
 128 1664 l 1,8,-1
0 1536 m 1,12,-1
 128 1536 l 1,13,-1
 128 512 l 1,14,-1
 0 512 l 1,15,-1
 0 1536 l 1,12,-1
640 1536 m 1,16,-1
 768 1536 l 1,17,-1
 768 512 l 1,18,-1
 640 512 l 1,19,-1
 640 1536 l 1,16,-1
128 1152 m 1,20,-1
 640 1152 l 1,21,-1
 640 1024 l 1,22,-1
 128 1024 l 1,23,-1
 128 1152 l 1,20,-1
EndSplineSet
EndChar

StartChar: Acircumflex
Encoding: 194 194 129
Width: 896
Flags: W
LayerCount: 2
Fore
SplineSet
256 2048 m 1,0,-1
 512 2048 l 1,1,-1
 512 1920 l 1,2,-1
 256 1920 l 1,3,-1
 256 2048 l 1,0,-1
128 1920 m 1,4,-1
 256 1920 l 1,5,-1
 256 1792 l 1,6,-1
 128 1792 l 1,7,-1
 128 1920 l 1,4,-1
512 1920 m 1,8,-1
 640 1920 l 1,9,-1
 640 1792 l 1,10,-1
 512 1792 l 1,11,-1
 512 1920 l 1,8,-1
128 1664 m 1,12,-1
 640 1664 l 1,13,-1
 640 1536 l 1,14,-1
 128 1536 l 1,15,-1
 128 1664 l 1,12,-1
0 1536 m 1,16,-1
 128 1536 l 1,17,-1
 128 512 l 1,18,-1
 0 512 l 1,19,-1
 0 1536 l 1,16,-1
640 1536 m 1,20,-1
 768 1536 l 1,21,-1
 768 512 l 1,22,-1
 640 512 l 1,23,-1
 640 1536 l 1,20,-1
128 1152 m 1,24,-1
 640 1152 l 1,25,-1
 640 1024 l 1,26,-1
 128 1024 l 1,27,-1
 128 1152 l 1,24,-1
EndSplineSet
EndChar

StartChar: Atilde
Encoding: 195 195 130
Width: 896
Flags: W
LayerCount: 2
Fore
SplineSet
256 2048 m 1,0,-1
 384 2048 l 1,1,-1
 384 1920 l 1,2,-1
 256 1920 l 1,3,-1
 256 2048 l 1,0,-1
512 2048 m 1,4,-1
 640 2048 l 1,5,-1
 640 1920 l 1,6,-1
 512 1920 l 1,7,-1
 512 2048 l 1,4,-1
128 1920 m 1,8,-1
 256 1920 l 1,9,-1
 256 1792 l 1,10,-1
 128 1792 l 1,11,-1
 128 1920 l 1,8,-1
384 1920 m 1,12,-1
 512 1920 l 1,13,-1
 512 1792 l 1,14,-1
 384 1792 l 1,15,-1
 384 1920 l 1,12,-1
128 1664 m 1,16,-1
 640 1664 l 1,17,-1
 640 1536 l 1,18,-1
 128 1536 l 1,19,-1
 128 1664 l 1,16,-1
0 1536 m 1,20,-1
 128 1536 l 1,21,-1
 128 512 l 1,22,-1
 0 512 l 1,23,-1
 0 1536 l 1,20,-1
640 1536 m 1,24,-1
 768 1536 l 1,25,-1
 768 512 l 1,26,-1
 640 512 l 1,27,-1
 640 1536 l 1,24,-1
128 1152 m 1,28,-1
 640 1152 l 1,29,-1
 640 1024 l 1,30,-1
 128 1024 l 1,31,-1
 128 1152 l 1,28,-1
EndSplineSet
EndChar

StartChar: Adieresis
Encoding: 196 196 131
Width: 896
Flags: W
LayerCount: 2
Fore
SplineSet
128 2048 m 1,0,-1
 256 2048 l 1,1,-1
 256 1920 l 1,2,-1
 128 1920 l 1,3,-1
 128 2048 l 1,0,-1
512 2048 m 1,4,-1
 640 2048 l 1,5,-1
 640 1920 l 1,6,-1
 512 1920 l 1,7,-1
 512 2048 l 1,4,-1
128 1792 m 1,8,-1
 640 1792 l 1,9,-1
 640 1664 l 1,10,-1
 128 1664 l 1,11,-1
 128 1792 l 1,8,-1
0 1664 m 1,12,-1
 128 1664 l 1,13,-1
 128 512 l 1,14,-1
 0 512 l 1,15,-1
 0 1664 l 1,12,-1
640 1664 m 1,16,-1
 768 1664 l 1,17,-1
 768 512 l 1,18,-1
 640 512 l 1,19,-1
 640 1664 l 1,16,-1
128 1152 m 1,20,-1
 640 1152 l 1,21,-1
 640 1024 l 1,22,-1
 128 1024 l 1,23,-1
 128 1152 l 1,20,-1
EndSplineSet
EndChar

StartChar: Aring
Encoding: 197 197 132
Width: 896
Flags: W
LayerCount: 2
Fore
SplineSet
256 2048 m 1,0,-1
 512 2048 l 1,1,-1
 512 1920 l 1,2,-1
 256 1920 l 1,3,-1
 256 2048 l 1,0,-1
256 1920 m 1,4,-1
 512 1920 l 1,5,-1
 512 1792 l 1,6,-1
 256 1792 l 1,7,-1
 256 1920 l 1,4,-1
128 1664 m 1,8,-1
 640 1664 l 1,9,-1
 640 1536 l 1,10,-1
 128 1536 l 1,11,-1
 128 1664 l 1,8,-1
0 1536 m 1,12,-1
 128 1536 l 1,13,-1
 128 512 l 1,14,-1
 0 512 l 1,15,-1
 0 1536 l 1,12,-1
640 1536 m 1,16,-1
 768 1536 l 1,17,-1
 768 512 l 1,18,-1
 640 512 l 1,19,-1
 640 1536 l 1,16,-1
128 1152 m 1,20,-1
 640 1152 l 1,21,-1
 640 1024 l 1,22,-1
 128 1024 l 1,23,-1
 128 1152 l 1,20,-1
EndSplineSet
EndChar

StartChar: AE
Encoding: 198 198 133
Width: 1152
Flags: W
LayerCount: 2
Fore
SplineSet
256 1792 m 1,0,-1
 1024 1792 l 1,1,-1
 1024 1664 l 1,2,-1
 256 1664 l 1,3,-1
 256 1792 l 1,0,-1
128 1664 m 1,4,-1
 256 1664 l 1,5,-1
 256 1536 l 1,6,-1
 128 1536 l 1,7,-1
 128 1664 l 1,4,-1
512 1664 m 1,8,-1
 640 1664 l 1,9,-1
 640 512 l 1,10,-1
 512 512 l 1,11,-1
 512 1664 l 1,8,-1
0 1536 m 1,12,-1
 128 1536 l 1,13,-1
 128 512 l 1,14,-1
 0 512 l 1,15,-1
 0 1536 l 1,12,-1
128 1152 m 1,16,-1
 512 1152 l 1,17,-1
 512 1024 l 1,18,-1
 128 1024 l 1,19,-1
 128 1152 l 1,16,-1
640 1152 m 1,20,-1
 896 1152 l 1,21,-1
 896 1024 l 1,22,-1
 640 1024 l 1,23,-1
 640 1152 l 1,20,-1
640 640 m 1,24,-1
 1024 640 l 1,25,-1
 1024 512 l 1,26,-1
 640 512 l 1,27,-1
 640 640 l 1,24,-1
EndSplineSet
EndChar

StartChar: Ccedilla
Encoding: 199 199 134
Width: 896
Flags: W
LayerCount: 2
Fore
SplineSet
128 1792 m 1,0,-1
 640 1792 l 1,1,-1
 640 1664 l 1,2,-1
 128 1664 l 1,3,-1
 128 1792 l 1,0,-1
0 1664 m 1,4,-1
 128 1664 l 1,5,-1
 128 640 l 1,6,-1
 0 640 l 1,7,-1
 0 1664 l 1,4,-1
640 1664 m 1,8,-1
 768 1664 l 1,9,-1
 768 1536 l 1,10,-1
 640 1536 l 1,11,-1
 640 1664 l 1,8,-1
640 768 m 1,12,-1
 768 768 l 1,13,-1
 768 640 l 1,14,-1
 640 640 l 1,15,-1
 640 768 l 1,12,-1
128 640 m 1,16,-1
 640 640 l 1,17,-1
 640 512 l 1,18,-1
 128 512 l 1,19,-1
 128 640 l 1,16,-1
256 512 m 1,20,-1
 384 512 l 1,21,-1
 384 384 l 1,22,-1
 256 384 l 1,23,-1
 256 512 l 1,20,-1
384 384 m 1,24,-1
 512 384 l 1,25,-1
 512 128 l 1,26,-1
 384 128 l 1,27,-1
 384 384 l 1,24,-1
256 256 m 1,28,-1
 384 256 l 1,29,-1
 384 128 l 1,30,-1
 256 128 l 1,31,-1
 256 256 l 1,28,-1
EndSplineSet
EndChar

StartChar: Egrave
Encoding: 200 200 135
Width: 896
Flags: W
LayerCount: 2
Fore
SplineSet
256 2048 m 1,0,-1
 384 2048 l 1,1,-1
 384 1920 l 1,2,-1
 256 1920 l 1,3,-1
 256 2048 l 1,0,-1
384 1920 m 1,4,-1
 512 1920 l 1,5,-1
 512 1792 l 1,6,-1
 384 1792 l 1,7,-1
 384 1920 l 1,4,-1
0 1664 m 1,8,-1
 128 1664 l 1,9,-1
 128 512 l 1,10,-1
 0 512 l 1,11,-1
 0 1664 l 1,8,-1
128 1664 m 1,12,-1
 768 1664 l 1,13,-1
 768 1536 l 1,14,-1
 128 1536 l 1,15,-1
 128 1664 l 1,12,-1
128 1280 m 1,16,-1
 512 1280 l 1,17,-1
 512 1152 l 1,18,-1
 128 1152 l 1,19,-1
 128 1280 l 1,16,-1
128 640 m 1,20,-1
 768 640 l 1,21,-1
 768 512 l 1,22,-1
 128 512 l 1,23,-1
 128 640 l 1,20,-1
EndSplineSet
EndChar

StartChar: Eacute
Encoding: 201 201 136
Width: 896
Flags: W
LayerCount: 2
Fore
SplineSet
512 2048 m 1,0,-1
 640 2048 l 1,1,-1
 640 1920 l 1,2,-1
 512 1920 l 1,3,-1
 512 2048 l 1,0,-1
384 1920 m 1,4,-1
 512 1920 l 1,5,-1
 512 1792 l 1,6,-1
 384 1792 l 1,7,-1
 384 1920 l 1,4,-1
0 1664 m 1,8,-1
 128 1664 l 1,9,-1
 128 512 l 1,10,-1
 0 512 l 1,11,-1
 0 1664 l 1,8,-1
128 1664 m 1,12,-1
 768 1664 l 1,13,-1
 768 1536 l 1,14,-1
 128 1536 l 1,15,-1
 128 1664 l 1,12,-1
128 1280 m 1,16,-1
 512 1280 l 1,17,-1
 512 1152 l 1,18,-1
 128 1152 l 1,19,-1
 128 1280 l 1,16,-1
128 640 m 1,20,-1
 768 640 l 1,21,-1
 768 512 l 1,22,-1
 128 512 l 1,23,-1
 128 640 l 1,20,-1
EndSplineSet
EndChar

StartChar: Ecircumflex
Encoding: 202 202 137
Width: 896
Flags: W
LayerCount: 2
Fore
SplineSet
256 2048 m 1,0,-1
 512 2048 l 1,1,-1
 512 1920 l 1,2,-1
 256 1920 l 1,3,-1
 256 2048 l 1,0,-1
128 1920 m 1,4,-1
 256 1920 l 1,5,-1
 256 1792 l 1,6,-1
 128 1792 l 1,7,-1
 128 1920 l 1,4,-1
512 1920 m 1,8,-1
 640 1920 l 1,9,-1
 640 1792 l 1,10,-1
 512 1792 l 1,11,-1
 512 1920 l 1,8,-1
0 1664 m 1,12,-1
 128 1664 l 1,13,-1
 128 512 l 1,14,-1
 0 512 l 1,15,-1
 0 1664 l 1,12,-1
128 1664 m 1,16,-1
 768 1664 l 1,17,-1
 768 1536 l 1,18,-1
 128 1536 l 1,19,-1
 128 1664 l 1,16,-1
128 1280 m 1,20,-1
 512 1280 l 1,21,-1
 512 1152 l 1,22,-1
 128 1152 l 1,23,-1
 128 1280 l 1,20,-1
128 640 m 1,24,-1
 768 640 l 1,25,-1
 768 512 l 1,26,-1
 128 512 l 1,27,-1
 128 640 l 1,24,-1
EndSplineSet
EndChar

StartChar: Edieresis
Encoding: 203 203 138
Width: 896
Flags: W
LayerCount: 2
Fore
SplineSet
128 2048 m 1,0,-1
 256 2048 l 1,1,-1
 256 1920 l 1,2,-1
 128 1920 l 1,3,-1
 128 2048 l 1,0,-1
512 2048 m 1,4,-1
 640 2048 l 1,5,-1
 640 1920 l 1,6,-1
 512 1920 l 1,7,-1
 512 2048 l 1,4,-1
0 1792 m 1,8,-1
 128 1792 l 1,9,-1
 128 512 l 1,10,-1
 0 512 l 1,11,-1
 0 1792 l 1,8,-1
128 1792 m 1,12,-1
 768 1792 l 1,13,-1
 768 1664 l 1,14,-1
 128 1664 l 1,15,-1
 128 1792 l 1,12,-1
128 1280 m 1,16,-1
 512 1280 l 1,17,-1
 512 1152 l 1,18,-1
 128 1152 l 1,19,-1
 128 1280 l 1,16,-1
128 640 m 1,20,-1
 768 640 l 1,21,-1
 768 512 l 1,22,-1
 128 512 l 1,23,-1
 128 640 l 1,20,-1
EndSplineSet
EndChar

StartChar: Igrave
Encoding: 204 204 139
Width: 384
Flags: W
LayerCount: 2
Fore
SplineSet
0 2048 m 1,0,-1
 128 2048 l 1,1,-1
 128 1920 l 1,2,-1
 0 1920 l 1,3,-1
 0 2048 l 1,0,-1
128 1920 m 1,4,-1
 256 1920 l 1,5,-1
 256 1792 l 1,6,-1
 128 1792 l 1,7,-1
 128 1920 l 1,4,-1
128 1664 m 1,8,-1
 256 1664 l 1,9,-1
 256 512 l 1,10,-1
 128 512 l 1,11,-1
 128 1664 l 1,8,-1
EndSplineSet
EndChar

StartChar: Iacute
Encoding: 205 205 140
Width: 384
Flags: W
LayerCount: 2
Fore
SplineSet
128 2048 m 1,0,-1
 256 2048 l 1,1,-1
 256 1920 l 1,2,-1
 128 1920 l 1,3,-1
 128 2048 l 1,0,-1
0 1920 m 1,4,-1
 128 1920 l 1,5,-1
 128 1792 l 1,6,-1
 0 1792 l 1,7,-1
 0 1920 l 1,4,-1
0 1664 m 1,8,-1
 128 1664 l 1,9,-1
 128 512 l 1,10,-1
 0 512 l 1,11,-1
 0 1664 l 1,8,-1
EndSplineSet
EndChar

StartChar: Icircumflex
Encoding: 206 206 141
Width: 512
Flags: W
LayerCount: 2
Fore
SplineSet
128 2048 m 1,0,-1
 256 2048 l 1,1,-1
 256 1920 l 1,2,-1
 128 1920 l 1,3,-1
 128 2048 l 1,0,-1
0 1920 m 1,4,-1
 128 1920 l 1,5,-1
 128 1792 l 1,6,-1
 0 1792 l 1,7,-1
 0 1920 l 1,4,-1
256 1920 m 1,8,-1
 384 1920 l 1,9,-1
 384 1792 l 1,10,-1
 256 1792 l 1,11,-1
 256 1920 l 1,8,-1
128 1664 m 1,12,-1
 256 1664 l 1,13,-1
 256 512 l 1,14,-1
 128 512 l 1,15,-1
 128 1664 l 1,12,-1
EndSplineSet
EndChar

StartChar: Idieresis
Encoding: 207 207 142
Width: 512
Flags: W
LayerCount: 2
Fore
SplineSet
0 2048 m 1,0,-1
 128 2048 l 1,1,-1
 128 1920 l 1,2,-1
 0 1920 l 1,3,-1
 0 2048 l 1,0,-1
256 2048 m 1,4,-1
 384 2048 l 1,5,-1
 384 1920 l 1,6,-1
 256 1920 l 1,7,-1
 256 2048 l 1,4,-1
128 1792 m 1,8,-1
 256 1792 l 1,9,-1
 256 512 l 1,10,-1
 128 512 l 1,11,-1
 128 1792 l 1,8,-1
EndSplineSet
EndChar

StartChar: Eth
Encoding: 208 208 143
Width: 1024
Flags: W
LayerCount: 2
Fore
SplineSet
128 1792 m 1,0,-1
 256 1792 l 1,1,-1
 256 512 l 1,2,-1
 128 512 l 1,3,-1
 128 1792 l 1,0,-1
256 1792 m 1,4,-1
 640 1792 l 1,5,-1
 640 1664 l 1,6,-1
 256 1664 l 1,7,-1
 256 1792 l 1,4,-1
640 1664 m 1,8,-1
 768 1664 l 1,9,-1
 768 1536 l 1,10,-1
 640 1536 l 1,11,-1
 640 1664 l 1,8,-1
768 1536 m 1,12,-1
 896 1536 l 1,13,-1
 896 768 l 1,14,-1
 768 768 l 1,15,-1
 768 1536 l 1,12,-1
0 1408 m 1,16,-1
 128 1408 l 1,17,-1
 128 1280 l 1,18,-1
 0 1280 l 1,19,-1
 0 1408 l 1,16,-1
256 1408 m 1,20,-1
 512 1408 l 1,21,-1
 512 1280 l 1,22,-1
 256 1280 l 1,23,-1
 256 1408 l 1,20,-1
640 768 m 1,24,-1
 768 768 l 1,25,-1
 768 640 l 1,26,-1
 640 640 l 1,27,-1
 640 768 l 1,24,-1
256 640 m 1,28,-1
 640 640 l 1,29,-1
 640 512 l 1,30,-1
 256 512 l 1,31,-1
 256 640 l 1,28,-1
EndSplineSet
EndChar

StartChar: Ntilde
Encoding: 209 209 144
Width: 896
Flags: W
LayerCount: 2
Fore
SplineSet
256 2048 m 1,0,-1
 384 2048 l 1,1,-1
 384 1920 l 1,2,-1
 256 1920 l 1,3,-1
 256 2048 l 1,0,-1
512 2048 m 1,4,-1
 640 2048 l 1,5,-1
 640 1920 l 1,6,-1
 512 1920 l 1,7,-1
 512 2048 l 1,4,-1
128 1920 m 1,8,-1
 256 1920 l 1,9,-1
 256 1792 l 1,10,-1
 128 1792 l 1,11,-1
 128 1920 l 1,8,-1
384 1920 m 1,12,-1
 512 1920 l 1,13,-1
 512 1792 l 1,14,-1
 384 1792 l 1,15,-1
 384 1920 l 1,12,-1
0 1664 m 1,16,-1
 128 1664 l 1,17,-1
 128 512 l 1,18,-1
 0 512 l 1,19,-1
 0 1664 l 1,16,-1
640 1664 m 1,20,-1
 768 1664 l 1,21,-1
 768 512 l 1,22,-1
 640 512 l 1,23,-1
 640 1664 l 1,20,-1
128 1536 m 1,24,-1
 256 1536 l 1,25,-1
 256 1408 l 1,26,-1
 128 1408 l 1,27,-1
 128 1536 l 1,24,-1
256 1408 m 1,28,-1
 384 1408 l 1,29,-1
 384 1280 l 1,30,-1
 256 1280 l 1,31,-1
 256 1408 l 1,28,-1
384 1280 m 1,32,-1
 512 1280 l 1,33,-1
 512 1152 l 1,34,-1
 384 1152 l 1,35,-1
 384 1280 l 1,32,-1
512 1152 m 1,36,-1
 640 1152 l 1,37,-1
 640 1024 l 1,38,-1
 512 1024 l 1,39,-1
 512 1152 l 1,36,-1
EndSplineSet
EndChar

StartChar: Ograve
Encoding: 210 210 145
Width: 896
Flags: W
LayerCount: 2
Fore
SplineSet
256 2048 m 1,0,-1
 384 2048 l 1,1,-1
 384 1920 l 1,2,-1
 256 1920 l 1,3,-1
 256 2048 l 1,0,-1
384 1920 m 1,4,-1
 512 1920 l 1,5,-1
 512 1792 l 1,6,-1
 384 1792 l 1,7,-1
 384 1920 l 1,4,-1
128 1664 m 1,8,-1
 640 1664 l 1,9,-1
 640 1536 l 1,10,-1
 128 1536 l 1,11,-1
 128 1664 l 1,8,-1
0 1536 m 1,12,-1
 128 1536 l 1,13,-1
 128 640 l 1,14,-1
 0 640 l 1,15,-1
 0 1536 l 1,12,-1
640 1536 m 1,16,-1
 768 1536 l 1,17,-1
 768 640 l 1,18,-1
 640 640 l 1,19,-1
 640 1536 l 1,16,-1
128 640 m 1,20,-1
 640 640 l 1,21,-1
 640 512 l 1,22,-1
 128 512 l 1,23,-1
 128 640 l 1,20,-1
EndSplineSet
EndChar

StartChar: Oacute
Encoding: 211 211 146
Width: 896
Flags: W
LayerCount: 2
Fore
SplineSet
512 2048 m 1,0,-1
 640 2048 l 1,1,-1
 640 1920 l 1,2,-1
 512 1920 l 1,3,-1
 512 2048 l 1,0,-1
384 1920 m 1,4,-1
 512 1920 l 1,5,-1
 512 1792 l 1,6,-1
 384 1792 l 1,7,-1
 384 1920 l 1,4,-1
128 1664 m 1,8,-1
 640 1664 l 1,9,-1
 640 1536 l 1,10,-1
 128 1536 l 1,11,-1
 128 1664 l 1,8,-1
0 1536 m 1,12,-1
 128 1536 l 1,13,-1
 128 640 l 1,14,-1
 0 640 l 1,15,-1
 0 1536 l 1,12,-1
640 1536 m 1,16,-1
 768 1536 l 1,17,-1
 768 640 l 1,18,-1
 640 640 l 1,19,-1
 640 1536 l 1,16,-1
128 640 m 1,20,-1
 640 640 l 1,21,-1
 640 512 l 1,22,-1
 128 512 l 1,23,-1
 128 640 l 1,20,-1
EndSplineSet
EndChar

StartChar: Ocircumflex
Encoding: 212 212 147
Width: 896
Flags: W
LayerCount: 2
Fore
SplineSet
256 2048 m 1,0,-1
 512 2048 l 1,1,-1
 512 1920 l 1,2,-1
 256 1920 l 1,3,-1
 256 2048 l 1,0,-1
128 1920 m 1,4,-1
 256 1920 l 1,5,-1
 256 1792 l 1,6,-1
 128 1792 l 1,7,-1
 128 1920 l 1,4,-1
512 1920 m 1,8,-1
 640 1920 l 1,9,-1
 640 1792 l 1,10,-1
 512 1792 l 1,11,-1
 512 1920 l 1,8,-1
128 1664 m 1,12,-1
 640 1664 l 1,13,-1
 640 1536 l 1,14,-1
 128 1536 l 1,15,-1
 128 1664 l 1,12,-1
0 1536 m 1,16,-1
 128 1536 l 1,17,-1
 128 640 l 1,18,-1
 0 640 l 1,19,-1
 0 1536 l 1,16,-1
640 1536 m 1,20,-1
 768 1536 l 1,21,-1
 768 640 l 1,22,-1
 640 640 l 1,23,-1
 640 1536 l 1,20,-1
128 640 m 1,24,-1
 640 640 l 1,25,-1
 640 512 l 1,26,-1
 128 512 l 1,27,-1
 128 640 l 1,24,-1
EndSplineSet
EndChar

StartChar: Otilde
Encoding: 213 213 148
Width: 896
Flags: W
LayerCount: 2
Fore
SplineSet
256 2048 m 1,0,-1
 384 2048 l 1,1,-1
 384 1920 l 1,2,-1
 256 1920 l 1,3,-1
 256 2048 l 1,0,-1
512 2048 m 1,4,-1
 640 2048 l 1,5,-1
 640 1920 l 1,6,-1
 512 1920 l 1,7,-1
 512 2048 l 1,4,-1
128 1920 m 1,8,-1
 256 1920 l 1,9,-1
 256 1792 l 1,10,-1
 128 1792 l 1,11,-1
 128 1920 l 1,8,-1
384 1920 m 1,12,-1
 512 1920 l 1,13,-1
 512 1792 l 1,14,-1
 384 1792 l 1,15,-1
 384 1920 l 1,12,-1
128 1664 m 1,16,-1
 640 1664 l 1,17,-1
 640 1536 l 1,18,-1
 128 1536 l 1,19,-1
 128 1664 l 1,16,-1
0 1536 m 1,20,-1
 128 1536 l 1,21,-1
 128 640 l 1,22,-1
 0 640 l 1,23,-1
 0 1536 l 1,20,-1
640 1536 m 1,24,-1
 768 1536 l 1,25,-1
 768 640 l 1,26,-1
 640 640 l 1,27,-1
 640 1536 l 1,24,-1
128 640 m 1,28,-1
 640 640 l 1,29,-1
 640 512 l 1,30,-1
 128 512 l 1,31,-1
 128 640 l 1,28,-1
EndSplineSet
EndChar

StartChar: Odieresis
Encoding: 214 214 149
Width: 896
Flags: W
LayerCount: 2
Fore
SplineSet
128 2048 m 1,0,-1
 256 2048 l 1,1,-1
 256 1920 l 1,2,-1
 128 1920 l 1,3,-1
 128 2048 l 1,0,-1
512 2048 m 1,4,-1
 640 2048 l 1,5,-1
 640 1920 l 1,6,-1
 512 1920 l 1,7,-1
 512 2048 l 1,4,-1
128 1792 m 1,8,-1
 640 1792 l 1,9,-1
 640 1664 l 1,10,-1
 128 1664 l 1,11,-1
 128 1792 l 1,8,-1
0 1664 m 1,12,-1
 128 1664 l 1,13,-1
 128 640 l 1,14,-1
 0 640 l 1,15,-1
 0 1664 l 1,12,-1
640 1664 m 1,16,-1
 768 1664 l 1,17,-1
 768 640 l 1,18,-1
 640 640 l 1,19,-1
 640 1664 l 1,16,-1
128 640 m 1,20,-1
 640 640 l 1,21,-1
 640 512 l 1,22,-1
 128 512 l 1,23,-1
 128 640 l 1,20,-1
EndSplineSet
EndChar

StartChar: multiply
Encoding: 215 215 150
Width: 896
Flags: W
LayerCount: 2
Fore
SplineSet
0 1280 m 1,0,-1
 128 1280 l 1,1,-1
 128 1152 l 1,2,-1
 0 1152 l 1,3,-1
 0 1280 l 1,0,-1
640 1280 m 1,4,-1
 768 1280 l 1,5,-1
 768 1152 l 1,6,-1
 640 1152 l 1,7,-1
 640 1280 l 1,4,-1
128 1152 m 1,8,-1
 256 1152 l 1,9,-1
 256 1024 l 1,10,-1
 128 1024 l 1,11,-1
 128 1152 l 1,8,-1
512 1152 m 1,12,-1
 640 1152 l 1,13,-1
 640 1024 l 1,14,-1
 512 1024 l 1,15,-1
 512 1152 l 1,12,-1
256 1024 m 1,16,-1
 512 1024 l 1,17,-1
 512 896 l 1,18,-1
 256 896 l 1,19,-1
 256 1024 l 1,16,-1
256 896 m 1,20,-1
 512 896 l 1,21,-1
 512 768 l 1,22,-1
 256 768 l 1,23,-1
 256 896 l 1,20,-1
128 768 m 1,24,-1
 256 768 l 1,25,-1
 256 640 l 1,26,-1
 128 640 l 1,27,-1
 128 768 l 1,24,-1
512 768 m 1,28,-1
 640 768 l 1,29,-1
 640 640 l 1,30,-1
 512 640 l 1,31,-1
 512 768 l 1,28,-1
0 640 m 1,32,-1
 128 640 l 1,33,-1
 128 512 l 1,34,-1
 0 512 l 1,35,-1
 0 640 l 1,32,-1
640 640 m 1,36,-1
 768 640 l 1,37,-1
 768 512 l 1,38,-1
 640 512 l 1,39,-1
 640 640 l 1,36,-1
EndSplineSet
EndChar

StartChar: Oslash
Encoding: 216 216 151
Width: 1152
Flags: W
LayerCount: 2
Fore
SplineSet
256 1792 m 1,0,-1
 768 1792 l 1,1,-1
 768 1664 l 1,2,-1
 256 1664 l 1,3,-1
 256 1792 l 1,0,-1
896 1792 m 1,4,-1
 1024 1792 l 1,5,-1
 1024 1536 l 1,6,-1
 896 1536 l 1,7,-1
 896 1792 l 1,4,-1
128 1664 m 1,8,-1
 256 1664 l 1,9,-1
 256 640 l 1,10,-1
 128 640 l 1,11,-1
 128 1664 l 1,8,-1
768 1664 m 1,12,-1
 896 1664 l 1,13,-1
 896 640 l 1,14,-1
 768 640 l 1,15,-1
 768 1664 l 1,12,-1
640 1408 m 1,16,-1
 768 1408 l 1,17,-1
 768 1280 l 1,18,-1
 640 1280 l 1,19,-1
 640 1408 l 1,16,-1
512 1280 m 1,20,-1
 640 1280 l 1,21,-1
 640 1152 l 1,22,-1
 512 1152 l 1,23,-1
 512 1280 l 1,20,-1
384 1152 m 1,24,-1
 512 1152 l 1,25,-1
 512 1024 l 1,26,-1
 384 1024 l 1,27,-1
 384 1152 l 1,24,-1
256 1024 m 1,28,-1
 384 1024 l 1,29,-1
 384 896 l 1,30,-1
 256 896 l 1,31,-1
 256 1024 l 1,28,-1
0 768 m 1,32,-1
 128 768 l 1,33,-1
 128 512 l 1,34,-1
 0 512 l 1,35,-1
 0 768 l 1,32,-1
256 640 m 1,36,-1
 768 640 l 1,37,-1
 768 512 l 1,38,-1
 256 512 l 1,39,-1
 256 640 l 1,36,-1
EndSplineSet
EndChar

StartChar: Ugrave
Encoding: 217 217 152
Width: 896
Flags: W
LayerCount: 2
Fore
SplineSet
256 2048 m 1,0,-1
 384 2048 l 1,1,-1
 384 1920 l 1,2,-1
 256 1920 l 1,3,-1
 256 2048 l 1,0,-1
384 1920 m 1,4,-1
 512 1920 l 1,5,-1
 512 1792 l 1,6,-1
 384 1792 l 1,7,-1
 384 1920 l 1,4,-1
0 1792 m 1,8,-1
 128 1792 l 1,9,-1
 128 640 l 1,10,-1
 0 640 l 1,11,-1
 0 1792 l 1,8,-1
640 1792 m 1,12,-1
 768 1792 l 1,13,-1
 768 640 l 1,14,-1
 640 640 l 1,15,-1
 640 1792 l 1,12,-1
128 640 m 1,16,-1
 640 640 l 1,17,-1
 640 512 l 1,18,-1
 128 512 l 1,19,-1
 128 640 l 1,16,-1
EndSplineSet
EndChar

StartChar: Uacute
Encoding: 218 218 153
Width: 896
Flags: W
LayerCount: 2
Fore
SplineSet
512 2048 m 1,0,-1
 640 2048 l 1,1,-1
 640 1920 l 1,2,-1
 512 1920 l 1,3,-1
 512 2048 l 1,0,-1
384 1920 m 1,4,-1
 512 1920 l 1,5,-1
 512 1792 l 1,6,-1
 384 1792 l 1,7,-1
 384 1920 l 1,4,-1
0 1792 m 1,8,-1
 128 1792 l 1,9,-1
 128 640 l 1,10,-1
 0 640 l 1,11,-1
 0 1792 l 1,8,-1
640 1792 m 1,12,-1
 768 1792 l 1,13,-1
 768 640 l 1,14,-1
 640 640 l 1,15,-1
 640 1792 l 1,12,-1
128 640 m 1,16,-1
 640 640 l 1,17,-1
 640 512 l 1,18,-1
 128 512 l 1,19,-1
 128 640 l 1,16,-1
EndSplineSet
EndChar

StartChar: Ucircumflex
Encoding: 219 219 154
Width: 896
Flags: W
LayerCount: 2
Fore
SplineSet
256 2048 m 1,0,-1
 512 2048 l 1,1,-1
 512 1920 l 1,2,-1
 256 1920 l 1,3,-1
 256 2048 l 1,0,-1
128 1920 m 1,4,-1
 256 1920 l 1,5,-1
 256 1792 l 1,6,-1
 128 1792 l 1,7,-1
 128 1920 l 1,4,-1
512 1920 m 1,8,-1
 640 1920 l 1,9,-1
 640 1792 l 1,10,-1
 512 1792 l 1,11,-1
 512 1920 l 1,8,-1
0 1664 m 1,12,-1
 128 1664 l 1,13,-1
 128 640 l 1,14,-1
 0 640 l 1,15,-1
 0 1664 l 1,12,-1
640 1664 m 1,16,-1
 768 1664 l 1,17,-1
 768 640 l 1,18,-1
 640 640 l 1,19,-1
 640 1664 l 1,16,-1
128 640 m 1,20,-1
 640 640 l 1,21,-1
 640 512 l 1,22,-1
 128 512 l 1,23,-1
 128 640 l 1,20,-1
EndSplineSet
EndChar

StartChar: Udieresis
Encoding: 220 220 155
Width: 896
Flags: W
LayerCount: 2
Fore
SplineSet
128 2048 m 1,0,-1
 256 2048 l 1,1,-1
 256 1920 l 1,2,-1
 128 1920 l 1,3,-1
 128 2048 l 1,0,-1
512 2048 m 1,4,-1
 640 2048 l 1,5,-1
 640 1920 l 1,6,-1
 512 1920 l 1,7,-1
 512 2048 l 1,4,-1
0 1792 m 1,8,-1
 128 1792 l 1,9,-1
 128 640 l 1,10,-1
 0 640 l 1,11,-1
 0 1792 l 1,8,-1
640 1792 m 1,12,-1
 768 1792 l 1,13,-1
 768 640 l 1,14,-1
 640 640 l 1,15,-1
 640 1792 l 1,12,-1
128 640 m 1,16,-1
 640 640 l 1,17,-1
 640 512 l 1,18,-1
 128 512 l 1,19,-1
 128 640 l 1,16,-1
EndSplineSet
EndChar

StartChar: Yacute
Encoding: 221 221 156
Width: 1024
Flags: W
LayerCount: 2
Fore
SplineSet
512 2048 m 1,0,-1
 640 2048 l 1,1,-1
 640 1920 l 1,2,-1
 512 1920 l 1,3,-1
 512 2048 l 1,0,-1
384 1920 m 1,4,-1
 512 1920 l 1,5,-1
 512 1792 l 1,6,-1
 384 1792 l 1,7,-1
 384 1920 l 1,4,-1
0 1792 m 1,8,-1
 128 1792 l 1,9,-1
 128 1536 l 1,10,-1
 0 1536 l 1,11,-1
 0 1792 l 1,8,-1
768 1792 m 1,12,-1
 896 1792 l 1,13,-1
 896 1536 l 1,14,-1
 768 1536 l 1,15,-1
 768 1792 l 1,12,-1
128 1536 m 1,16,-1
 256 1536 l 1,17,-1
 256 1280 l 1,18,-1
 128 1280 l 1,19,-1
 128 1536 l 1,16,-1
640 1536 m 1,20,-1
 768 1536 l 1,21,-1
 768 1280 l 1,22,-1
 640 1280 l 1,23,-1
 640 1536 l 1,20,-1
256 1280 m 1,24,-1
 384 1280 l 1,25,-1
 384 1152 l 1,26,-1
 256 1152 l 1,27,-1
 256 1280 l 1,24,-1
512 1280 m 1,28,-1
 640 1280 l 1,29,-1
 640 1152 l 1,30,-1
 512 1152 l 1,31,-1
 512 1280 l 1,28,-1
384 1152 m 1,32,-1
 512 1152 l 1,33,-1
 512 512 l 1,34,-1
 384 512 l 1,35,-1
 384 1152 l 1,32,-1
EndSplineSet
EndChar

StartChar: Thorn
Encoding: 222 222 157
Width: 768
Flags: W
LayerCount: 2
Fore
SplineSet
0 1792 m 1,0,-1
 128 1792 l 1,1,-1
 128 512 l 1,2,-1
 0 512 l 1,3,-1
 0 1792 l 1,0,-1
256 1536 m 1,4,-1
 512 1536 l 1,5,-1
 512 1408 l 1,6,-1
 256 1408 l 1,7,-1
 256 1536 l 1,4,-1
128 1408 m 1,8,-1
 256 1408 l 1,9,-1
 256 1280 l 1,10,-1
 128 1280 l 1,11,-1
 128 1408 l 1,8,-1
512 1408 m 1,12,-1
 640 1408 l 1,13,-1
 640 896 l 1,14,-1
 512 896 l 1,15,-1
 512 1408 l 1,12,-1
128 1024 m 1,16,-1
 256 1024 l 1,17,-1
 256 896 l 1,18,-1
 128 896 l 1,19,-1
 128 1024 l 1,16,-1
256 896 m 1,20,-1
 512 896 l 1,21,-1
 512 768 l 1,22,-1
 256 768 l 1,23,-1
 256 896 l 1,20,-1
EndSplineSet
EndChar

StartChar: germandbls
Encoding: 223 223 158
Width: 896
Flags: W
LayerCount: 2
Fore
SplineSet
128 1792 m 1,0,-1
 512 1792 l 1,1,-1
 512 1664 l 1,2,-1
 128 1664 l 1,3,-1
 128 1792 l 1,0,-1
0 1664 m 1,4,-1
 128 1664 l 1,5,-1
 128 512 l 1,6,-1
 0 512 l 1,7,-1
 0 1664 l 1,4,-1
512 1664 m 1,8,-1
 640 1664 l 1,9,-1
 640 1280 l 1,10,-1
 512 1280 l 1,11,-1
 512 1664 l 1,8,-1
384 1280 m 1,12,-1
 512 1280 l 1,13,-1
 512 1152 l 1,14,-1
 384 1152 l 1,15,-1
 384 1280 l 1,12,-1
512 1152 m 1,16,-1
 640 1152 l 1,17,-1
 640 1024 l 1,18,-1
 512 1024 l 1,19,-1
 512 1152 l 1,16,-1
640 1024 m 1,20,-1
 768 1024 l 1,21,-1
 768 640 l 1,22,-1
 640 640 l 1,23,-1
 640 1024 l 1,20,-1
384 640 m 1,24,-1
 640 640 l 1,25,-1
 640 512 l 1,26,-1
 384 512 l 1,27,-1
 384 640 l 1,24,-1
EndSplineSet
EndChar

StartChar: agrave
Encoding: 224 224 159
Width: 896
Flags: W
LayerCount: 2
Fore
SplineSet
256 1792 m 1,0,-1
 384 1792 l 1,1,-1
 384 1664 l 1,2,-1
 256 1664 l 1,3,-1
 256 1792 l 1,0,-1
384 1664 m 1,4,-1
 512 1664 l 1,5,-1
 512 1536 l 1,6,-1
 384 1536 l 1,7,-1
 384 1664 l 1,4,-1
128 1408 m 1,8,-1
 640 1408 l 1,9,-1
 640 1280 l 1,10,-1
 128 1280 l 1,11,-1
 128 1408 l 1,8,-1
640 1280 m 1,12,-1
 768 1280 l 1,13,-1
 768 512 l 1,14,-1
 640 512 l 1,15,-1
 640 1280 l 1,12,-1
128 1152 m 1,16,-1
 640 1152 l 1,17,-1
 640 1024 l 1,18,-1
 128 1024 l 1,19,-1
 128 1152 l 1,16,-1
0 1024 m 1,20,-1
 128 1024 l 1,21,-1
 128 640 l 1,22,-1
 0 640 l 1,23,-1
 0 1024 l 1,20,-1
128 640 m 1,24,-1
 640 640 l 1,25,-1
 640 512 l 1,26,-1
 128 512 l 1,27,-1
 128 640 l 1,24,-1
EndSplineSet
EndChar

StartChar: aacute
Encoding: 225 225 160
Width: 896
Flags: W
LayerCount: 2
Fore
SplineSet
512 1792 m 1,0,-1
 640 1792 l 1,1,-1
 640 1664 l 1,2,-1
 512 1664 l 1,3,-1
 512 1792 l 1,0,-1
384 1664 m 1,4,-1
 512 1664 l 1,5,-1
 512 1536 l 1,6,-1
 384 1536 l 1,7,-1
 384 1664 l 1,4,-1
128 1408 m 1,8,-1
 640 1408 l 1,9,-1
 640 1280 l 1,10,-1
 128 1280 l 1,11,-1
 128 1408 l 1,8,-1
640 1280 m 1,12,-1
 768 1280 l 1,13,-1
 768 512 l 1,14,-1
 640 512 l 1,15,-1
 640 1280 l 1,12,-1
128 1152 m 1,16,-1
 640 1152 l 1,17,-1
 640 1024 l 1,18,-1
 128 1024 l 1,19,-1
 128 1152 l 1,16,-1
0 1024 m 1,20,-1
 128 1024 l 1,21,-1
 128 640 l 1,22,-1
 0 640 l 1,23,-1
 0 1024 l 1,20,-1
128 640 m 1,24,-1
 640 640 l 1,25,-1
 640 512 l 1,26,-1
 128 512 l 1,27,-1
 128 640 l 1,24,-1
EndSplineSet
EndChar

StartChar: acircumflex
Encoding: 226 226 161
Width: 896
Flags: W
LayerCount: 2
Fore
SplineSet
256 1792 m 1,0,-1
 512 1792 l 1,1,-1
 512 1664 l 1,2,-1
 256 1664 l 1,3,-1
 256 1792 l 1,0,-1
128 1664 m 1,4,-1
 256 1664 l 1,5,-1
 256 1536 l 1,6,-1
 128 1536 l 1,7,-1
 128 1664 l 1,4,-1
512 1664 m 1,8,-1
 640 1664 l 1,9,-1
 640 1536 l 1,10,-1
 512 1536 l 1,11,-1
 512 1664 l 1,8,-1
128 1408 m 1,12,-1
 640 1408 l 1,13,-1
 640 1280 l 1,14,-1
 128 1280 l 1,15,-1
 128 1408 l 1,12,-1
640 1280 m 1,16,-1
 768 1280 l 1,17,-1
 768 512 l 1,18,-1
 640 512 l 1,19,-1
 640 1280 l 1,16,-1
128 1152 m 1,20,-1
 640 1152 l 1,21,-1
 640 1024 l 1,22,-1
 128 1024 l 1,23,-1
 128 1152 l 1,20,-1
0 1024 m 1,24,-1
 128 1024 l 1,25,-1
 128 640 l 1,26,-1
 0 640 l 1,27,-1
 0 1024 l 1,24,-1
128 640 m 1,28,-1
 640 640 l 1,29,-1
 640 512 l 1,30,-1
 128 512 l 1,31,-1
 128 640 l 1,28,-1
EndSplineSet
EndChar

StartChar: atilde
Encoding: 227 227 162
Width: 896
Flags: W
LayerCount: 2
Fore
SplineSet
128 1664 m 1,0,-1
 640 1664 l 1,1,-1
 640 1536 l 1,2,-1
 128 1536 l 1,3,-1
 128 1664 l 1,0,-1
128 1408 m 1,4,-1
 640 1408 l 1,5,-1
 640 1280 l 1,6,-1
 128 1280 l 1,7,-1
 128 1408 l 1,4,-1
640 1280 m 1,8,-1
 768 1280 l 1,9,-1
 768 512 l 1,10,-1
 640 512 l 1,11,-1
 640 1280 l 1,8,-1
128 1152 m 1,12,-1
 640 1152 l 1,13,-1
 640 1024 l 1,14,-1
 128 1024 l 1,15,-1
 128 1152 l 1,12,-1
0 1024 m 1,16,-1
 128 1024 l 1,17,-1
 128 640 l 1,18,-1
 0 640 l 1,19,-1
 0 1024 l 1,16,-1
128 640 m 1,20,-1
 640 640 l 1,21,-1
 640 512 l 1,22,-1
 128 512 l 1,23,-1
 128 640 l 1,20,-1
EndSplineSet
EndChar

StartChar: adieresis
Encoding: 228 228 163
Width: 896
Flags: W
LayerCount: 2
Fore
SplineSet
128 1664 m 1,0,-1
 256 1664 l 1,1,-1
 256 1536 l 1,2,-1
 128 1536 l 1,3,-1
 128 1664 l 1,0,-1
512 1664 m 1,4,-1
 640 1664 l 1,5,-1
 640 1536 l 1,6,-1
 512 1536 l 1,7,-1
 512 1664 l 1,4,-1
128 1408 m 1,8,-1
 640 1408 l 1,9,-1
 640 1280 l 1,10,-1
 128 1280 l 1,11,-1
 128 1408 l 1,8,-1
640 1280 m 1,12,-1
 768 1280 l 1,13,-1
 768 512 l 1,14,-1
 640 512 l 1,15,-1
 640 1280 l 1,12,-1
128 1152 m 1,16,-1
 640 1152 l 1,17,-1
 640 1024 l 1,18,-1
 128 1024 l 1,19,-1
 128 1152 l 1,16,-1
0 1024 m 1,20,-1
 128 1024 l 1,21,-1
 128 640 l 1,22,-1
 0 640 l 1,23,-1
 0 1024 l 1,20,-1
128 640 m 1,24,-1
 640 640 l 1,25,-1
 640 512 l 1,26,-1
 128 512 l 1,27,-1
 128 640 l 1,24,-1
EndSplineSet
EndChar

StartChar: aring
Encoding: 229 229 164
Width: 896
Flags: W
LayerCount: 2
Fore
SplineSet
256 1792 m 1,0,-1
 512 1792 l 1,1,-1
 512 1664 l 1,2,-1
 256 1664 l 1,3,-1
 256 1792 l 1,0,-1
256 1664 m 1,4,-1
 512 1664 l 1,5,-1
 512 1536 l 1,6,-1
 256 1536 l 1,7,-1
 256 1664 l 1,4,-1
128 1408 m 1,8,-1
 640 1408 l 1,9,-1
 640 1280 l 1,10,-1
 128 1280 l 1,11,-1
 128 1408 l 1,8,-1
640 1280 m 1,12,-1
 768 1280 l 1,13,-1
 768 512 l 1,14,-1
 640 512 l 1,15,-1
 640 1280 l 1,12,-1
128 1152 m 1,16,-1
 640 1152 l 1,17,-1
 640 1024 l 1,18,-1
 128 1024 l 1,19,-1
 128 1152 l 1,16,-1
0 1024 m 1,20,-1
 128 1024 l 1,21,-1
 128 640 l 1,22,-1
 0 640 l 1,23,-1
 0 1024 l 1,20,-1
128 640 m 1,24,-1
 640 640 l 1,25,-1
 640 512 l 1,26,-1
 128 512 l 1,27,-1
 128 640 l 1,24,-1
EndSplineSet
EndChar

StartChar: ae
Encoding: 230 230 165
Width: 1024
Flags: W
LayerCount: 2
Fore
SplineSet
128 1408 m 1,0,-1
 768 1408 l 1,1,-1
 768 1280 l 1,2,-1
 128 1280 l 1,3,-1
 128 1408 l 1,0,-1
384 1280 m 1,4,-1
 512 1280 l 1,5,-1
 512 512 l 1,6,-1
 384 512 l 1,7,-1
 384 1280 l 1,4,-1
768 1280 m 1,8,-1
 896 1280 l 1,9,-1
 896 1024 l 1,10,-1
 768 1024 l 1,11,-1
 768 1280 l 1,8,-1
128 1152 m 1,12,-1
 384 1152 l 1,13,-1
 384 1024 l 1,14,-1
 128 1024 l 1,15,-1
 128 1152 l 1,12,-1
512 1152 m 1,16,-1
 768 1152 l 1,17,-1
 768 1024 l 1,18,-1
 512 1024 l 1,19,-1
 512 1152 l 1,16,-1
0 1024 m 1,20,-1
 128 1024 l 1,21,-1
 128 640 l 1,22,-1
 0 640 l 1,23,-1
 0 1024 l 1,20,-1
768 768 m 1,24,-1
 896 768 l 1,25,-1
 896 640 l 1,26,-1
 768 640 l 1,27,-1
 768 768 l 1,24,-1
128 640 m 1,28,-1
 384 640 l 1,29,-1
 384 512 l 1,30,-1
 128 512 l 1,31,-1
 128 640 l 1,28,-1
512 640 m 1,32,-1
 768 640 l 1,33,-1
 768 512 l 1,34,-1
 512 512 l 1,35,-1
 512 640 l 1,32,-1
EndSplineSet
EndChar

StartChar: ccedilla
Encoding: 231 231 166
Width: 896
Flags: W
LayerCount: 2
Fore
SplineSet
128 1408 m 1,0,-1
 640 1408 l 1,1,-1
 640 1280 l 1,2,-1
 128 1280 l 1,3,-1
 128 1408 l 1,0,-1
0 1280 m 1,4,-1
 128 1280 l 1,5,-1
 128 640 l 1,6,-1
 0 640 l 1,7,-1
 0 1280 l 1,4,-1
640 1280 m 1,8,-1
 768 1280 l 1,9,-1
 768 1152 l 1,10,-1
 640 1152 l 1,11,-1
 640 1280 l 1,8,-1
640 768 m 1,12,-1
 768 768 l 1,13,-1
 768 640 l 1,14,-1
 640 640 l 1,15,-1
 640 768 l 1,12,-1
128 640 m 1,16,-1
 640 640 l 1,17,-1
 640 512 l 1,18,-1
 128 512 l 1,19,-1
 128 640 l 1,16,-1
384 512 m 1,20,-1
 512 512 l 1,21,-1
 512 256 l 1,22,-1
 384 256 l 1,23,-1
 384 512 l 1,20,-1
256 384 m 1,24,-1
 384 384 l 1,25,-1
 384 256 l 1,26,-1
 256 256 l 1,27,-1
 256 384 l 1,24,-1
EndSplineSet
EndChar

StartChar: egrave
Encoding: 232 232 167
Width: 896
Flags: W
LayerCount: 2
Fore
SplineSet
256 1792 m 1,0,-1
 384 1792 l 1,1,-1
 384 1664 l 1,2,-1
 256 1664 l 1,3,-1
 256 1792 l 1,0,-1
384 1664 m 1,4,-1
 512 1664 l 1,5,-1
 512 1536 l 1,6,-1
 384 1536 l 1,7,-1
 384 1664 l 1,4,-1
128 1408 m 1,8,-1
 640 1408 l 1,9,-1
 640 1280 l 1,10,-1
 128 1280 l 1,11,-1
 128 1408 l 1,8,-1
0 1280 m 1,12,-1
 128 1280 l 1,13,-1
 128 640 l 1,14,-1
 0 640 l 1,15,-1
 0 1280 l 1,12,-1
640 1280 m 1,16,-1
 768 1280 l 1,17,-1
 768 896 l 1,18,-1
 640 896 l 1,19,-1
 640 1280 l 1,16,-1
128 1024 m 1,20,-1
 640 1024 l 1,21,-1
 640 896 l 1,22,-1
 128 896 l 1,23,-1
 128 1024 l 1,20,-1
640 768 m 1,24,-1
 768 768 l 1,25,-1
 768 640 l 1,26,-1
 640 640 l 1,27,-1
 640 768 l 1,24,-1
128 640 m 1,28,-1
 640 640 l 1,29,-1
 640 512 l 1,30,-1
 128 512 l 1,31,-1
 128 640 l 1,28,-1
EndSplineSet
EndChar

StartChar: eacute
Encoding: 233 233 168
Width: 896
Flags: W
LayerCount: 2
Fore
SplineSet
512 1792 m 1,0,-1
 640 1792 l 1,1,-1
 640 1664 l 1,2,-1
 512 1664 l 1,3,-1
 512 1792 l 1,0,-1
384 1664 m 1,4,-1
 512 1664 l 1,5,-1
 512 1536 l 1,6,-1
 384 1536 l 1,7,-1
 384 1664 l 1,4,-1
128 1408 m 1,8,-1
 640 1408 l 1,9,-1
 640 1280 l 1,10,-1
 128 1280 l 1,11,-1
 128 1408 l 1,8,-1
0 1280 m 1,12,-1
 128 1280 l 1,13,-1
 128 640 l 1,14,-1
 0 640 l 1,15,-1
 0 1280 l 1,12,-1
640 1280 m 1,16,-1
 768 1280 l 1,17,-1
 768 896 l 1,18,-1
 640 896 l 1,19,-1
 640 1280 l 1,16,-1
128 1024 m 1,20,-1
 640 1024 l 1,21,-1
 640 896 l 1,22,-1
 128 896 l 1,23,-1
 128 1024 l 1,20,-1
640 768 m 1,24,-1
 768 768 l 1,25,-1
 768 640 l 1,26,-1
 640 640 l 1,27,-1
 640 768 l 1,24,-1
128 640 m 1,28,-1
 640 640 l 1,29,-1
 640 512 l 1,30,-1
 128 512 l 1,31,-1
 128 640 l 1,28,-1
EndSplineSet
EndChar

StartChar: ecircumflex
Encoding: 234 234 169
Width: 896
Flags: W
LayerCount: 2
Fore
SplineSet
256 1792 m 1,0,-1
 512 1792 l 1,1,-1
 512 1664 l 1,2,-1
 256 1664 l 1,3,-1
 256 1792 l 1,0,-1
128 1664 m 1,4,-1
 256 1664 l 1,5,-1
 256 1536 l 1,6,-1
 128 1536 l 1,7,-1
 128 1664 l 1,4,-1
512 1664 m 1,8,-1
 640 1664 l 1,9,-1
 640 1536 l 1,10,-1
 512 1536 l 1,11,-1
 512 1664 l 1,8,-1
128 1408 m 1,12,-1
 640 1408 l 1,13,-1
 640 1280 l 1,14,-1
 128 1280 l 1,15,-1
 128 1408 l 1,12,-1
0 1280 m 1,16,-1
 128 1280 l 1,17,-1
 128 640 l 1,18,-1
 0 640 l 1,19,-1
 0 1280 l 1,16,-1
640 1280 m 1,20,-1
 768 1280 l 1,21,-1
 768 896 l 1,22,-1
 640 896 l 1,23,-1
 640 1280 l 1,20,-1
128 1024 m 1,24,-1
 640 1024 l 1,25,-1
 640 896 l 1,26,-1
 128 896 l 1,27,-1
 128 1024 l 1,24,-1
640 768 m 1,28,-1
 768 768 l 1,29,-1
 768 640 l 1,30,-1
 640 640 l 1,31,-1
 640 768 l 1,28,-1
128 640 m 1,32,-1
 640 640 l 1,33,-1
 640 512 l 1,34,-1
 128 512 l 1,35,-1
 128 640 l 1,32,-1
EndSplineSet
EndChar

StartChar: edieresis
Encoding: 235 235 170
Width: 896
Flags: W
LayerCount: 2
Fore
SplineSet
128 1664 m 1,0,-1
 256 1664 l 1,1,-1
 256 1536 l 1,2,-1
 128 1536 l 1,3,-1
 128 1664 l 1,0,-1
512 1664 m 1,4,-1
 640 1664 l 1,5,-1
 640 1536 l 1,6,-1
 512 1536 l 1,7,-1
 512 1664 l 1,4,-1
128 1408 m 1,8,-1
 640 1408 l 1,9,-1
 640 1280 l 1,10,-1
 128 1280 l 1,11,-1
 128 1408 l 1,8,-1
0 1280 m 1,12,-1
 128 1280 l 1,13,-1
 128 640 l 1,14,-1
 0 640 l 1,15,-1
 0 1280 l 1,12,-1
640 1280 m 1,16,-1
 768 1280 l 1,17,-1
 768 896 l 1,18,-1
 640 896 l 1,19,-1
 640 1280 l 1,16,-1
128 1024 m 1,20,-1
 640 1024 l 1,21,-1
 640 896 l 1,22,-1
 128 896 l 1,23,-1
 128 1024 l 1,20,-1
640 768 m 1,24,-1
 768 768 l 1,25,-1
 768 640 l 1,26,-1
 640 640 l 1,27,-1
 640 768 l 1,24,-1
128 640 m 1,28,-1
 640 640 l 1,29,-1
 640 512 l 1,30,-1
 128 512 l 1,31,-1
 128 640 l 1,28,-1
EndSplineSet
EndChar

StartChar: igrave
Encoding: 236 236 171
Width: 384
Flags: W
LayerCount: 2
Fore
SplineSet
0 1792 m 1,0,-1
 128 1792 l 1,1,-1
 128 1664 l 1,2,-1
 0 1664 l 1,3,-1
 0 1792 l 1,0,-1
128 1664 m 1,4,-1
 256 1664 l 1,5,-1
 256 1536 l 1,6,-1
 128 1536 l 1,7,-1
 128 1664 l 1,4,-1
128 1408 m 1,8,-1
 256 1408 l 1,9,-1
 256 512 l 1,10,-1
 128 512 l 1,11,-1
 128 1408 l 1,8,-1
EndSplineSet
EndChar

StartChar: iacute
Encoding: 237 237 172
Width: 384
Flags: W
LayerCount: 2
Fore
SplineSet
128 1792 m 1,0,-1
 256 1792 l 1,1,-1
 256 1664 l 1,2,-1
 128 1664 l 1,3,-1
 128 1792 l 1,0,-1
0 1664 m 1,4,-1
 128 1664 l 1,5,-1
 128 1536 l 1,6,-1
 0 1536 l 1,7,-1
 0 1664 l 1,4,-1
0 1408 m 1,8,-1
 128 1408 l 1,9,-1
 128 512 l 1,10,-1
 0 512 l 1,11,-1
 0 1408 l 1,8,-1
EndSplineSet
EndChar

StartChar: icircumflex
Encoding: 238 238 173
Width: 512
Flags: W
LayerCount: 2
Fore
SplineSet
128 1792 m 1,0,-1
 256 1792 l 1,1,-1
 256 1664 l 1,2,-1
 128 1664 l 1,3,-1
 128 1792 l 1,0,-1
0 1664 m 1,4,-1
 128 1664 l 1,5,-1
 128 1536 l 1,6,-1
 0 1536 l 1,7,-1
 0 1664 l 1,4,-1
256 1664 m 1,8,-1
 384 1664 l 1,9,-1
 384 1536 l 1,10,-1
 256 1536 l 1,11,-1
 256 1664 l 1,8,-1
128 1408 m 1,12,-1
 256 1408 l 1,13,-1
 256 512 l 1,14,-1
 128 512 l 1,15,-1
 128 1408 l 1,12,-1
EndSplineSet
EndChar

StartChar: idieresis
Encoding: 239 239 174
Width: 512
Flags: W
LayerCount: 2
Fore
SplineSet
0 1664 m 1,0,-1
 128 1664 l 1,1,-1
 128 1536 l 1,2,-1
 0 1536 l 1,3,-1
 0 1664 l 1,0,-1
256 1664 m 1,4,-1
 384 1664 l 1,5,-1
 384 1536 l 1,6,-1
 256 1536 l 1,7,-1
 256 1664 l 1,4,-1
128 1408 m 1,8,-1
 256 1408 l 1,9,-1
 256 512 l 1,10,-1
 128 512 l 1,11,-1
 128 1408 l 1,8,-1
EndSplineSet
EndChar

StartChar: eth
Encoding: 240 240 175
Width: 896
Flags: W
LayerCount: 2
Fore
SplineSet
256 1792 m 1,0,-1
 384 1792 l 1,1,-1
 384 1664 l 1,2,-1
 256 1664 l 1,3,-1
 256 1792 l 1,0,-1
512 1792 m 1,4,-1
 640 1792 l 1,5,-1
 640 1664 l 1,6,-1
 512 1664 l 1,7,-1
 512 1792 l 1,4,-1
384 1664 m 1,8,-1
 512 1664 l 1,9,-1
 512 1536 l 1,10,-1
 384 1536 l 1,11,-1
 384 1664 l 1,8,-1
256 1536 m 1,12,-1
 384 1536 l 1,13,-1
 384 1408 l 1,14,-1
 256 1408 l 1,15,-1
 256 1536 l 1,12,-1
512 1536 m 1,16,-1
 640 1536 l 1,17,-1
 640 1280 l 1,18,-1
 512 1280 l 1,19,-1
 512 1536 l 1,16,-1
128 1280 m 1,20,-1
 512 1280 l 1,21,-1
 512 1152 l 1,22,-1
 128 1152 l 1,23,-1
 128 1280 l 1,20,-1
640 1280 m 1,24,-1
 768 1280 l 1,25,-1
 768 512 l 1,26,-1
 640 512 l 1,27,-1
 640 1280 l 1,24,-1
0 1152 m 1,28,-1
 128 1152 l 1,29,-1
 128 640 l 1,30,-1
 0 640 l 1,31,-1
 0 1152 l 1,28,-1
512 1152 m 1,32,-1
 640 1152 l 1,33,-1
 640 1024 l 1,34,-1
 512 1024 l 1,35,-1
 512 1152 l 1,32,-1
128 640 m 1,36,-1
 640 640 l 1,37,-1
 640 512 l 1,38,-1
 128 512 l 1,39,-1
 128 640 l 1,36,-1
EndSplineSet
EndChar

StartChar: ntilde
Encoding: 241 241 176
Width: 896
Flags: W
LayerCount: 2
Fore
SplineSet
128 1664 m 1,0,-1
 640 1664 l 1,1,-1
 640 1536 l 1,2,-1
 128 1536 l 1,3,-1
 128 1664 l 1,0,-1
0 1408 m 1,4,-1
 128 1408 l 1,5,-1
 128 512 l 1,6,-1
 0 512 l 1,7,-1
 0 1408 l 1,4,-1
128 1408 m 1,8,-1
 640 1408 l 1,9,-1
 640 1280 l 1,10,-1
 128 1280 l 1,11,-1
 128 1408 l 1,8,-1
640 1280 m 1,12,-1
 768 1280 l 1,13,-1
 768 512 l 1,14,-1
 640 512 l 1,15,-1
 640 1280 l 1,12,-1
EndSplineSet
EndChar

StartChar: ograve
Encoding: 242 242 177
Width: 896
Flags: W
LayerCount: 2
Fore
SplineSet
256 1792 m 1,0,-1
 384 1792 l 1,1,-1
 384 1664 l 1,2,-1
 256 1664 l 1,3,-1
 256 1792 l 1,0,-1
384 1664 m 1,4,-1
 512 1664 l 1,5,-1
 512 1536 l 1,6,-1
 384 1536 l 1,7,-1
 384 1664 l 1,4,-1
128 1408 m 1,8,-1
 640 1408 l 1,9,-1
 640 1280 l 1,10,-1
 128 1280 l 1,11,-1
 128 1408 l 1,8,-1
0 1280 m 1,12,-1
 128 1280 l 1,13,-1
 128 640 l 1,14,-1
 0 640 l 1,15,-1
 0 1280 l 1,12,-1
640 1280 m 1,16,-1
 768 1280 l 1,17,-1
 768 640 l 1,18,-1
 640 640 l 1,19,-1
 640 1280 l 1,16,-1
128 640 m 1,20,-1
 640 640 l 1,21,-1
 640 512 l 1,22,-1
 128 512 l 1,23,-1
 128 640 l 1,20,-1
EndSplineSet
EndChar

StartChar: oacute
Encoding: 243 243 178
Width: 896
Flags: W
LayerCount: 2
Fore
SplineSet
512 1792 m 1,0,-1
 640 1792 l 1,1,-1
 640 1664 l 1,2,-1
 512 1664 l 1,3,-1
 512 1792 l 1,0,-1
384 1664 m 1,4,-1
 512 1664 l 1,5,-1
 512 1536 l 1,6,-1
 384 1536 l 1,7,-1
 384 1664 l 1,4,-1
128 1408 m 1,8,-1
 640 1408 l 1,9,-1
 640 1280 l 1,10,-1
 128 1280 l 1,11,-1
 128 1408 l 1,8,-1
0 1280 m 1,12,-1
 128 1280 l 1,13,-1
 128 640 l 1,14,-1
 0 640 l 1,15,-1
 0 1280 l 1,12,-1
640 1280 m 1,16,-1
 768 1280 l 1,17,-1
 768 640 l 1,18,-1
 640 640 l 1,19,-1
 640 1280 l 1,16,-1
128 640 m 1,20,-1
 640 640 l 1,21,-1
 640 512 l 1,22,-1
 128 512 l 1,23,-1
 128 640 l 1,20,-1
EndSplineSet
EndChar

StartChar: ocircumflex
Encoding: 244 244 179
Width: 896
Flags: W
LayerCount: 2
Fore
SplineSet
256 1792 m 1,0,-1
 512 1792 l 1,1,-1
 512 1664 l 1,2,-1
 256 1664 l 1,3,-1
 256 1792 l 1,0,-1
128 1664 m 1,4,-1
 256 1664 l 1,5,-1
 256 1536 l 1,6,-1
 128 1536 l 1,7,-1
 128 1664 l 1,4,-1
512 1664 m 1,8,-1
 640 1664 l 1,9,-1
 640 1536 l 1,10,-1
 512 1536 l 1,11,-1
 512 1664 l 1,8,-1
128 1408 m 1,12,-1
 640 1408 l 1,13,-1
 640 1280 l 1,14,-1
 128 1280 l 1,15,-1
 128 1408 l 1,12,-1
0 1280 m 1,16,-1
 128 1280 l 1,17,-1
 128 640 l 1,18,-1
 0 640 l 1,19,-1
 0 1280 l 1,16,-1
640 1280 m 1,20,-1
 768 1280 l 1,21,-1
 768 640 l 1,22,-1
 640 640 l 1,23,-1
 640 1280 l 1,20,-1
128 640 m 1,24,-1
 640 640 l 1,25,-1
 640 512 l 1,26,-1
 128 512 l 1,27,-1
 128 640 l 1,24,-1
EndSplineSet
EndChar

StartChar: otilde
Encoding: 245 245 180
Width: 896
Flags: W
LayerCount: 2
Fore
SplineSet
128 1664 m 1,0,-1
 640 1664 l 1,1,-1
 640 1536 l 1,2,-1
 128 1536 l 1,3,-1
 128 1664 l 1,0,-1
128 1408 m 1,4,-1
 640 1408 l 1,5,-1
 640 1280 l 1,6,-1
 128 1280 l 1,7,-1
 128 1408 l 1,4,-1
0 1280 m 1,8,-1
 128 1280 l 1,9,-1
 128 640 l 1,10,-1
 0 640 l 1,11,-1
 0 1280 l 1,8,-1
640 1280 m 1,12,-1
 768 1280 l 1,13,-1
 768 640 l 1,14,-1
 640 640 l 1,15,-1
 640 1280 l 1,12,-1
128 640 m 1,16,-1
 640 640 l 1,17,-1
 640 512 l 1,18,-1
 128 512 l 1,19,-1
 128 640 l 1,16,-1
EndSplineSet
EndChar

StartChar: odieresis
Encoding: 246 246 181
Width: 896
Flags: W
LayerCount: 2
Fore
SplineSet
128 1664 m 1,0,-1
 256 1664 l 1,1,-1
 256 1536 l 1,2,-1
 128 1536 l 1,3,-1
 128 1664 l 1,0,-1
512 1664 m 1,4,-1
 640 1664 l 1,5,-1
 640 1536 l 1,6,-1
 512 1536 l 1,7,-1
 512 1664 l 1,4,-1
128 1408 m 1,8,-1
 640 1408 l 1,9,-1
 640 1280 l 1,10,-1
 128 1280 l 1,11,-1
 128 1408 l 1,8,-1
0 1280 m 1,12,-1
 128 1280 l 1,13,-1
 128 640 l 1,14,-1
 0 640 l 1,15,-1
 0 1280 l 1,12,-1
640 1280 m 1,16,-1
 768 1280 l 1,17,-1
 768 640 l 1,18,-1
 640 640 l 1,19,-1
 640 1280 l 1,16,-1
128 640 m 1,20,-1
 640 640 l 1,21,-1
 640 512 l 1,22,-1
 128 512 l 1,23,-1
 128 640 l 1,20,-1
EndSplineSet
EndChar

StartChar: divide
Encoding: 247 247 182
Width: 768
Flags: W
LayerCount: 2
Fore
SplineSet
256 1536 m 1,0,-1
 384 1536 l 1,1,-1
 384 1280 l 1,2,-1
 256 1280 l 1,3,-1
 256 1536 l 1,0,-1
0 1152 m 1,4,-1
 640 1152 l 1,5,-1
 640 1024 l 1,6,-1
 0 1024 l 1,7,-1
 0 1152 l 1,4,-1
256 896 m 1,8,-1
 384 896 l 1,9,-1
 384 640 l 1,10,-1
 256 640 l 1,11,-1
 256 896 l 1,8,-1
EndSplineSet
EndChar

StartChar: oslash
Encoding: 248 248 183
Width: 1152
Flags: W
LayerCount: 2
Fore
SplineSet
896 1536 m 1,0,-1
 1024 1536 l 1,1,-1
 1024 1408 l 1,2,-1
 896 1408 l 1,3,-1
 896 1536 l 1,0,-1
256 1408 m 1,4,-1
 896 1408 l 1,5,-1
 896 1280 l 1,6,-1
 256 1280 l 1,7,-1
 256 1408 l 1,4,-1
128 1280 m 1,8,-1
 256 1280 l 1,9,-1
 256 512 l 1,10,-1
 128 512 l 1,11,-1
 128 1280 l 1,8,-1
640 1280 m 1,12,-1
 896 1280 l 1,13,-1
 896 1152 l 1,14,-1
 640 1152 l 1,15,-1
 640 1280 l 1,12,-1
512 1152 m 1,16,-1
 640 1152 l 1,17,-1
 640 1024 l 1,18,-1
 512 1024 l 1,19,-1
 512 1152 l 1,16,-1
768 1152 m 1,20,-1
 896 1152 l 1,21,-1
 896 640 l 1,22,-1
 768 640 l 1,23,-1
 768 1152 l 1,20,-1
384 1024 m 1,24,-1
 512 1024 l 1,25,-1
 512 768 l 1,26,-1
 384 768 l 1,27,-1
 384 1024 l 1,24,-1
256 768 m 1,28,-1
 384 768 l 1,29,-1
 384 512 l 1,30,-1
 256 512 l 1,31,-1
 256 768 l 1,28,-1
384 640 m 1,32,-1
 768 640 l 1,33,-1
 768 512 l 1,34,-1
 384 512 l 1,35,-1
 384 640 l 1,32,-1
0 512 m 1,36,-1
 128 512 l 1,37,-1
 128 384 l 1,38,-1
 0 384 l 1,39,-1
 0 512 l 1,36,-1
EndSplineSet
EndChar

StartChar: ugrave
Encoding: 249 249 184
Width: 896
Flags: W
LayerCount: 2
Fore
SplineSet
256 1792 m 1,0,-1
 384 1792 l 1,1,-1
 384 1664 l 1,2,-1
 256 1664 l 1,3,-1
 256 1792 l 1,0,-1
384 1664 m 1,4,-1
 512 1664 l 1,5,-1
 512 1536 l 1,6,-1
 384 1536 l 1,7,-1
 384 1664 l 1,4,-1
0 1408 m 1,8,-1
 128 1408 l 1,9,-1
 128 640 l 1,10,-1
 0 640 l 1,11,-1
 0 1408 l 1,8,-1
640 1408 m 1,12,-1
 768 1408 l 1,13,-1
 768 512 l 1,14,-1
 640 512 l 1,15,-1
 640 1408 l 1,12,-1
128 640 m 1,16,-1
 640 640 l 1,17,-1
 640 512 l 1,18,-1
 128 512 l 1,19,-1
 128 640 l 1,16,-1
EndSplineSet
EndChar

StartChar: uacute
Encoding: 250 250 185
Width: 896
Flags: W
LayerCount: 2
Fore
SplineSet
512 1792 m 1,0,-1
 640 1792 l 1,1,-1
 640 1664 l 1,2,-1
 512 1664 l 1,3,-1
 512 1792 l 1,0,-1
384 1664 m 1,4,-1
 512 1664 l 1,5,-1
 512 1536 l 1,6,-1
 384 1536 l 1,7,-1
 384 1664 l 1,4,-1
0 1408 m 1,8,-1
 128 1408 l 1,9,-1
 128 640 l 1,10,-1
 0 640 l 1,11,-1
 0 1408 l 1,8,-1
640 1408 m 1,12,-1
 768 1408 l 1,13,-1
 768 512 l 1,14,-1
 640 512 l 1,15,-1
 640 1408 l 1,12,-1
128 640 m 1,16,-1
 640 640 l 1,17,-1
 640 512 l 1,18,-1
 128 512 l 1,19,-1
 128 640 l 1,16,-1
EndSplineSet
EndChar

StartChar: ucircumflex
Encoding: 251 251 186
Width: 896
Flags: W
LayerCount: 2
Fore
SplineSet
256 1792 m 1,0,-1
 512 1792 l 1,1,-1
 512 1664 l 1,2,-1
 256 1664 l 1,3,-1
 256 1792 l 1,0,-1
128 1664 m 1,4,-1
 256 1664 l 1,5,-1
 256 1536 l 1,6,-1
 128 1536 l 1,7,-1
 128 1664 l 1,4,-1
512 1664 m 1,8,-1
 640 1664 l 1,9,-1
 640 1536 l 1,10,-1
 512 1536 l 1,11,-1
 512 1664 l 1,8,-1
0 1408 m 1,12,-1
 128 1408 l 1,13,-1
 128 640 l 1,14,-1
 0 640 l 1,15,-1
 0 1408 l 1,12,-1
640 1408 m 1,16,-1
 768 1408 l 1,17,-1
 768 512 l 1,18,-1
 640 512 l 1,19,-1
 640 1408 l 1,16,-1
128 640 m 1,20,-1
 640 640 l 1,21,-1
 640 512 l 1,22,-1
 128 512 l 1,23,-1
 128 640 l 1,20,-1
EndSplineSet
EndChar

StartChar: udieresis
Encoding: 252 252 187
Width: 896
Flags: W
LayerCount: 2
Fore
SplineSet
128 1664 m 1,0,-1
 256 1664 l 1,1,-1
 256 1536 l 1,2,-1
 128 1536 l 1,3,-1
 128 1664 l 1,0,-1
512 1664 m 1,4,-1
 640 1664 l 1,5,-1
 640 1536 l 1,6,-1
 512 1536 l 1,7,-1
 512 1664 l 1,4,-1
0 1408 m 1,8,-1
 128 1408 l 1,9,-1
 128 640 l 1,10,-1
 0 640 l 1,11,-1
 0 1408 l 1,8,-1
640 1408 m 1,12,-1
 768 1408 l 1,13,-1
 768 512 l 1,14,-1
 640 512 l 1,15,-1
 640 1408 l 1,12,-1
128 640 m 1,16,-1
 640 640 l 1,17,-1
 640 512 l 1,18,-1
 128 512 l 1,19,-1
 128 640 l 1,16,-1
EndSplineSet
EndChar

StartChar: yacute
Encoding: 253 253 188
Width: 896
Flags: W
LayerCount: 2
Fore
SplineSet
512 1792 m 1,0,-1
 640 1792 l 1,1,-1
 640 1664 l 1,2,-1
 512 1664 l 1,3,-1
 512 1792 l 1,0,-1
384 1664 m 1,4,-1
 512 1664 l 1,5,-1
 512 1536 l 1,6,-1
 384 1536 l 1,7,-1
 384 1664 l 1,4,-1
0 1408 m 1,8,-1
 128 1408 l 1,9,-1
 128 640 l 1,10,-1
 0 640 l 1,11,-1
 0 1408 l 1,8,-1
640 1408 m 1,12,-1
 768 1408 l 1,13,-1
 768 384 l 1,14,-1
 640 384 l 1,15,-1
 640 1408 l 1,12,-1
512 768 m 1,16,-1
 640 768 l 1,17,-1
 640 640 l 1,18,-1
 512 640 l 1,19,-1
 512 768 l 1,16,-1
128 640 m 1,20,-1
 512 640 l 1,21,-1
 512 512 l 1,22,-1
 128 512 l 1,23,-1
 128 640 l 1,20,-1
512 384 m 1,24,-1
 640 384 l 1,25,-1
 640 256 l 1,26,-1
 512 256 l 1,27,-1
 512 384 l 1,24,-1
0 256 m 1,28,-1
 512 256 l 1,29,-1
 512 128 l 1,30,-1
 0 128 l 1,31,-1
 0 256 l 1,28,-1
EndSplineSet
EndChar

StartChar: thorn
Encoding: 254 254 189
Width: 640
Flags: W
LayerCount: 2
Fore
SplineSet
0 1792 m 1,0,-1
 128 1792 l 1,1,-1
 128 512 l 1,2,-1
 0 512 l 1,3,-1
 0 1792 l 1,0,-1
128 1408 m 1,4,-1
 384 1408 l 1,5,-1
 384 1280 l 1,6,-1
 128 1280 l 1,7,-1
 128 1408 l 1,4,-1
384 1280 m 1,8,-1
 512 1280 l 1,9,-1
 512 1024 l 1,10,-1
 384 1024 l 1,11,-1
 384 1280 l 1,8,-1
128 1024 m 1,12,-1
 384 1024 l 1,13,-1
 384 896 l 1,14,-1
 128 896 l 1,15,-1
 128 1024 l 1,12,-1
EndSplineSet
EndChar

StartChar: ydieresis
Encoding: 255 255 190
Width: 896
Flags: W
LayerCount: 2
Fore
SplineSet
128 1664 m 1,0,-1
 256 1664 l 1,1,-1
 256 1536 l 1,2,-1
 128 1536 l 1,3,-1
 128 1664 l 1,0,-1
512 1664 m 1,4,-1
 640 1664 l 1,5,-1
 640 1536 l 1,6,-1
 512 1536 l 1,7,-1
 512 1664 l 1,4,-1
0 1408 m 1,8,-1
 128 1408 l 1,9,-1
 128 640 l 1,10,-1
 0 640 l 1,11,-1
 0 1408 l 1,8,-1
640 1408 m 1,12,-1
 768 1408 l 1,13,-1
 768 384 l 1,14,-1
 640 384 l 1,15,-1
 640 1408 l 1,12,-1
512 768 m 1,16,-1
 640 768 l 1,17,-1
 640 640 l 1,18,-1
 512 640 l 1,19,-1
 512 768 l 1,16,-1
128 640 m 1,20,-1
 512 640 l 1,21,-1
 512 512 l 1,22,-1
 128 512 l 1,23,-1
 128 640 l 1,20,-1
512 384 m 1,24,-1
 640 384 l 1,25,-1
 640 256 l 1,26,-1
 512 256 l 1,27,-1
 512 384 l 1,24,-1
0 256 m 1,28,-1
 512 256 l 1,29,-1
 512 128 l 1,30,-1
 0 128 l 1,31,-1
 0 256 l 1,28,-1
EndSplineSet
EndChar
